<svg xmlns="http://www.w3.org/2000/svg" viewBox="0 0 16 16">
    <path d="m12.2937,7.47636c0,-0.17506 -0.06335,-0.32592 -0.19007,-0.4526l-2.67159,-2.67969c-0.2295,-0.2354 -0.34425,-0.51593 -0.34425,-0.84186c0,-0.32592 0.12073,-0.60347 0.36247,-0.83289c0.22922,-0.22942 0.50713,-0.34413 0.83315,-0.34413c0.32603,0 0.60067,0.11471 0.82392,0.34413l4.35586,4.35443c0.12072,0.12668 0.18109,0.27754 0.18109,0.4526c0,0.17533 -0.06037,0.32592 -0.18109,0.45287l-4.35586,4.35443c-0.22325,0.22317 -0.49788,0.3349 -0.82392,0.3349c-0.32603,0.00571 -0.60393,-0.10547 -0.83315,-0.3349c-0.2295,-0.22942 -0.35023,-0.50723 -0.36247,-0.83288c0,-0.32593 0.11475,-0.60673 0.34425,-0.84214l2.67159,-2.67942c0.12671,-0.12695 0.19007,-0.27754 0.19007,-0.45287m-6.79197,5.1422c-0.32603,0 -0.60067,-0.11172 -0.82391,-0.3349l-4.35613,-4.35443c-0.12073,-0.12695 -0.1811,-0.27754 -0.1811,-0.45287c0,-0.17506 0.06037,-0.32592 0.1811,-0.4526l4.35613,-4.35443c0.22324,-0.22942 0.49788,-0.34413 0.82391,-0.34413c0.32603,0 0.60366,0.11471 0.83316,0.34413c0.2295,0.22942 0.35022,0.50697 0.36219,0.83289c0,0.32592 -0.11475,0.60645 -0.34397,0.84186l-2.6716,2.67969c-0.12671,0.12668 -0.19007,0.27754 -0.19007,0.4526c0,0.17533 0.06335,0.32592 0.19007,0.45287l2.6716,2.67942c0.22923,0.2354 0.34397,0.5162 0.34397,0.84214c0,0.32565 -0.12073,0.60346 -0.36219,0.83288c-0.2295,0.22942 -0.50713,0.3406 -0.83316,0.3349"/>
</svg>