<svg xmlns="http://www.w3.org/2000/svg" viewBox="0 0 16 16">
    <path d="M4.41793409,7.83965461 L7.91541106,7.83965461 C8.20413092,7.83965461 8.39888677,7.70992575 8.50032888,7.44981777 C8.52894076,7.37048483 8.54357184,7.26579137 8.54357184,7.13573738 C8.54357184,7.00600852 8.48212133,6.87985615 8.35954544,6.75695513 C8.23664442,6.63405411 8.088708,6.57292873 7.91541106,6.57292873 L4.41793409,6.57292873 C4.25179012,6.57292873 4.1038537,6.63405411 3.97412485,6.75695513 C3.84407085,6.87985615 3.77904386,7.02746743 3.77904386,7.20076437 C3.77904386,7.36690835 3.84407085,7.51484476 3.97412485,7.64489876 C4.1038537,7.77462761 4.25179012,7.83965461 4.41793409,7.83965461 M4.41793409,5.29514826 L9.30146147,5.29514826 C9.47475842,5.30230123 9.62627132,5.24085072 9.75632531,5.11079673 C9.88605416,4.98106787 9.94750468,4.82955497 9.94035171,4.65625803 C9.94750468,4.48296109 9.88605416,4.33144819 9.75632531,4.2013942 C9.62627132,4.07166534 9.47475842,4.01021483 9.30146147,4.0173678 L4.41793409,4.0173678 C4.25179012,4.01021483 4.1038537,4.07166534 3.97412485,4.2013942 C3.84407085,4.33144819 3.77904386,4.48296109 3.77904386,4.65625803 C3.77904386,4.82955497 3.84407085,4.98106787 3.97412485,5.11079673 C4.1038537,5.24085072 4.25179012,5.30230123 4.41793409,5.29514826 M2.4362364,-2.27373675e-13 L10.7092959,-2.27373675e-13 C11.3803745,-2.27373675e-13 11.9542378,0.238323939 12.4308856,0.714646683 C12.9072084,1.19129456 13.1455323,1.7651578 13.1455323,2.43656153 L13.1455323,9.25821852 C13.1455323,9.69877642 13.0372624,10.1064957 12.8207225,10.4817014 C12.6041826,10.8572323 12.3079846,11.1531052 11.9327789,11.3696451 C11.557248,11.586185 11.1495287,11.6944549 10.7092959,11.6944549 L6.4210907,11.6944549 C6.21170377,11.6944549 6.02767737,11.76696 5.8690115,11.9109948 L3.8008279,13.903422 C3.68507985,14.0045389 3.55892748,14.026323 3.42172052,13.968449 C3.28451356,13.9105749 3.21591007,13.802305 3.21591007,13.6436391 L3.23769412,12.3769132 C3.23769412,12.1818322 3.17266712,12.0192648 3.04261313,11.8895359 C2.91288427,11.7594819 2.71065032,11.6944549 2.4362364,11.6944549 C1.7651578,11.6944549 1.19096943,11.4564561 0.714646683,10.9798082 C0.238323939,10.5034855 0,9.92962225 0,9.25821852 L0,2.43656153 C0,1.7651578 0.238323939,1.19129456 0.714646683,0.714646683 C1.19096943,0.238323939 1.7651578,-2.27373675e-13 2.4362364,-2.27373675e-13"/>
</svg>