<svg xmlns="http://www.w3.org/2000/svg" viewBox="0 0 16 16">
    <path d="m11.95654,0.08915l-2.05258,-0.00329c-2.306,0 -3.79624,1.52893 -3.79624,3.89537l0,1.79602l-2.06377,0c-0.17833,0 -0.32275,0.14458 -0.32275,0.32291l0,2.60223c0,0.17833 0.14458,0.32275 0.32275,0.32275l2.06377,0l0,6.56627c0,0.17833 0.14441,0.32275 0.32275,0.32275l2.69264,0c0.17833,0 0.32275,-0.14458 0.32275,-0.32275l0,-6.56627l2.41303,0c0.17833,0 0.32275,-0.14441 0.32275,-0.32275l0.00099,-2.60223c0,-0.08563 -0.03409,-0.16763 -0.09452,-0.22823c-0.06043,-0.0606 -0.14277,-0.09468 -0.22839,-0.09468l-2.41386,0l0,-1.52251c0,-0.73178 0.17438,-1.10327 1.12764,-1.10327l1.38271,-0.00049c0.17817,0 0.32258,-0.14458 0.32258,-0.32275l0,-2.41633c0,-0.17801 -0.14425,-0.32242 -0.32225,-0.32275z"/>
</svg>