<svg xmlns="http://www.w3.org/2000/svg" viewBox="0 0 16 16">
    <path d="m0.88603,1.08196a0.70716,0.70716 0 0 1 0.50702,0a0.64045,0.64045 0 0 1 0.34691,0.42696l4.14955,13.34261a0.77387,0.77387 0 0 1 0,0.54705a0.66713,0.66713 0 0 1 -0.42696,0.36025a0.64045,0.64045 0 0 1 -0.5337,0a0.70716,0.70716 0 0 1 -0.36025,-0.42696l-4.22961,-13.34261a0.68047,0.68047 0 0 1 0.13343,-0.6271a0.80056,0.80056 0 0 1 0.41362,-0.28019zm1.74788,1.22752q-0.32022,-1.09409 0.96067,-1.54774a5.73732,5.73732 0 0 1 4.53649,0.69382a5.89743,5.89743 0 0 0 4.00278,1.05407a4.10952,4.10952 0 0 0 0.56039,-0.16011q0.77387,-0.20014 0.94733,0.42696l1.74788,5.68395a1.09409,1.09409 0 0 1 -0.33357,1.33426a3.12217,3.12217 0 0 1 -1.92134,0.40028a6.57791,6.57791 0 0 1 -2.882,-1.02738a5.33704,5.33704 0 0 0 -3.41571,-0.7205a4.17624,4.17624 0 0 0 -1.06741,0.32022q-1.0007,0.45365 -1.26755,-0.36025l-1.86797,-6.09757z"/>
</svg>