<svg xmlns="http://www.w3.org/2000/svg" viewBox="0 0 16 16">
    <path d="m8.04064,13.8794c-0.29357,0 -0.54945,-0.09982 -0.76793,-0.29975c-2.04791,-1.87919 -3.77723,-3.63972 -5.18796,-5.28159c-0.50586,-0.51177 -0.83345,-1.11127 -0.98332,-1.79821c-0.14988,-0.68667 -0.09364,-1.36715 0.16843,-2.04144c0.25588,-0.66164 0.66811,-1.19872 1.23611,-1.61066c0.5621,-0.41194 1.18016,-0.63999 1.85445,-0.68357c0.67401,-0.04359 1.3171,0.08745 1.92897,0.3931c0.61186,0.30622 1.08933,0.75865 1.43294,1.35787c0.0748,0.12513 0.1808,0.18727 0.31831,0.18727c0.13722,0 0.24351,-0.06214 0.3183,-0.18727c0.36836,-0.6428 0.90853,-1.12364 1.62022,-1.44194c0.48702,-0.22496 1.00497,-0.33096 1.55442,-0.31859c0.54944,0.01265 1.05502,0.1375 1.5173,0.37482c0.46171,0.23705 0.84891,0.53989 1.16103,0.90825c0.56801,0.67429 0.83654,1.49537 0.80533,2.46294c-0.02502,0.96139 -0.38073,1.78556 -1.06739,2.47222c-1.50465,1.72314 -3.21851,3.45892 -5.14128,5.2068c-0.21877,0.19993 -0.47465,0.29975 -0.76793,0.29975"/>
</svg>