<svg xmlns="http://www.w3.org/2000/svg" viewBox="0 0 16 16">
    <path d="m0.03021,11.54886a0.74308,0.74308 0 0 1 0.28186,-0.52528a0.93526,0.93526 0 0 1 0.6534,-0.24342l1.85771,0a1.02494,1.02494 0 0 0 0.78152,-0.33311l5.97028,-6.05996a3.03639,3.03639 0 0 1 2.11394,-0.79433l0.38435,0a0.4356,0.4356 0 0 0 0.30748,-0.12812a0.39716,0.39716 0 0 0 0.12812,-0.24342l0,-1.01213a0.24342,0.24342 0 0 1 0.16655,-0.26905a0.25624,0.25624 0 0 1 0.28186,0l2.81859,2.10113a0.38435,0.38435 0 0 1 0.19218,0.33311a0.40998,0.40998 0 0 1 -0.19218,0.34592l-2.81859,2.21643a0.25624,0.25624 0 0 1 -0.28186,0a0.25624,0.25624 0 0 1 -0.15374,-0.25624l0,-0.89682a0.38435,0.38435 0 0 0 -0.15374,-0.35873a0.56372,0.56372 0 0 0 -0.28186,-0.08968l-0.39716,0a1.06338,1.06338 0 0 0 -0.78152,0.32029l-5.98309,6.03434a3.0492,3.0492 0 0 1 -2.12675,0.79433l-1.83208,0a0.90963,0.90963 0 0 1 -0.93526,-0.93526zm5.29126,-4.48412a0.8712,0.8712 0 0 1 -0.6534,-0.28186l-1.07619,-1.11462a1.02494,1.02494 0 0 0 -0.78152,-0.33311l-1.84489,0a0.93526,0.93526 0 0 1 -0.6534,-0.24342a0.80714,0.80714 0 0 1 -0.28186,-0.58934l0,0a0.81995,0.81995 0 0 1 0.28186,-0.61496a0.93526,0.93526 0 0 1 0.6534,-0.24342l1.84489,0a3.02358,3.02358 0 0 1 2.12675,0.80714l1.06338,0.99932a0.84558,0.84558 0 0 1 0.26905,0.6534a0.94807,0.94807 0 0 1 -0.26905,0.69184a0.98651,0.98651 0 0 1 -0.67902,0.26905zm3.1645,2.24206a0.8712,0.8712 0 0 1 0.6534,-0.28186a0.94807,0.94807 0 0 1 0.67902,0.28186l1.10181,1.15306a1.03775,1.03775 0 0 0 0.78152,0.32029l0.38435,0a0.40998,0.40998 0 0 0 0.30748,-0.14093a0.4356,0.4356 0 0 0 0.14093,-0.30748l0,-0.97369a0.26905,0.26905 0 0 1 0.4356,-0.23061l2.81859,2.15238a0.40998,0.40998 0 0 1 0.19218,0.34592a0.38435,0.38435 0 0 1 -0.19218,0.33311l-2.81859,2.10113a0.25624,0.25624 0 0 1 -0.28186,0a0.24342,0.24342 0 0 1 -0.15374,-0.24342l0,-0.90963a0.4356,0.4356 0 0 0 -0.14093,-0.32029a0.38435,0.38435 0 0 0 -0.30748,-0.12812l-0.39716,0a2.99795,2.99795 0 0 1 -2.11394,-0.80714l-1.089,-0.99932a0.90963,0.90963 0 0 1 -0.25624,-0.66621a0.94807,0.94807 0 0 1 0.25624,-0.67902z"/>
</svg>