<svg xmlns="http://www.w3.org/2000/svg" viewBox="0 0 16 16">
    <path d="m6.26508,8.00027a0.78639,0.78639 0 0 0 0.3646,0.7149l3.52446,2.08751a1.25108,1.25108 0 0 0 1.15814,0.05719a2.47355,2.47355 0 0 1 2.25194,0.09294a2.46641,2.46641 0 0 1 1.35116,1.83729a2.55934,2.55934 0 0 1 -0.57907,2.1447a2.41636,2.41636 0 0 1 -1.88019,0.92937a2.64513,2.64513 0 0 1 -1.87304,-0.7149a2.31628,2.31628 0 0 1 -0.81499,-1.57278a1.36546,1.36546 0 0 0 -0.61481,-1.19388l-3.33143,-1.92308a1.24393,1.24393 0 0 0 -1.12954,-0.06434a3.27424,3.27424 0 0 1 -1.16529,0.23592a2.21619,2.21619 0 0 1 -1.0795,-0.26451a2.65943,2.65943 0 0 1 -0.83643,-0.7149a2.27338,2.27338 0 0 1 -0.50043,-0.93652a2.63083,2.63083 0 0 1 -0.05004,-1.16529a2.43781,2.43781 0 0 1 1.38691,-1.86589a2.4807,2.4807 0 0 1 2.21619,-0.09294a1.20103,1.20103 0 0 0 1.17959,-0.04289l3.28854,-1.96598a1.34401,1.34401 0 0 0 0.60052,-1.17959a2.30913,2.30913 0 0 1 0.82214,-1.55133a2.66658,2.66658 0 0 1 1.90163,-0.7149a2.38062,2.38062 0 0 1 1.90163,0.92937a2.5379,2.5379 0 0 1 0.57907,2.1447a2.45211,2.45211 0 0 1 -1.37976,1.85874a2.40206,2.40206 0 0 1 -2.23049,0.07149a1.24393,1.24393 0 0 0 -1.17959,0.03575l-3.51731,2.10896a0.75779,0.75779 0 0 0 -0.3646,0.7149l-0.00001,-0.00001z"/>
</svg>