<svg><g id="add"><path d="m32,1a31,31 0 1 0 31,31a31,31 0 0 0 -31,-31zm15.345,32.29167a1.91167,1.91167 0 0 1 -0.59417,1.40792a1.9375,1.9375 0 0 1 -1.40792,0.59417l-9.79083,0l0,9.9975a1.84708,1.84708 0 0 1 -0.58125,1.395a1.91167,1.91167 0 0 1 -1.42083,0.60708l-2.75125,0a1.95042,1.95042 0 0 1 -1.38208,-0.55542a1.91167,1.91167 0 0 1 -0.59417,-1.395l0,-9.9975l-10.01042,0a2.05375,2.05375 0 0 1 -2.015,-2.05375l0,-2.69958a1.95042,1.95042 0 0 1 0.60708,-1.42083a1.86,1.86 0 0 1 1.40792,-0.58125l9.98458,0l0,-9.77792a1.82125,1.82125 0 0 1 0.99458,-1.73083a1.86,1.86 0 0 1 1.0075,-0.28417l2.75125,0a1.88583,1.88583 0 0 1 1.75667,0.99458a1.84708,1.84708 0 0 1 0.24542,1.02042l0,9.77792l9.79083,0a1.87292,1.87292 0 0 1 1.40792,0.58125a1.9375,1.9375 0 0 1 0.59417,1.42083l0,2.69958z" /></g></svg>