<svg xmlns="http://www.w3.org/2000/svg" viewBox="0 0 64 64"><g id="app-logo"><path d="m55.54408,11.94496c-1.99083,0 -3.78257,-1.59266 -3.78257,-3.78257s1.59266,-3.78257 3.78257,-3.78257s3.78257,1.59266 3.78257,3.78257s-1.79174,3.78257 -3.78257,3.78257zm0,47.38169c-1.99083,0 -3.78257,-1.59266 -3.78257,-3.78257s1.59266,-3.78257 3.78257,-3.78257s3.78257,1.59266 3.78257,3.78257s-1.79174,3.78257 -3.78257,3.78257zm-9.35689,-14.73212c0.79633,0.79633 1.1945,1.79174 1.1945,2.98624c0,1.1945 -0.39817,2.18991 -1.1945,2.98624c-0.79633,0.79633 -1.79174,1.1945 -2.98624,1.1945c-1.1945,0 -2.18991,-0.39817 -2.98624,-1.1945l-12.54221,-12.74129l0,9.75505c0,1.1945 -0.39817,2.18991 -1.1945,2.98624c-1.59266,1.59266 -4.18074,1.59266 -5.97248,0c-0.79633,-0.79633 -1.1945,-1.79174 -1.1945,-2.98624l0,-31.45507c0,-1.1945 0.39817,-2.18991 1.1945,-2.98624c1.59266,-1.59266 4.18074,-1.59266 5.97248,0c0,0 0,0 0,0c0.79633,0.79633 1.1945,1.79174 1.1945,2.98624l0,9.95414l12.54221,-12.74129c0.79633,-0.99541 1.79174,-1.39358 2.98624,-1.39358c1.1945,0 2.18991,0.39817 2.98624,1.1945c1.59266,1.59266 1.59266,4.18074 0,5.97248c0,0 0,0 0,0l-12.74129,12.74129l12.74129,12.74129zm-38.0248,-32.64957c-1.99083,0 -3.78257,-1.59266 -3.78257,-3.78257s1.59266,-3.78257 3.78257,-3.78257s3.78257,1.79174 3.78257,3.78257s-1.79174,3.78257 -3.78257,3.78257zm0,47.38169c-1.99083,0 -3.78257,-1.59266 -3.78257,-3.78257s1.79174,-3.78257 3.78257,-3.78257s3.78257,1.79174 3.78257,3.78257s-1.79174,3.78257 -3.78257,3.78257zm51.96059,-59.32665l-56.53949,0c-1.99083,0 -3.58349,1.59266 -3.58349,3.58349l0,56.73858c0,1.99083 1.59266,3.58349 3.58349,3.58349l0,0l56.73858,0c1.99083,0 3.58349,-1.59266 3.58349,-3.58349l0,0l0,-56.73858c-0.19908,-1.99083 -1.79174,-3.58349 -3.78257,-3.58349l0,0z" /></g></svg>