<svg xmlns="http://www.w3.org/2000/svg" viewBox="0 0 23.4 23.4"><title>Remix</title><g id="Layer_2" data-name="Layer 2"><g id="Layer_1-2" data-name="Layer 1"><path d="M18.2,0H5.2A5.2,5.2,0,0,0,0,5.2v13a5.2,5.2,0,0,0,5.2,5.2h13a5.2,5.2,0,0,0,5.2-5.2V5.2A5.2,5.2,0,0,0,18.2,0ZM9.4,16.7H7.9a1,1,0,0,1-1-1,.9.9,0,0,1,1-1H9.4a.9.9,0,0,1,1,1A1,1,0,0,1,9.4,16.7Zm8.2-.8a1.1,1.1,0,0,1-1.1.8h-3a.8.8,0,0,1-.7-.4l-3-5.7H6.6v.9a.9.9,0,0,1-.3.6h0a.8.8,0,0,1-1.1,0l-2-2A.8.8,0,0,1,3.2,9l2-2A.8.8,0,0,1,6.3,7a.7.7,0,0,1,.3.6v.9h3.5a.7.7,0,0,1,.6.2c.2,0,.3.1.4.3l3,5.7h2.5A1,1,0,0,1,17.6,15.9Zm2.6-5.8-1.9,2a.9.9,0,0,1-1.2,0,1.4,1.4,0,0,1-.2-.6v-.9H14.2a1,1,0,0,1-1.1-1.1,1,1,0,0,1,1.1-1h2.7V7.6a1.1,1.1,0,0,1,.2-.6.9.9,0,0,1,1.2,0l1.9,2A.8.8,0,0,1,20.2,10.1Z"/></g></g></svg>