<svg xmlns="http://www.w3.org/2000/svg" viewBox="0 0 64 64">
    <path d="m28.32396,48.79102l-13.32734,13.32734a4.794,4.794 0 0 1 -3.59552,1.48615a5.12959,5.12959 0 0 1 -3.66741,-1.48615l-5.89662,-5.89662a5.12959,5.12959 0 0 1 -1.48615,-3.66741a4.794,4.794 0 0 1 1.48615,-3.59552l13.39923,-13.32734a5.22545,5.22545 0 0 0 0,-7.33482l-13.39923,-13.18353a4.794,4.794 0 0 1 -1.48615,-3.59552a5.12959,5.12959 0 0 1 1.48615,-3.66741l5.89662,-5.89662a5.12959,5.12959 0 0 1 3.66741,-1.48615a4.794,4.794 0 0 1 3.59552,1.48615l13.32734,13.15955a5.22545,5.22545 0 0 0 7.33482,0l13.30337,-13.30337a4.794,4.794 0 0 1 3.59552,-1.48615a5.12959,5.12959 0 0 1 3.66741,1.48615l5.89662,5.89662a5.12959,5.12959 0 0 1 1.48615,3.66741a4.794,4.794 0 0 1 -1.48615,3.59552l-13.32734,13.35132a5.22545,5.22545 0 0 0 0,7.33482l13.30337,13.30337a4.794,4.794 0 0 1 1.34234,4.93782a5.00975,5.00975 0 0 1 -1.34234,2.397l-5.89662,5.89662a5.12959,5.12959 0 0 1 -3.66741,1.48615a4.794,4.794 0 0 1 -3.59552,-1.48615l-13.30337,-13.30337a5.22545,5.22545 0 0 0 -7.33482,0l0.02398,-0.09586z"/>
</svg>
