<svg xmlns="http://www.w3.org/2000/svg" viewBox="0 0 64 64"><title>Kano_ICON-2019</title><g id="Layer_1" data-name="Layer 1"><path d="M11.7,29.6a3.3,3.3,0,0,1-2.5-1,3,3,0,0,1-1-2.5V11.6a2.9,2.9,0,0,1,1-2.4,3.4,3.4,0,0,1,2.5-1.1H26.2a3.4,3.4,0,0,1,2.4,1.1,3.4,3.4,0,0,1,1.1,2.4V26.1a3.4,3.4,0,0,1-1.1,2.5,3.3,3.3,0,0,1-2.4,1Zm0,26.2a3,3,0,0,1-2.5-1,2.9,2.9,0,0,1-1-2.4V37.8a2.9,2.9,0,0,1,1-2.4,3,3,0,0,1,2.5-1H26.2a2.9,2.9,0,0,1,2.4,1,3.4,3.4,0,0,1,1.1,2.4V52.4a3.4,3.4,0,0,1-1.1,2.4,2.9,2.9,0,0,1-2.4,1ZM37.8,29.6a3.3,3.3,0,0,1-2.4-1,3.4,3.4,0,0,1-1.1-2.5V11.6a3.4,3.4,0,0,1,1.1-2.4,3.4,3.4,0,0,1,2.4-1.1H52.3a3.4,3.4,0,0,1,2.5,1.1,3.3,3.3,0,0,1,1,2.4V26.1a3.4,3.4,0,0,1-3.5,3.5Zm0,26.2a2.9,2.9,0,0,1-2.4-1,3.4,3.4,0,0,1-1.1-2.4V37.8a3.4,3.4,0,0,1,1.1-2.4,2.9,2.9,0,0,1,2.4-1H52.3a3,3,0,0,1,2.5,1,3.3,3.3,0,0,1,1,2.4V52.4a3.3,3.3,0,0,1-1,2.4,3,3,0,0,1-2.5,1Z"/></g></svg>