<svg xmlns="http://www.w3.org/2000/svg" viewBox="0 0 64 64">
    <path d="M18,30.39a2.35,2.35,0,0,1-1.72-.72A2.22,2.22,0,0,1,15.54,28V18a2.22,2.22,0,0,1,.69-1.68A2.35,2.35,0,0,1,18,15.57H28a2.33,2.33,0,0,1,1.7.72A2.3,2.3,0,0,1,30.39,18V28a2.3,2.3,0,0,1-.72,1.68,2.32,2.32,0,0,1-1.7.72Zm0,18.12a2.27,2.27,0,0,1-1.72-.69,2.24,2.24,0,0,1-.69-1.7v-10a2.25,2.25,0,0,1,.69-1.7A2.27,2.27,0,0,1,18,33.69H28a2.25,2.25,0,0,1,1.7.69,2.33,2.33,0,0,1,.72,1.7v10a2.33,2.33,0,0,1-.72,1.7,2.25,2.25,0,0,1-1.7.69ZM36,30.39a2.32,2.32,0,0,1-1.7-.72A2.3,2.3,0,0,1,33.62,28V18a2.3,2.3,0,0,1,.72-1.68,2.33,2.33,0,0,1,1.7-.72H46a2.35,2.35,0,0,1,1.72.72A2.23,2.23,0,0,1,48.47,18V28a2.22,2.22,0,0,1-.69,1.68,2.35,2.35,0,0,1-1.72.72Zm0,18.12a2.25,2.25,0,0,1-1.7-.69,2.32,2.32,0,0,1-.72-1.7v-10a2.33,2.33,0,0,1,.72-1.7,2.25,2.25,0,0,1,1.7-.69H46a2.37,2.37,0,0,1,2.42,2.4v10a2.25,2.25,0,0,1-.69,1.7,2.28,2.28,0,0,1-1.72.69Z"/>
</svg>