<svg version="1.1" id="Layer_1" xmlns="http://www.w3.org/2000/svg" xmlns:xlink="http://www.w3.org/1999/xlink" x="0px" y="0px"
	 viewBox="0 0 29.19 29.17" style="enable-background:new 0 0 29.19 29.17;" xml:space="preserve">
<style type="text/css">
	.st0{fill:#FF6900;}
</style>
<path d="M2.09,13.08c-0.6,0-1.11-0.21-1.53-0.64c-0.43-0.42-0.63-0.92-0.62-1.49V2.03c-0.01-0.57,0.19-1.07,0.62-1.49
	C0.98,0.11,1.49-0.1,2.09-0.1h8.9c0.58,0,1.09,0.21,1.51,0.64c0.42,0.42,0.64,0.92,0.64,1.49v8.91c0,0.57-0.21,1.07-0.64,1.49
	c-0.43,0.43-0.93,0.64-1.51,0.64H2.09z"/>
<path d="M2.09,29.17c-0.6,0.01-1.11-0.19-1.53-0.62c-0.43-0.42-0.63-0.93-0.62-1.51v-8.92
	c-0.01-0.58,0.19-1.09,0.62-1.51c0.42-0.42,0.94-0.63,1.53-0.62h8.9c0.58-0.01,1.09,0.19,1.51,0.62c0.42,0.42,0.64,0.93,0.64,1.51
	v8.92c0,0.58-0.21,1.09-0.64,1.51c-0.43,0.42-0.93,0.63-1.51,0.62H2.09z"/>
<path d="M18.15,13.08c-0.58,0-1.09-0.21-1.51-0.64C16.21,12.02,16,11.52,16,10.94V2.03c0-0.57,0.21-1.07,0.64-1.49
	c0.43-0.43,0.93-0.64,1.51-0.64h8.9c0.6,0,1.11,0.21,1.53,0.64c0.42,0.42,0.63,0.92,0.62,1.49v8.91c0.01,0.57-0.19,1.07-0.62,1.49
	c-0.43,0.43-0.94,0.64-1.53,0.64H18.15z"/>
<path d="M18.15,29.17c-0.58,0.01-1.09-0.19-1.51-0.62C16.21,28.13,16,27.63,16,27.05v-8.92c0-0.58,0.21-1.09,0.64-1.51
	c0.43-0.42,0.93-0.63,1.51-0.62h8.9c0.6-0.01,1.11,0.19,1.53,0.62c0.42,0.42,0.63,0.93,0.62,1.51v8.92
	c0.01,0.58-0.19,1.09-0.62,1.51c-0.43,0.42-0.94,0.63-1.53,0.62H18.15z"/>
</svg>
