<svg viewBox="0 0 24 24" xmlns="http://www.w3.org/2000/svg" xmlns:xlink="http://www.w3.org/1999/xlink"><defs><path id="a" d="M.2.693h10.55v10.549H.2z"/></defs><g fill="none" fill-rule="evenodd"><path d="M16.475 13.992l-.023 3.884-10.022-.058V7.854l.059-.058 3.604.02a.591.591 0 0 0 .595-.59V5.957a.592.592 0 0 0-.591-.59H6.489A2.488 2.488 0 0 0 4 7.854v9.963a2.488 2.488 0 0 0 2.489 2.488h9.963a2.488 2.488 0 0 0 2.489-2.488v-3.823a.583.583 0 0 0-.583-.583h-1.3a.583.583 0 0 0-.583.58" fill="#9FA4A8"/><g transform="translate(9.478 3.09)"><mask id="b" fill="#fff"><use xlink:href="#a"/></mask><path d="M10.624 2.331L9.111.818a.43.43 0 0 0-.605 0L.71 8.613c-.06.06-.1.135-.117.218L.21 10.728a.43.43 0 0 0 .506.505l1.897-.384a.428.428 0 0 0 .217-.117l7.795-7.795a.428.428 0 0 0 0-.606" fill="#9FA4A8"/></g></g></svg>