<svg xmlns="http://www.w3.org/2000/svg" viewBox="0 0 64 64">
    <path d="M52.67,24.14V43.08A2.34,2.34,0,0,1,52,44.8a2.48,2.48,0,0,1-1.75.74H13.7A2.44,2.44,0,0,1,12,44.8a2.34,2.34,0,0,1-.71-1.72V24.14a1.19,1.19,0,0,1,.68-1.09,1.11,1.11,0,0,1,1.26.14L30.23,36.9a2.52,2.52,0,0,0,1.7.64,2.61,2.61,0,0,0,1.72-.64L50.73,23.19A1.09,1.09,0,0,1,52,23.05,1.18,1.18,0,0,1,52.67,24.14ZM49.2,18.66a1.09,1.09,0,0,1,1.12.82,1,1,0,0,1-.41,1.28L33.1,33.64a2,2,0,0,1-2.35,0L14,20.76a1.16,1.16,0,0,1,.71-2.1Z"/>
</svg>