<svg viewBox="0 0 11 14" xmlns="http://www.w3.org/2000/svg" xmlns:xlink="http://www.w3.org/1999/xlink"><defs><path id="a" d="M0 .12h10.352v2.546H0z"/></defs><g fill="none" fill-rule="evenodd"><path d="M6.104.483a.51.51 0 0 0-.722 0L1.598 4.267c-.199.2-.199.522 0 .721l.971.97c.2.2.522.2.721 0l1.312-1.31v4.837c0 .26.21.47.468.47h1.345c.26 0 .47-.21.47-.47V4.647l1.31 1.312c.2.198.522.198.721 0l.972-.972a.51.51 0 0 0 0-.72L6.104.483z" fill="rgba(255, 255, 255, 0.5)"/><g transform="translate(.567 10.733)"><mask id="b" fill="#fff"><use xlink:href="#a"/></mask><path d="M9.816.12H.536A.536.536 0 0 0 0 .656V2.13c0 .296.24.535.536.535h9.28c.296 0 .536-.24.536-.535V.656A.536.536 0 0 0 9.816.12" fill="rgba(255, 255, 255, 0.5)"/></g></g></svg>