<svg id="Layer_1" data-name="Layer 1" xmlns="http://www.w3.org/2000/svg" xmlns:xlink="http://www.w3.org/1999/xlink" viewBox="0 0 17.97 10.68"><defs><mask id="mask" x="0" y="0" width="17.97" height="10.68" maskUnits="userSpaceOnUse"><g transform="translate(-0.83 -0.5)"><g id="mask-2"><polygon id="path-1" points="0.83 0.5 18.8 0.5 18.8 11.18 0.83 11.18 0.83 0.5" style="fill:#fff"/></g></g></mask></defs><title>NAV_EYEgrey Copy 12 - test</title><g id="KanoCode-RemixLists-Copy"><g id="KanoCode-Basic-Copy-20"><g id="Group-13"><g id="Icon-_-NavNav_Icon_NAV_EYEgrey" data-name="Icon-/-NavNav/Icon/NAV_EYEgrey"><g id="Group-3"><g style="mask:url(#mask)"><path id="Fill-1" d="M11.78,5.86a1.81,1.81,0,0,1-.57,1.39,1.88,1.88,0,0,1-1.4.58,1.86,1.86,0,0,1-1.39-.58,1.86,1.86,0,0,1-.58-1.39,1.92,1.92,0,0,1,.58-1.41,1.89,1.89,0,0,1,1.39-.58,1.92,1.92,0,0,1,1.4.58,1.87,1.87,0,0,1,.57,1.41M9.61,9.49A4.48,4.48,0,0,0,11,9.31,3.61,3.61,0,0,0,12.76,8a3.3,3.3,0,0,0,.72-2A3.9,3.9,0,0,0,13,4a3.56,3.56,0,0,0-1.34-1.33A3.7,3.7,0,0,0,8,2.68,3.47,3.47,0,0,0,6.64,4a3.58,3.58,0,0,0-.49,1.85,3.45,3.45,0,0,0,.49,1.82A3.51,3.51,0,0,0,8,9a3.22,3.22,0,0,0,1.64.49M18.8,5.86a1.51,1.51,0,0,1-.33.89c-.23.3-.49.62-.81,1a13.81,13.81,0,0,1-1.29,1.17,10.18,10.18,0,0,1-6.58,2.29A10.1,10.1,0,0,1,3.22,8.89,12.36,12.36,0,0,1,1.09,6.67a1.39,1.39,0,0,1-.26-.81A1.37,1.37,0,0,1,1.1,5c.18-.24.37-.49.58-.72s.47-.52.8-.83a10.11,10.11,0,0,1,1-.86A10.07,10.07,0,0,1,9.82.5,10.48,10.48,0,0,1,18.53,5a1.37,1.37,0,0,1,.27.82" transform="translate(-0.83 -0.5)"/></g></g></g></g></g></g></svg>