<svg viewBox="0 0 18 15" xmlns="http://www.w3.org/2000/svg" xmlns:xlink="http://www.w3.org/1999/xlink"><defs><path id="a" d="M0 0H17.32v14.158H0z"/></defs><g fill="none" fill-rule="evenodd"><mask id="b" fill="#fff"><use xlink:href="#a"/></mask><path d="M16.206 2.641c.47-.007.81.22 1.025.68a.851.851 0 0 1 .086.431v9.295a1.118 1.118 0 0 1-.333.79 1.06 1.06 0 0 1-.778.321H1.098a1.06 1.06 0 0 1-.778-.32 1.074 1.074 0 0 1-.32-.79V1.098C0 .794.106.535.32.321.534.107.794 0 1.098 0h6.344c.494 0 .848.224 1.062.668l.654 1.308c.214.444.568.666 1.062.666h5.986z"/></g></svg>