<svg xmlns="http://www.w3.org/2000/svg" xmlns:xlink="http://www.w3.org/1999/xlink" viewBox="0 0 64 64"><defs><style>.cls-1{fill:none;}.cls-2{clip-rule:evenodd;}.cls-3{clip-path:url(#clip-path);}.cls-4{fill-rule:evenodd;}.cls-5{clip-path:url(#clip-path-2);}.cls-6{clip-path:url(#clip-path-3);}</style><clipPath id="clip-path"><path class="cls-1" d="M51.1,20.9a2.6,2.6,0,0,1,2.6,1.7,2,2,0,0,1,.2,1.1V47.2a2.8,2.8,0,0,1-.8,2,3,3,0,0,1-2,.8H12.9a3,3,0,0,1-2-.8,2.8,2.8,0,0,1-.8-2V17a3,3,0,0,1,.8-2,3,3,0,0,1,2-.8h16a2.8,2.8,0,0,1,2.7,1.7l1.7,3.3A2.8,2.8,0,0,0,36,20.9Z"/></clipPath><clipPath id="clip-path-2"><path class="cls-2" d="M51.1,20.9a2.6,2.6,0,0,1,2.6,1.7,2,2,0,0,1,.2,1.1V47.2a2.8,2.8,0,0,1-.8,2,3,3,0,0,1-2,.8H12.9a3,3,0,0,1-2-.8,2.8,2.8,0,0,1-.8-2V17a3,3,0,0,1,.8-2,3,3,0,0,1,2-.8h16a2.8,2.8,0,0,1,2.7,1.7l1.7,3.3A2.8,2.8,0,0,0,36,20.9Z"/></clipPath><clipPath id="clip-path-3"><rect x="10.1" y="14.2" width="45.5" height="37.94"/></clipPath></defs><title>Kano_ICON-2019</title><g id="Layer_1" data-name="Layer 1"><path class="cls-4" d="M51.1,20.9a2.6,2.6,0,0,1,2.6,1.7,2,2,0,0,1,.2,1.1V47.2a2.8,2.8,0,0,1-.8,2,3,3,0,0,1-2,.8H12.9a3,3,0,0,1-2-.8,2.8,2.8,0,0,1-.8-2V17a3,3,0,0,1,.8-2,3,3,0,0,1,2-.8h16a2.8,2.8,0,0,1,2.7,1.7l1.7,3.3A2.8,2.8,0,0,0,36,20.9Z"/><g class="cls-5"><rect x="10.1" y="14.2" width="45.5" height="37.94"/><g class="cls-6"><rect x="-2.5" y="1.6" width="69.1" height="61.11"/></g></g></g></svg>