<svg xmlns="http://www.w3.org/2000/svg" viewBox="0 0 64 64"><title>Kano_ICON-2019</title><g id="Layer_1" data-name="Layer 1"><path d="M47.6,30.8a10.9,10.9,0,0,0,8.5-10.9c0-6.2-4.6-11.2-10.2-11.2a10,10,0,0,0-8.8,5.5,18.9,18.9,0,0,1,1.4,7.2,20.9,20.9,0,0,1-.7,5.1,9.2,9.2,0,0,0,6.4,4.3,18.9,18.9,0,0,0-8,2.6c5.9,3.9,9.7,10.1,9.7,17.2a41.7,41.7,0,0,0,14.2-2.7,3.3,3.3,0,0,0,2.3-3.1h0C62.4,37.5,55.9,31.6,47.6,30.8Z"/><path d="M40.8,50.6a4,4,0,0,1-2.7,3.7,48.3,48.3,0,0,1-17,3.1A47.6,47.6,0,0,1,4.7,54.5,4,4,0,0,1,2,50.8v-.2c0-8.5,7.6-15.5,17.4-16.3-5.7-1.1-10-6.4-10-12.9s5.4-13.1,12-13.1,12,5.8,12,13.1-4.3,11.8-10,12.9c9.8.8,17.4,7.8,17.4,16.3Z"/></g></svg>