<svg xmlns="http://www.w3.org/2000/svg" width="19.34" height="14.14" viewBox="0 0 19.34 14.14"><defs></defs><title>follow</title><g id="Layer_2" data-name="Layer 2"><g id="Layer_1-2" data-name="Layer 1"><path class="cls-1" d="M8.28,6.78a.45.45,0,0,0,.14-.33V5.8A.48.48,0,0,0,8,5.33H5V2.41A.48.48,0,0,0,5,2.17a.44.44,0,0,0-.41-.24H3.91A.48.48,0,0,0,3.68,2a.43.43,0,0,0-.24.41V5.33h-3a.42.42,0,0,0-.33.14A.45.45,0,0,0,0,5.8v.65a.49.49,0,0,0,.14.33.45.45,0,0,0,.33.14h3v3a.48.48,0,0,0,.47.47h.65a.45.45,0,0,0,.33-.14A.45.45,0,0,0,5,9.89v-3H8A.45.45,0,0,0,8.28,6.78Z"/><path class="cls-1" d="M14.33,7.48A3.68,3.68,0,0,0,17.2,3.77,3.62,3.62,0,0,0,13.75,0a3.62,3.62,0,0,0-3.44,3.77,3.68,3.68,0,0,0,2.86,3.71c-2.81.25-5,2.26-5,4.7v.08A1.15,1.15,0,0,0,9,13.31a13.77,13.77,0,0,0,4.71.83,13.89,13.89,0,0,0,4.91-.9,1.16,1.16,0,0,0,.77-1.05h0C19.34,9.74,17.14,7.73,14.33,7.48Z"/></g></g></svg>