<svg version="1.1" id="Layer_1" xmlns="http://www.w3.org/2000/svg" xmlns:xlink="http://www.w3.org/1999/xlink" x="0px" y="0px"
	 viewBox="0 0 33.05 31.72" style="enable-background:new 0 0 33.05 31.72;" xml:space="preserve">
<path class="st0" d="M13.82,16.78c3.65-0.68,6.43-4.13,6.43-8.32C20.26,3.79,16.8,0,12.53,0S4.8,3.79,4.8,8.46
	c0,4.19,2.78,7.64,6.43,8.32C4.92,17.33,0,21.84,0,27.32c0,0.66,0.08,1.31,0.22,1.94c3.77,1.58,7.84,2.46,12.11,2.46
	c4.43,0,8.66-0.95,12.54-2.65c0.11-0.57,0.19-1.15,0.19-1.75C25.05,21.84,20.13,17.33,13.82,16.78z"/>
<path class="st0" d="M26.81,17.41c2.09-0.39,3.68-2.36,3.68-4.76c0-2.67-1.98-4.84-4.42-4.84s-4.42,2.17-4.42,4.84
	c0,2.4,1.59,4.37,3.68,4.76c-1.16,0.1-2.24,0.44-3.17,0.95c2.74,1.72,4.52,4.46,4.53,7.56c2.26-0.09,4.43-0.6,6.44-1.48
	c0.07-0.33,0.11-0.66,0.11-1C33.24,20.3,30.42,17.72,26.81,17.41z"/>
</svg>
