<svg xmlns="http://www.w3.org/2000/svg" width="16.21" height="12.15" viewBox="0 0 16.21 12.15"><defs><style>.cls-1{fill:#CDD0D5;}</style></defs><title>following</title><g id="Layer_2" data-name="Layer 2"><g id="Layer_1-2" data-name="Layer 1"><path class="cls-1" d="M16.17,1.91a.71.71,0,0,1-.23.38L7.15,11.08l-.81.81v0l0,0L6.2,12l0,0-.11.05a.74.74,0,0,1-.34.07.81.81,0,0,1-.6-.24L.24,7A.81.81,0,0,1,0,6.43a.84.84,0,0,1,.24-.61L1.07,5a.82.82,0,0,1,.61-.25.79.79,0,0,1,.6.25L5.72,8.44,13.91.26A.77.77,0,0,1,14.73,0a.76.76,0,0,1,.39.22l.82.82A.8.8,0,0,1,16.17,1.91Z"/></g></g></svg>