<svg xmlns="http://www.w3.org/2000/svg" viewBox="0 0 64 64">
    <g>
        <ellipse cx="23.8545455" cy="16.2909091" rx="13.9636364" ry="15.4181818"/>
        <path d="M23.8545455,31.1272727 C11.3454545,31.1272727 1.16363636,39.8545455 1.16363636,50.3272727 C1.16363636,51.4909091 1.45454545,52.6545455 1.45454545,53.8181818 C8.14545455,56.7272727 15.7090909,58.1818182 23.2727273,58.1818182 C31.4181818,58.1818182 38.9818182,56.4363636 45.9636364,53.5272727 C46.2545455,52.3636364 46.2545455,51.4909091 46.2545455,50.3272727 C46.5454545,39.8545455 36.3636364,31.1272727 23.8545455,31.1272727 Z"/>
    </g>
    <path d="M50.6181818,29.0909091 C54.9818182,28.2181818 58.1818182,24.1454545 58.1818182,19.4909091 C58.1818182,13.9636364 54.1090909,9.6 49.1636364,9.6 C44.2181818,9.6 40.1454545,13.9636364 40.1454545,19.4909091 C40.1454545,24.4363636 43.3454545,28.5090909 47.7090909,29.0909091 C45.3818182,29.3818182 43.0545455,29.9636364 41.3090909,31.1272727 C46.8363636,34.6181818 50.6181818,40.1454545 50.6181818,46.5454545 C55.2727273,46.2545455 59.6363636,45.3818182 63.7090909,43.6363636 C63.7090909,43.0545455 64,42.1818182 64,41.6 C63.7090909,35.2 58.1818182,29.9636364 50.6181818,29.0909091 Z"/>
</svg>