<svg viewBox="0 0 44 44" xmlns="http://www.w3.org/2000/svg" xmlns:xlink="http://www.w3.org/1999/xlink"><defs><path id="a" d="M0 .656h14.87v9.092H0z"/><path id="c" d="M.825.313h14.87v9.093H.826z"/></defs><g fill="none" fill-rule="evenodd"><rect fill="#4A90E2" width="44" height="44" rx="9"/><path d="M22.624 19.985a.6.6 0 0 1-.6-.6V3.6a.601.601 0 0 1 1.2 0v15.784a.6.6 0 0 1-.6.601" fill="#FFF"/><path d="M22.573 14.903a.594.594 0 0 1-.424-.176L16.912 9.49a.6.6 0 0 1 .85-.848l4.811 4.81 4.71-4.708a.6.6 0 0 1 .85.848l-5.135 5.134a.595.595 0 0 1-.425.176" fill="#FFF"/><path d="M22.55 9.475a.597.597 0 0 1-.424-.176l-2.6-2.6a.6.6 0 0 1 .849-.85l2.176 2.176 2.25-2.25a.6.6 0 1 1 .848.85l-2.674 2.674a.599.599 0 0 1-.424.176M20.372 21.167a.596.596 0 0 1-.3-.081l-13.67-7.892a.601.601 0 0 1 .6-1.04l13.67 7.893a.599.599 0 0 1-.3 1.12" fill="#FFF"/><path d="M8.794 20.587a.602.602 0 0 1-.155-1.18l6.572-1.762-1.723-6.433a.6.6 0 0 1 1.159-.31l1.878 7.012a.597.597 0 0 1-.424.735L8.95 20.566a.632.632 0 0 1-.155.02" fill="#FFF"/><path d="M7.681 16.927a.6.6 0 0 1-.154-1.18l2.971-.797-.823-3.072a.6.6 0 1 1 1.16-.31l.978 3.652a.598.598 0 0 1-.424.734l-3.552.953a.626.626 0 0 1-.156.02" fill="#FFF"/><g transform="translate(6 21.851)"><mask id="b" fill="#fff"><use xlink:href="#a"/></mask><path d="M.601 9.748a.6.6 0 0 1-.3-1.119L13.97.737a.6.6 0 1 1 .6 1.039L.9 9.667a.588.588 0 0 1-.3.081" fill="#FFF"/></g><path d="M13.979 33.445a.6.6 0 0 1-.58-.756l1.76-6.572-6.431-1.724a.6.6 0 1 1 .31-1.159l7.012 1.879a.6.6 0 0 1 .424.735L14.558 33a.6.6 0 0 1-.58.445" fill="#FFF"/><path d="M10.253 32.578a.6.6 0 0 1-.58-.755l.797-2.973-3.073-.824a.6.6 0 1 1 .31-1.159l3.653.98a.6.6 0 0 1 .425.734l-.953 3.553a.6.6 0 0 1-.579.444M22.42 40.851a.6.6 0 0 1-.601-.6V24.465a.601.601 0 0 1 1.2 0V40.25a.6.6 0 0 1-.6.601" fill="#FFF"/><path d="M27.707 35.385a.597.597 0 0 1-.425-.176l-4.812-4.811-4.709 4.707a.6.6 0 1 1-.848-.848l5.132-5.133a.602.602 0 0 1 .85 0l5.236 5.236a.6.6 0 0 1-.424 1.025" fill="#FFF"/><path d="M19.818 38.25a.6.6 0 0 1-.424-1.023l2.675-2.675a.618.618 0 0 1 .848 0l2.6 2.6a.6.6 0 1 1-.848.848l-2.177-2.175-2.248 2.25a.6.6 0 0 1-.426.176M38.34 31.778a.596.596 0 0 1-.299-.081l-13.67-7.892a.601.601 0 0 1 .6-1.04l13.67 7.893a.6.6 0 0 1-.3 1.12" fill="#FFF"/><path d="M30.976 33.394a.6.6 0 0 1-.579-.446l-1.88-7.01a.598.598 0 0 1 .425-.737l7.152-1.915a.6.6 0 1 1 .31 1.159l-6.572 1.76 1.724 6.433a.601.601 0 0 1-.58.756" fill="#FFF"/><path d="M34.788 32.729a.6.6 0 0 1-.579-.445l-.979-3.653a.6.6 0 0 1 .425-.735l3.552-.951a.6.6 0 1 1 .31 1.159l-2.972.796.823 3.074a.6.6 0 0 1-.58.755" fill="#FFF"/><g transform="translate(23.348 11.938)"><mask id="d" fill="#fff"><use xlink:href="#c"/></mask><path d="M1.426 9.406a.6.6 0 0 1-.3-1.119L14.796.394a.6.6 0 1 1 .6 1.04L1.725 9.325a.588.588 0 0 1-.3.081" fill="#FFF" mask="url(#d)"/></g><path d="M36.161 20.638a.63.63 0 0 1-.155-.02l-7.013-1.88a.6.6 0 0 1-.424-.735l1.917-7.152a.6.6 0 1 1 1.159.31l-1.761 6.573 6.432 1.723a.6.6 0 0 1-.155 1.18" fill="#FFF"/><path d="M37.492 17.004a.59.59 0 0 1-.155-.02l-3.653-.98a.601.601 0 0 1-.425-.735l.951-3.551a.6.6 0 1 1 1.16.31l-.796 2.973 3.073.823a.6.6 0 0 1-.155 1.18M22.522 19.985c-1.07 0-1.942.87-1.942 1.94 0 1.071.871 1.941 1.942 1.941 1.07 0 1.941-.87 1.941-1.94 0-1.07-.871-1.941-1.941-1.941m0 5.081a3.145 3.145 0 0 1-3.142-3.14c0-1.733 1.41-3.141 3.142-3.141a3.144 3.144 0 0 1 3.141 3.14c0 1.732-1.409 3.141-3.141 3.141M20.25 14.974l-2.114-2.08a.6.6 0 1 0-1.004.567l.72 3.033a.603.603 0 0 0 .277.377l1.406.837a.606.606 0 0 0 .606.003.596.596 0 0 0 .3-.524l-.013-1.79a.599.599 0 0 0-.179-.423M17.682 21.88a.602.602 0 0 0-.304-.524l-1.557-.881a.598.598 0 0 0-.456-.057l-2.857.79a.6.6 0 0 0-.011 1.154l2.986.892a.61.61 0 0 0 .465-.05l1.428-.801a.603.603 0 0 0 .306-.523M20.063 26.094a.6.6 0 0 0-.606.002l-1.543.907a.598.598 0 0 0-.277.366l-.744 2.87a.6.6 0 0 0 .993.587l2.267-2.14a.6.6 0 0 0 .188-.43l.02-1.635a.598.598 0 0 0-.298-.527M27.192 27.357a.605.605 0 0 0-.278-.378l-1.407-.836a.6.6 0 0 0-.907.522l.015 1.789c.001.16.066.311.18.423l2.112 2.078a.597.597 0 0 0 .715.096.6.6 0 0 0 .29-.662l-.72-3.032zM32.547 21.49l-2.986-.893a.607.607 0 0 0-.466.05l-1.427.801a.6.6 0 0 0-.002 1.046l1.556.882a.596.596 0 0 0 .456.057l2.857-.79a.6.6 0 0 0 .012-1.153M24.98 17.757a.6.6 0 0 0 .605-.002l1.544-.907a.6.6 0 0 0 .277-.367l.744-2.869a.6.6 0 0 0-.993-.587l-2.266 2.14a.6.6 0 0 0-.189.43l-.02 1.635a.6.6 0 0 0 .299.527" fill="#FFF"/></g></svg>