<svg><g id="help"><path d="M32,0c4.4,0,8.5,0.8,12.5,2.5c3.9,1.7,7.3,4,10.2,6.8c2.9,2.9,5.2,6.3,6.8,10.2c1.7,4,2.5,8.1,2.6,12.5 c0,4.4-0.9,8.5-2.6,12.5c-1.7,4-4,7.4-6.8,10.2c-2.9,2.9-6.3,5.2-10.2,6.8c-4,1.7-8.1,2.5-12.5,2.5c-4.4,0-8.5-0.8-12.5-2.5 c-3.9-1.7-7.3-3.9-10.2-6.8c-2.9-2.9-5.2-6.3-6.8-10.2C0.8,40.6,0,36.4-0.1,32.1c0-4.4,0.9-8.5,2.6-12.5c1.7-3.9,3.9-7.4,6.8-10.2 c2.9-2.9,6.3-5.2,10.2-6.8C23.5,0.9,27.6,0,32,0z M24.4,55.2l0.6-2c0.2-0.7,0.2-1.4-0.1-2.1c-0.3-0.7-0.8-1.1-1.5-1.4 c-4.1-2-7.1-5-9.1-9.1c-0.7-1.4-1.8-1.9-3.4-1.5l-2,0.5c-1,0.2-1.7,0.8-2.2,1.7c-0.5,0.9-0.5,1.8,0,2.7c2.8,6.1,7.3,10.5,13.3,13.3 c0.9,0.4,1.7,0.4,2.6-0.1C23.5,56.8,24.1,56.1,24.4,55.2z M6.9,20.2c-0.6,1.2-0.5,2.2,0.2,3c0.6,0.7,1.3,1.2,1.9,1.4l1.9,0.6 c1,0.2,1.8,0.1,2.4-0.3c0.6-0.4,1-0.8,1.2-1.3c2-4.1,5-7.1,9.1-9.1c0.6-0.3,1.1-0.8,1.4-1.4c0.3-0.6,0.3-1.3,0.2-2l-0.5-2 c-0.3-1-0.8-1.7-1.7-2.2c-0.9-0.5-1.8-0.5-2.7,0C14.1,9.8,9.7,14.2,6.9,20.2z M16.7,32.2c0,4.2,1.5,7.8,4.5,10.8s6.6,4.5,10.9,4.5 c4.3,0,7.9-1.5,10.8-4.5c3-3,4.5-6.6,4.5-10.8c0-4.2-1.5-7.8-4.5-10.8c-3-3-6.6-4.5-10.8-4.5s-7.8,1.5-10.8,4.5 C18.2,24.3,16.7,27.9,16.7,32.2z M39.5,9l-0.6,2c-0.2,0.7-0.2,1.3,0.1,2c0.3,0.7,0.7,1.2,1.4,1.5c4.1,2,7.2,5.1,9.1,9.1 c0.3,0.6,0.8,1.1,1.4,1.4c0.6,0.3,1.3,0.3,2,0.2l2-0.5c1-0.2,1.7-0.8,2.1-1.7c0.4-0.9,0.4-1.9-0.2-3.1c-1.2-2.6-3-5.1-5.3-7.4 c-2.3-2.3-4.9-4.1-7.8-5.4c-0.9-0.4-1.8-0.5-2.7-0.1C40.3,7.3,39.7,8,39.5,9z M57.1,44c0.6-1.2,0.5-2.2-0.2-3 c-0.6-0.7-1.3-1.2-1.9-1.4l-2-0.5c-0.7-0.2-1.3-0.2-2,0.1c-0.7,0.3-1.2,0.7-1.5,1.4c-2,4.1-5,7.1-9.1,9.1c-0.6,0.3-1.1,0.8-1.4,1.4 c-0.3,0.6-0.3,1.3-0.2,2l0.5,2c0.3,0.9,0.8,1.6,1.7,2.1c0.9,0.5,1.8,0.5,2.7,0.1C49.8,54.4,54.2,49.9,57.1,44z"></path></g></svg>