<svg><svg viewBox="0 0 15 15" xmlns="http://www.w3.org/2000/svg" xmlns:xlink="http://www.w3.org/1999/xlink"><defs><path id="a" d="M0 0h14.865v14.94H0z"/></defs><g fill="none" fill-rule="evenodd"><mask id="b"><use xlink:href="#a"/></mask><path d="M7.433 0c.299 0 .56.087.784.26l6.237 4.87c.273.215.411.497.411.845v7.893a.999.999 0 0 1-.312.76.997.997 0 0 1-.759.311h-2.988a.997.997 0 0 1-.76-.312 1.038 1.038 0 0 1-.323-.759v-3.647c0-.3-.104-.552-.311-.76a1.03 1.03 0 0 0-.76-.311H6.2a1.03 1.03 0 0 0-.76.312c-.207.207-.31.46-.31.759v3.647a.995.995 0 0 1-.312.76c-.215.215-.473.32-.771.311H1.083a1.012 1.012 0 0 1-.771-.312.995.995 0 0 1-.311-.759V5.975c0-.348.14-.63.422-.846L6.648.261A1.24 1.24 0 0 1 7.433 0"/></g></svg></svg>