<svg viewBox="0 0 11 14" xmlns="http://www.w3.org/2000/svg" xmlns:xlink="http://www.w3.org/1999/xlink"><defs><path id="a" d="M0 .12h10.352v2.546H0z"/></defs><g fill="none" fill-rule="evenodd"><path d="M5.382 9.805a.51.51 0 0 0 .721 0L9.887 6.02c.2-.2.2-.522 0-.722l-.97-.97a.51.51 0 0 0-.722 0l-1.311 1.31V.804a.47.47 0 0 0-.469-.47H5.071a.47.47 0 0 0-.47.47V5.64l-1.31-1.311a.511.511 0 0 0-.722 0l-.971.97a.51.51 0 0 0 0 .722l3.784 3.784z" fill="#9FA4A8"/><g transform="translate(.567 10.733)"><mask id="b" fill="#fff"><use xlink:href="#a"/></mask><path d="M9.816.12H.536A.536.536 0 0 0 0 .656V2.13c0 .296.24.535.536.535h9.28c.296 0 .536-.24.536-.535V.656A.536.536 0 0 0 9.816.12" fill="#9FA4A8"/></g></g></svg>