<svg viewBox="0 0 44 44" xmlns="http://www.w3.org/2000/svg"><g fill="none" fill-rule="evenodd"><rect fill="#FF6900" width="44" height="44" rx="9"/><path d="M27.2 13.6a2 2 0 0 0-1.4.6l-6.8 6v-4.6c0-.5-.2-1-.6-1.4-.3-.4-.8-.6-1.4-.6a2 2 0 0 0-1.4.6c-.4.4-.6.9-.6 1.4v14.7c0 .6.2 1 .6 1.4.4.4.9.6 1.4.6.6 0 1-.2 1.4-.6.4-.4.6-.8.6-1.4v-4.6l6.8 6a2 2 0 0 0 2.8 0c.4-.3.6-.8.6-1.4 0-.5-.2-1-.6-1.3l-6.8-6 6.8-6c.4-.4.6-.8.6-1.4 0-.5-.2-1-.6-1.4a1.9 1.9 0 0 0-1.4-.6" fill="#D95900"/><path d="M28.6 28c.4.4.6.9.6 1.4 0 .5-.2 1-.6 1.4a2 2 0 0 1-1.4.6 2 2 0 0 1-1.4-.6l-6.8-6v4.6c0 .5-.2 1-.6 1.4a2 2 0 0 1-1.4.5 2 2 0 0 1-1.4-.5 1.9 1.9 0 0 1-.6-1.4V14.7c0-.6.2-1 .6-1.4a2 2 0 0 1 1.4-.6c.6 0 1 .2 1.4.6.4.4.6.8.6 1.4v4.6l6.8-6a2 2 0 0 1 3.4 1.4c0 .5-.2 1-.6 1.4l-6.8 6 6.8 6z" fill="#FFF"/><path d="M35.6 7a1.2 1.2 0 1 0 0 2.4 1.2 1.2 0 0 0 0-2.4M8.2 34.5a1.2 1.2 0 1 0 0 2.4 1.2 1.2 0 0 0 0-2.4M8.2 7a1.2 1.2 0 1 0 0 2.4 1.2 1.2 0 0 0 0-2.4m27.4 27.5a1.2 1.2 0 1 0 0 2.4 1.2 1.2 0 0 0 0-2.4" fill="#993F00"/></g></svg>