<svg><g id="lock-open"><path d="M53.9,33.3v26c0,1.3-0.5,2.4-1.4,3.3c-0.9,0.9-2,1.4-3.3,1.4H14.8c-1.3,0-2.4-0.5-3.3-1.4c-0.9-0.9-1.4-2-1.4-3.3v-26 c0-1.3,0.5-2.4,1.4-3.3c0.9-0.9,2-1.4,3.3-1.4h23.3c0.6,0,1.2-0.2,1.7-0.7s0.7-1,0.7-1.6V16c0-2.4-0.9-4.4-2.6-6 c-1.8-1.6-3.8-2.4-6.3-2.2c-2.4,0.1-4.3,1.1-5.9,2.8c-1.6,1.7-2.3,3.7-2.3,6v3.6c0,0.6-0.2,1.1-0.6,1.5c-0.4,0.4-0.9,0.6-1.5,0.7 H18c-0.6,0-1.1-0.2-1.5-0.7c-0.4-0.4-0.6-0.9-0.6-1.5v-4c0-5.7,2.4-10.2,7.3-13.5c3-2.1,6.1-2.9,9.5-2.6c3.3,0.3,6.1,1.3,8.3,2.9 c2.2,1.6,4,3.6,5.2,6.1s1.8,5.1,1.8,7.8v9.5c0,1.3,0.8,2.1,2.3,2.3c0.8,0.1,1.6,0.6,2.4,1.5C53.5,31.1,53.9,32.1,53.9,33.3z"></path></g></svg>