<svg xmlns="http://www.w3.org/2000/svg" viewBox="0 0 64 64"><title>Kano_ICON-2019</title><g id="Layer_1" data-name="Layer 1"><path d="M55.1,12.2a4.2,4.2,0,0,0-1.2-2.4c-7.4-7-19.4-7.3-21.7-7.3h-.5c-2.3,0-14.3.3-21.7,7.3A4.3,4.3,0,0,0,8.6,13V37.6a15.2,15.2,0,0,0,1.2,5.9c1.9,4.6,7,12.9,19.2,17.5a9.3,9.3,0,0,0,2.9.5,9.4,9.4,0,0,0,3-.5c12.2-4.6,17.2-12.9,19.2-17.5a17.2,17.2,0,0,0,1-3.9C55.4,38.9,55.4,12.5,55.1,12.2ZM44.8,27.9l-4.9,4.9,1.2,6.7a2.1,2.1,0,0,1-.8,2,.9.9,0,0,1-.6.3h-.6a2,2,0,0,1-1-.2L32,38.5l-6.1,3.3h-.3a2.2,2.2,0,0,1-1.8-.2,2.3,2.3,0,0,1-.8-2l1.1-6.8-5-4.8a2.1,2.1,0,0,1,.8-3.4h.3l6.8-1,3-6.2a2.5,2.5,0,0,1,1.2-1.1h.7a2.1,2.1,0,0,1,1.8,1.1l3.1,6.2,6.8,1a2.1,2.1,0,0,1,1.7,1.3A2.2,2.2,0,0,1,44.8,27.9Z"/></g></svg>