<svg xmlns="http://www.w3.org/2000/svg" viewBox="0 0 64 64">
    <path d="m57.23693,11.52972a1.31684,1.31684 0 0 0 -0.51389,-0.85113a4.68924,4.68924 0 0 0 -1.31684,-2.61763c-7.93317,-7.43534 -20.78042,-7.8047 -23.30169,-7.8047l-0.56207,0c-2.50521,0 -15.36851,0.36936 -23.28563,7.82076a4.81772,4.81772 0 0 0 -1.49349,3.4527l0,26.41714a16.25176,16.25176 0 0 0 1.28472,6.42362c2.07162,4.91407 7.49958,13.87502 20.57165,18.78909a9.12154,9.12154 0 0 0 6.42362,0c13.07207,-4.89801 18.50003,-13.87502 20.57165,-18.78909a16.05905,16.05905 0 0 0 1.07596,-4.20747a5.55643,5.55643 0 0 0 0.54601,-2.16797l0,-26.46532z"/>
</svg>