<svg xmlns="http://www.w3.org/2000/svg" viewBox="0 0 64 64">
    <title>Kano_ICON-2019</title>
    <g id="Layer_1" data-name="Layer 1">
        <path
            d="M16.6,23.2a2.1,2.1,0,0,1-1.6-.7,2.4,2.4,0,0,1-.7-1.6V17.7a2.4,2.4,0,0,1,.7-1.6,2.1,2.1,0,0,1,1.6-.7H47.4a2.1,2.1,0,0,1,2,1.1,2.7,2.7,0,0,1,.3,1.2v3.2a2.1,2.1,0,0,1-1.2,2,2,2,0,0,1-1.1.3Zm0,12.7a2.1,2.1,0,0,1-1.6-.7,2.4,2.4,0,0,1-.7-1.6V30.4a2.6,2.6,0,0,1,.7-1.7,2.5,2.5,0,0,1,1.6-.6H47.4a2.5,2.5,0,0,1,1.6.6,2.2,2.2,0,0,1,.7,1.7v3.2a2.1,2.1,0,0,1-1.2,2,2,2,0,0,1-1.1.3Zm0,12.7a2.1,2.1,0,0,1-1.6-.7,2.4,2.4,0,0,1-.7-1.6V43.1a2.4,2.4,0,0,1,.7-1.6,2.1,2.1,0,0,1,1.6-.7H47.4a2.1,2.1,0,0,1,1.6.7,2,2,0,0,1,.7,1.6v3.2a2,2,0,0,1-.7,1.6,2.1,2.1,0,0,1-1.6.7Z" />
    </g>
</svg>