<svg><svg viewBox="0 0 64 64" xmlns="http://www.w3.org/2000/svg" xmlns:xlink="http://www.w3.org/1999/xlink"><path d="M36.344 49.908v-2.565c-.025-1.684.49-3.177 1.544-4.478 1.053-1.302 2.37-2.08 3.95-2.335l5.746-.92c.813-.126 1.219-.625 1.219-1.491V22.807c0-1.225-.533-2.119-1.598-2.679a2.16 2.16 0 0 0-1.494-.231l-17.64 3.101c-.996.155-1.816.627-2.463 1.418a4.179 4.179 0 0 0-.97 2.718v26.143c-.023 1.634-.522 3.089-1.49 4.365-.971 1.277-2.22 2.043-3.744 2.296l-6.168.996c-1.363.23-2.57-.141-3.621-1.11-1.052-.97-1.59-2.193-1.614-3.675v-2.565c-.023-1.735.49-3.24 1.541-4.516 1.053-1.275 2.378-2.042 3.98-2.296l5.702-.92c.334-.05.621-.229.861-.536.237-.306.357-.625.357-.956V12.746c0-1.016.312-1.918.933-2.706.62-.788 1.41-1.258 2.367-1.41l26.282-4.582c.771-.154 1.466.063 2.084.647.617.586.914 1.32.89 2.21v40.131c0 1.661-.51 3.128-1.53 4.405-1.02 1.275-2.29 2.027-3.807 2.256l-6.123.996c-1.374.23-2.585-.14-3.63-1.11-1.043-.97-1.564-2.193-1.564-3.675" fill="currentColor" fill-rule="nonzero"/></svg></svg>