<svg xmlns="http://www.w3.org/2000/svg" viewBox="0 0 23.4 23.4"><title>New Creation</title><g id="Layer_2" data-name="Layer 2"><g id="Layer_1-2" data-name="Layer 1"><path d="M16.3,11.2H12.4c-.1-.1-.1-.2-.1-.4V7.3a1.1,1.1,0,0,0-.5-.9H6.4a.4.4,0,0,0-.1.3v10a.4.4,0,0,0,.1.3H17.1c0-.1.1-.2.1-.3V12.1a.6.6,0,0,0-.3-.6A.6.6,0,0,0,16.3,11.2Z"/><path d="M18.2,0H5.2A5.2,5.2,0,0,0,0,5.2v13a5.2,5.2,0,0,0,5.2,5.2h13a5.2,5.2,0,0,0,5.2-5.2V5.2A5.2,5.2,0,0,0,18.2,0Zm.7,17.6a1.1,1.1,0,0,1-.7,1.1l-.6.2H5.9a1.3,1.3,0,0,1-.9-.4,1,1,0,0,1-.4-.9V5.9a1.4,1.4,0,0,1,.6-1.2h6.6a1.1,1.1,0,0,1,.8.3l6,6a.9.9,0,0,1,.3.7Z"/></g></g></svg>