<svg xmlns="http://www.w3.org/2000/svg" viewBox="0 0 64 64">
    <path d="m36.44495,8.72059a2.65292,2.65292 0 0 1 -2.57709,2.57709l-25.88477,0a1.97074,1.97074 0 0 0 -1.55381,0.64428a1.97074,1.97074 0 0 0 -0.60639,1.55381l0,42.52226a1.85703,1.85703 0 0 0 0.60639,1.51592a2.19813,2.19813 0 0 0 1.55381,0.60639l42.59804,0a2.19813,2.19813 0 0 0 1.55385,-0.60639a1.85703,1.85703 0 0 0 0.60639,-1.51592l0,-25.92266a2.69081,2.69081 0 0 1 0.94746,-1.85703a2.23603,2.23603 0 0 1 1.62963,-0.72007a2.88031,2.88031 0 0 1 1.44013,0.34107a2.57709,2.57709 0 0 1 1.32646,2.27392l0,29.29564a3.78988,3.78988 0 0 1 -1.97074,3.44877a3.78988,3.78988 0 0 1 -2.00859,0.53057l-49.68508,0a3.78988,3.78988 0 0 1 -2.80448,-1.13696a3.78988,3.78988 0 0 1 -1.13696,-2.80448l0,-49.26818a3.78988,3.78988 0 0 1 1.13696,-2.76659a3.78988,3.78988 0 0 1 2.80448,-1.40224l29.44721,0a2.19813,2.19813 0 0 1 1.78124,0.79585a2.88031,2.88031 0 0 1 0.79585,1.89496zm-18.9493,39.64191a1.13696,1.13696 0 0 1 -1.28852,-0.30317a1.25068,1.25068 0 0 1 -0.41689,-1.32646l3.41088,-10.08102a0.98535,0.98535 0 0 1 0.72007,-0.64428a0.94746,0.94746 0 0 1 0.94746,0.30317l6.93547,6.93547a0.94746,0.94746 0 0 1 0.30317,0.94746a0.98535,0.98535 0 0 1 -0.64428,0.72007l-9.96735,3.44877zm2.7287,-3.06977a1.78124,1.78124 0 0 1 -1.25063,-0.49268l3.44877,-10.11895a1.66753,1.66753 0 0 1 -0.49268,-1.21274a1.74335,1.74335 0 0 1 0.53057,-1.25068l23.04235,-23.04235a1.74335,1.74335 0 0 1 1.25063,-0.53057a1.81913,1.81913 0 0 1 1.25068,0.49268l6.48064,6.59436a1.66753,1.66753 0 0 1 0.49268,1.21274a1.70546,1.70546 0 0 1 -0.53057,1.25068l-23.04235,23.11813a1.59174,1.59174 0 0 1 -1.21274,0.53061l-9.96735,3.44877zm24.55831,-23.68663a1.70546,1.70546 0 0 1 -1.25068,-0.53057l6.0259,-13.22661a1.81913,1.81913 0 0 1 -0.49272,-1.25068a1.81913,1.81913 0 0 1 0.49272,-1.25063l3.78983,-3.78988a2.9182,2.9182 0 0 1 2.23603,-0.98535a3.06981,3.06981 0 0 1 2.23603,0.94746l4.77523,4.77523a3.06981,3.06981 0 0 1 0.94746,2.23603a2.9182,2.9182 0 0 1 -0.94746,2.19809l-3.78988,3.78988a1.74335,1.74335 0 0 1 -1.32646,0.56846l-12.696,6.51858z"/>
</svg>