<svg width="39px" height="54px" viewBox="0 0 39 54" version="1.1" xmlns="http://www.w3.org/2000/svg" xmlns:xlink="http://www.w3.org/1999/xlink"><defs><polygon id="path-1" points="0 0 39 0 39 54 0 54"></polygon></defs><g id="Symbols" stroke="none" stroke-width="1" fill="none" fill-rule="evenodd"><g id="Component-/-Challenge/Tile/Artwork-6" transform="translate(-109.000000, -73.000000)"><g id="Group-3" transform="translate(109.000000, 73.000000)"><g id="Clip-2"></g><path d="M12.0260404,14.3663814 L12.0260404,20.1189681 C12.0260404,20.6379509 12.1967748,21.0714914 12.53859,21.4183589 C12.8802319,21.76382 13.3195354,21.949824 13.8577124,21.974437 L25.0337171,21.974437 C25.7170011,21.974437 26.1807199,21.7515135 26.4260857,21.3068972 C26.6932695,20.8608744 26.8288527,20.4658356 26.8288527,20.1189681 L26.8288527,14.7751331 C26.8288527,12.7213536 26.1564777,10.9152865 24.8127667,9.35710746 C23.4706141,7.79875264 21.7715816,6.97017341 19.7203444,6.87084235 C17.6675487,6.77186291 15.8725863,7.46419158 14.3335524,8.94941062 C12.7946916,10.4335748 12.0260404,12.2394661 12.0260404,14.3663814 M39,26.1674382 L39,49.7699035 C39,50.9084308 38.5974062,51.8980494 37.7934306,52.7378803 C36.9878967,53.5803483 35.9995072,54 34.8294743,54 L4.17191101,54 C3.00031968,54 2.01193019,53.5803483 1.20795464,52.7378803 C0.402593828,51.8980494 0,50.9084308 0,49.7699035 L0,26.1674382 C0.0283980162,24.7084144 0.69540508,23.5575807 2.005177,22.7165191 C2.60586431,22.3214804 3.22005799,22.0860746 3.84775804,22.0117081 C5.15752996,21.8631511 5.81224276,21.2944149 5.81224276,20.3046204 L5.81224276,14.5149385 C5.81224276,11.843021 6.45639288,9.38172047 7.74573208,7.13121278 C9.03385917,4.87912283 10.7883025,3.11032681 13.0076767,1.82306666 C15.204194,0.537388763 17.4235682,-0.0682669658 19.667531,0.00609947051 C23.8448099,0.153250079 27.245126,1.71301136 29.8714231,4.68081234 C32.4717463,7.65019557 33.7733797,11.1259035 33.7733797,15.1096941 L33.7733797,20.3046204 C33.7733797,21.2944149 34.4431573,21.8877641 35.7840978,22.0860746 C36.5148273,22.1852298 37.2334356,22.6298462 37.9397497,23.4213301 C38.6460637,24.2142205 39,25.128242 39,26.1674382" id="Fill-1"></path></g></g></g></svg>