<svg enable-background="new 0 0 64 64" viewBox="0 0 64 64" xmlns="http://www.w3.org/2000/svg">
<path d="m51.4 19.5c-7-10.7-21.4-13.7-32.1-6.6s-13.7 21.3-6.7 32 21.4 13.7 32.1 6.7c5.1-3.4 8.7-8.7 10-14.7 1.2-6 0-12.3-3.3-17.4zm-23.1 5.4v2.5c0 .2.1.4.3.6.2.1.4.2.7.2h5.5c.3 0 .6-.1.7-.3s.2-.4.2-.5v-2.3c0-.9-.3-1.7-1-2.3-.7-.7-1.5-1-2.5-1.1-1 0-1.9.3-2.7.9-.8.7-1.2 1.4-1.2 2.3m13.3 5.1v10.2c0 .5-.2.9-.6 1.3s-.9.5-1.5.5h-15.1c-.6 0-1.1-.2-1.5-.5-.4-.4-.6-.8-.6-1.3v-10.2c0-.6.3-1.1 1-1.5.3-.2.6-.3.9-.3.6-.1 1-.3 1-.7v-2.5c0-1.1.3-2.2 1-3.2.6-1 1.5-1.7 2.6-2.3s2.2-.8 3.3-.8c2.1.1 3.7.7 5 2s1.9 2.8 1.9 4.5v2.2c0 .4.3.7 1 .8.4 0 .7.2 1.1.6s.5.8.5 1.2"/>
</svg>