<svg viewBox="0 0 24 15" xmlns="http://www.w3.org/2000/svg" xmlns:xlink="http://www.w3.org/1999/xlink"><g fill="none" fill-rule="evenodd"><mask id="b" fill="#fff"><use xlink:href="#a"/></mask><path d="M22.24 4.442l-.005-.004c-.004-.008-.004-.016-.004-.016l-.012-.02-.024-.011a.028.028 0 0 1-.007.016c-.082.144-.372.485-.873.83-.494.352-1.164.739-1.966 1.123-.07.035-.145.07-.22.105a7.423 7.423 0 0 0-.345-1.487 6.2 6.2 0 0 0-.27-.669c.98-.125 1.826-.168 2.488-.14.591.019 1.022.128 1.193.222.028-.047.017-.055.036.024l.004.004c.004.003.004.008.004.015v.008zM5.221 10.91c-.697.126-1.406.223-2.075.259-.255.012-.51.012-.729-.005l-.002.004v-.004h.001c.15-.156.326-.32.506-.48.52-.443 1.112-.866 1.72-1.26.015-.013.035-.025.051-.036.04.133.077.262.124.395.133.392.298.76.49 1.112-.027.003-.059.01-.086.015zm18.372-6.769l-.008-.02a.182.182 0 0 0-.012-.047.164.164 0 0 0-.007-.034l-.02-.071-.035-.082c-.024-.051-.059-.13-.118-.212a1.544 1.544 0 0 0-.576-.47c-.488-.218-1.093-.285-1.805-.27-.85.02-1.872.16-3.035.4A7.39 7.39 0 0 0 9.397.404a7.371 7.371 0 0 0-4.974 7.281c-.204.09-.403.18-.603.279-.697.336-1.394.7-2.08 1.173a6.285 6.285 0 0 0-1.018.85c-.172.188-.34.379-.5.68a2.03 2.03 0 0 0-.197.56c-.003.031-.012.05-.015.09l-.008.133c-.004.086 0 .18.008.266l.012.082.007.035.011.07c.029.1.04.138.047.154v.003s.004 0 .009.02l.02.046.046.103c.032.062.067.133.102.183.074.102.168.224.25.294.173.16.341.258.498.34.31.157.56.216.815.274.486.098.92.122 1.343.133.756.016 1.465-.043 2.161-.129.087-.007.17-.02.255-.031.51-.063 1.01-.141 1.5-.235a37.154 37.154 0 0 0 2.946-.676c1.406-.412 2.733-.835 3.983-1.324a34.154 34.154 0 0 0 3.438-1.541 34.655 34.655 0 0 0 2.781-1.585c.806-.52 1.496-1.014 2.044-1.49.54-.474.964-.928 1.195-1.428.109-.254.168-.517.129-.814-.004-.04-.008-.051-.008-.059zm-9.392 10.216a7.35 7.35 0 0 0 4.536-4.448c-3.278 2.25-6.815 3.642-9.356 4.44a7.35 7.35 0 0 0 4.82.008z"/></g></svg>