<svg xmlns="http://www.w3.org/2000/svg" viewBox="0 0 64 64"><defs><style>.cls-1{fill-rule:evenodd;}</style></defs><title>Kano_ICON-2019</title><g id="Layer_1" data-name="Layer 1"><g id="Shape_35" data-name="Shape 35"><path class="cls-1" d="M38.2,50.7A19.3,19.3,0,0,0,50,39,91,91,0,0,1,25.6,50.6,19.4,19.4,0,0,0,38.2,50.7ZM62.7,24.1h-.1v-.4a1.6,1.6,0,0,1-.3-.6,4.7,4.7,0,0,0-1.5-1.2,11.4,11.4,0,0,0-4.7-.7,44.6,44.6,0,0,0-8,1.1A19.3,19.3,0,0,0,12.6,33.2L11,34a36.4,36.4,0,0,0-5.4,3,17.4,17.4,0,0,0-2.7,2.2A9.3,9.3,0,0,0,1.6,41a5.3,5.3,0,0,0-.5,1.5v.6a2,2,0,0,0,.1.7V44h0v.2c.1.2.2.3.2.4h0l.2.3a.8.8,0,0,0,.2.5l.7.8a4.6,4.6,0,0,0,1.3.8l2.1.8,3.5.3A51.7,51.7,0,0,0,15,48h.6l4-.6c2.6-.5,5.2-1.1,7.7-1.8s7.1-2.2,10.4-3.5a93.7,93.7,0,0,0,9-4l4.2-2.3,1.9-1.1,1.1-.7q3.1-2.1,5.4-3.9a11.8,11.8,0,0,0,3.1-3.8A3.6,3.6,0,0,0,62.7,24.1Zm-48,17.6a52.4,52.4,0,0,1-5.4.6,6,6,0,0,1-1.9,0h0l1.3-1.2a30.7,30.7,0,0,1,4.5-3.3h.1l.3,1a25.5,25.5,0,0,0,1.3,2.9ZM59.2,24.8H59a8.1,8.1,0,0,1-2.3,2.1,31.3,31.3,0,0,1-5.1,3L51,30a12.4,12.4,0,0,0-.9-3.8,13.4,13.4,0,0,0-.7-1.8,57.3,57.3,0,0,1,6.5-.4,11.1,11.1,0,0,1,3.2.6h.1Z"/></g></g></svg>