<svg viewBox="0 0 22 22" viewBox="0 0 37.67 37.67" xmlns="http://www.w3.org/2000/svg"><defs><style>.cls-1{clip-rule:evenodd}.cls-2{fill-rule:evenodd}</style><clipPath id="clip-path"><path class="cls-1" d="M12.13 8.53l-.78 1.44-1.43.77 1.43.78.78 1.43.78-1.43 1.42-.78-1.42-.77-.78-1.44z"/></clipPath><clipPath id="clip-path-2"><path class="cls-1" d="M18.83 13.28l1.97 3.61 3.59 1.94-3.59 1.97-1.97 3.59-1.94-3.59-3.61-1.97 3.61-1.94 1.94-3.61z"/></clipPath></defs><g id="Layer_2" data-name="Layer 2"><g id="Layer_6" data-name="Layer 6"><path class="cls-2" d="M23.51 5.06l-1.26 2.36-2.36 1.26 2.36 1.29 1.26 2.34 1.29-2.34 2.34-1.29-2.34-1.26-1.28-2.36h-.01zM12.13 8.53l-.78 1.44-1.43.77 1.43.78.78 1.43.78-1.43 1.42-.78-1.42-.77-.78-1.44zM18.83 13.28l1.97 3.61 3.59 1.94-3.59 1.97-1.97 3.59-1.94-3.59-3.61-1.97 3.61-1.94 1.94-3.61z"/></g></g></svg>