<svg xmlns="http://www.w3.org/2000/svg" viewBox="0 0 64 64"><defs><style>.cls-1{fill-rule:evenodd;}</style></defs><title>Kano_ICON-2019</title><g id="Layer_1" data-name="Layer 1"><path class="cls-1" d="M48.8,8.8H24.3a6.4,6.4,0,0,0-6.4,6.4V39.7a6.5,6.5,0,0,0,6.4,6.5H48.8a6.5,6.5,0,0,0,6.5-6.5V15.2A6.5,6.5,0,0,0,48.8,8.8Zm-2,19.7a1.8,1.8,0,0,1-.5,1.2,1.7,1.7,0,0,1-1.2.5H39.3V36a1.7,1.7,0,0,1-.5,1.2,1.8,1.8,0,0,1-1.2.5H35.4a1.7,1.7,0,0,1-1.2-.5,1.3,1.3,0,0,1-.5-1.2V30.2H28a1.6,1.6,0,0,1-1.4-.8,1.6,1.6,0,0,1-.3-.9V26.3a1.6,1.6,0,0,1,.9-1.5l.8-.2h5.7V18.9a1.6,1.6,0,0,1,.5-1.2,1.7,1.7,0,0,1,1.2-.5h2.2a1.8,1.8,0,0,1,1.2.5,2.1,2.1,0,0,1,.5,1.2v5.7h5.8a1.3,1.3,0,0,1,1.2.5,1.7,1.7,0,0,1,.5,1.2Z"/><path class="cls-1" d="M22,49.8A7.7,7.7,0,0,1,14.3,42V17.9a6.5,6.5,0,0,0-5.5,6.4V48.8a6.4,6.4,0,0,0,6.4,6.4H39.7a6.4,6.4,0,0,0,6.4-5.4Z"/></g></svg>