<svg viewBox="0 0 18 18" xmlns="http://www.w3.org/2000/svg"><path d="M12.385 8.452a.589.589 0 0 1-.588.588H9.635a.571.571 0 0 0-.418.176.572.572 0 0 0-.177.419v2.16c0 .164-.056.301-.17.414a.59.59 0 0 1-.418.176h-.96a.59.59 0 0 1-.418-.176.559.559 0 0 1-.17-.413V9.635a.571.571 0 0 0-.176-.419.575.575 0 0 0-.42-.176h-2.16a.553.553 0 0 1-.51-.292.568.568 0 0 1-.08-.296v-.96a.59.59 0 0 1 .59-.588h2.16a.571.571 0 0 0 .42-.176.571.571 0 0 0 .176-.42v-2.16c0-.162.056-.3.17-.413a.59.59 0 0 1 .419-.176h.959a.59.59 0 0 1 .588.589v2.16c0 .163.06.302.177.42a.568.568 0 0 0 .418.176h2.162c.16 0 .298.057.412.17a.587.587 0 0 1 .176.419v.959zM13.06 0H2.884A2.883 2.883 0 0 0 0 2.884V13.06a2.883 2.883 0 0 0 2.884 2.884H13.06a2.883 2.883 0 0 0 2.884-2.884V2.884A2.883 2.883 0 0 0 13.06 0z" fill="#9FA4A8" fill-rule="evenodd"/></svg>