<svg xmlns="http://www.w3.org/2000/svg" viewBox="0 0 23.4 23.4"><title>Puzzle</title><g id="Layer_2" data-name="Layer 2"><g id="Layer_1-2" data-name="Layer 1"><path d="M18.2,0H5.2A5.2,5.2,0,0,0,0,5.2v13a5.2,5.2,0,0,0,5.2,5.2h13a5.2,5.2,0,0,0,5.2-5.2V5.2A5.2,5.2,0,0,0,18.2,0Zm.9,12.6-1.8,1.7h0a2.2,2.2,0,0,0-3.2-.1,2.2,2.2,0,0,0-.1,3.1h0L12.2,19a.7.7,0,0,1-1,0L9.5,17.2h0a2.2,2.2,0,0,1-3.1-.1,2.2,2.2,0,0,1,.1-3.2h0L4.8,12.1a.8.8,0,0,1,0-1L6.6,9.4h0a2.2,2.2,0,0,0,3.2.1,2.1,2.1,0,0,0,.1-3.1h0l1.8-1.7a.7.7,0,0,1,1,0l1.7,1.8a2.3,2.3,0,0,1,3.2.2,2.3,2.3,0,0,1-.1,3.1l1.6,1.8A.7.7,0,0,1,19.1,12.6Z"/></g></g></svg>