<svg xmlns="http://www.w3.org/2000/svg" viewBox="0 0 64 64" fill="none">
<path d="M3.86043 22.1728C2.38474 23.3734 2.38474 25.6266 3.86043 26.8272L12.6067 33.9426C14.5669 35.5373 17.4999 34.1424 17.4999 31.6154V29H24.6277L34.7108 48.8141C35.3933 50.1554 36.7709 51 38.2758 51H50.9999C53.209 51 54.9999 49.2091 54.9999 47C54.9999 44.7909 53.209 43 50.9999 43H40.7284L30.6453 23.1859C29.9628 21.8446 28.5852 21 27.0804 21H17.4999V17.3846C17.4999 14.8576 14.5669 13.4627 12.6067 15.0574L3.86043 22.1728Z" /><path fill-rule="evenodd" clip-rule="evenodd" d="M27.9999 47C27.9999 49.2091 26.209 51 23.9999 51H17.9999C15.7908 51 13.9999 49.2091 13.9999 47C13.9999 44.7909 15.7908 43 17.9999 43H23.9999C26.209 43 27.9999 44.7909 27.9999 47Z" /><path d="M59.1393 26.8271C60.615 25.6266 60.615 23.3734 59.1393 22.1728L50.3931 15.0574C48.4329 13.4627 45.4999 14.8576 45.4999 17.3846V21L39.9999 21C37.7907 21 35.9999 22.7909 35.9999 25C35.9999 27.2092 37.7907 29 39.9999 29L45.4999 29V31.6154C45.4999 34.1424 48.4329 35.5373 50.3931 33.9425L59.1393 26.8271Z" />
</svg>