<svg xmlns="http://www.w3.org/2000/svg" viewBox="0 0 64 64">
    <path d="m0.61815,45.97395a2.92595,2.92595 0 0 1 1.10985,-2.06834a3.68268,3.68268 0 0 1 2.57283,-0.95849l7.31492,0a4.0358,4.0358 0 0 0 3.07731,-1.31165l23.50856,-23.86169a11.95608,11.95608 0 0 1 8.32385,-3.12775l1.51342,0a1.71522,1.71522 0 0 0 1.21073,-0.50449a1.56386,1.56386 0 0 0 0.50449,-0.95849l0,-3.98536a0.95849,0.95849 0 0 1 0.65581,-1.05941a1.00897,1.00897 0 0 1 1.10985,0l11.09847,8.27341a1.51342,1.51342 0 0 1 0.75673,1.31165a1.61434,1.61434 0 0 1 -0.75673,1.36209l-11.09847,8.72741a1.00897,1.00897 0 0 1 -1.10985,0a1.00897,1.00897 0 0 1 -0.60537,-1.00897l0,-3.53132a1.51342,1.51342 0 0 0 -0.60537,-1.41253a2.2197,2.2197 0 0 0 -1.10985,-0.35312l-1.56386,0a4.18716,4.18716 0 0 0 -3.07731,1.26117l-23.559,23.7608a12.00652,12.00652 0 0 1 -8.37429,3.12775l-7.21399,0a3.58176,3.58176 0 0 1 -3.68268,-3.68268l-0.00004,0zm20.83485,-17.65666a3.43044,3.43044 0 0 1 -2.57283,-1.10985l-4.2376,-4.38893a4.0358,4.0358 0 0 0 -3.07731,-1.31165l-7.26444,0a3.68268,3.68268 0 0 1 -2.57283,-0.95849a3.17819,3.17819 0 0 1 -1.10985,-2.32058l0,0a3.22863,3.22863 0 0 1 1.10985,-2.42147a3.68268,3.68268 0 0 1 2.57283,-0.95849l7.26444,0a11.90564,11.90564 0 0 1 8.37429,3.17819l4.18716,3.93492a3.32955,3.32955 0 0 1 1.05941,2.57283a3.73312,3.73312 0 0 1 -1.05941,2.72419a3.88448,3.88448 0 0 1 -2.67371,1.05941l0,-0.00008zm12.46053,8.82833a3.43044,3.43044 0 0 1 2.57283,-1.10985a3.73312,3.73312 0 0 1 2.67371,1.10985l4.33848,4.54029a4.08624,4.08624 0 0 0 3.07731,1.26117l1.51342,0a1.61434,1.61434 0 0 0 1.21073,-0.55493a1.71522,1.71522 0 0 0 0.55493,-1.21073l0,-3.834a1.05941,1.05941 0 0 1 1.71522,-0.90805l11.09847,8.47521a1.61434,1.61434 0 0 1 0.75673,1.36209a1.51342,1.51342 0 0 1 -0.75673,1.31165l-11.09847,8.27341a1.00897,1.00897 0 0 1 -1.10985,0a0.95849,0.95849 0 0 1 -0.60537,-0.95849l0,-3.58176a1.71522,1.71522 0 0 0 -0.55493,-1.26117a1.51342,1.51342 0 0 0 -1.21073,-0.50449l-1.56386,0a11.80472,11.80472 0 0 1 -8.32385,-3.17819l-4.28804,-3.93492a3.58176,3.58176 0 0 1 -1.00897,-2.62327a3.73312,3.73312 0 0 1 1.00897,-2.67371l0,-0.00012z"/>
</svg>