<svg xmlns="http://www.w3.org/2000/svg" viewBox="0 0 64 64">
    <path d="m32.46714,6.14293c0,0.62269 0.21916,1.15143 0.65747,1.59125c0.43998,0.43986 0.97057,0.69517 1.59179,0.76765c4.68306,0.32942 8.96401,1.77408 12.84131,4.33393c3.87892,2.55985 6.91579,5.88894 9.11069,9.98568c2.2311,4.09511 3.34667,8.50316 3.34667,13.22091c0,8.44717 -3.31043,15.50733 -9.93295,21.17553c-3.91516,3.32913 -8.77947,5.39481 -14.59618,6.19866c-2.78147,0.36571 -5.63547,0.25531 -8.56198,-0.32946c-5.37677,-1.02292 -10.04167,-3.51029 -13.99307,-7.46044c-3.95144,-3.95011 -6.38525,-8.24617 -7.29978,-12.89145c-1.64615,-8.44879 -0.36579,-15.81864 3.84268,-22.10952c0.73162,-1.02296 1.71868,-1.64561 2.96276,-1.86472c1.24408,-0.21907 2.35965,0.05603 3.34667,0.82201c1.02493,0.51392 1.6659,1.42817 1.92134,2.74431c0.2554,1.31619 0.03624,2.48737 -0.65747,3.51033c-2.08613,3.03587 -3.12918,6.19862 -3.12918,9.49151c0,3.29122 0.62286,6.19866 1.86531,8.72223c1.20784,2.52361 2.83587,4.62716 4.88573,6.30901c2.04822,1.68185 4.46224,2.85308 7.24371,3.51033c2.77984,0.73304 5.76072,0.76928 8.94426,0.11035c3.18354,-0.65889 6.05399,-2.26663 8.61634,-4.82648c2.56069,-2.56148 4.24308,-5.61551 5.04885,-9.16371c0.73162,-3.47242 0.51246,-6.85754 -0.65914,-10.14877c-1.17156,-3.29122 -3.07315,-5.99766 -5.70632,-8.11933c-2.59856,-2.12004 -5.56131,-3.43618 -8.89153,-3.94848c-0.73162,-0.11039 -1.39071,0.07248 -1.97403,0.54854c-0.58661,0.47439 -0.86017,1.07895 -0.82393,1.80869l0,4.17085c0,0.54854 -0.2389,0.93236 -0.7135,1.15143c-0.47618,0.21907 -0.91449,0.1845 -1.31656,-0.11035l-13.88435,-10.53259c-0.6229,-0.43819 -0.93265,-1.06083 -0.93265,-1.86472c0,-0.80385 0.30976,-1.44462 0.93265,-1.92071l13.88435,-10.42383c0.40207,-0.32784 0.84038,-0.38383 1.31656,-0.16475c0.47459,0.22074 0.7135,0.60457 0.7135,1.1531l0,4.55301z"/>
</svg>