<svg id="Layer_1" data-name="Layer 1" xmlns="http://www.w3.org/2000/svg" viewBox="0 0 80.27 69.87"><title>restore</title><path d="M79.66,28.41A33,33,0,0,0,71,11.23,34.63,34.63,0,0,0,46.89.06a33.45,33.45,0,0,0-16,3.14,34.84,34.84,0,0,0-20.16,28H4.14a3.93,3.93,0,0,0-2.9,6.78c3.85,3.85,7.69,7.7,11.56,11.53a3.86,3.86,0,0,0,5.63,0q5.76-5.74,11.5-11.5a3.86,3.86,0,0,0,.94-4.52,4.26,4.26,0,0,0-3.78-2.27h-7A25.24,25.24,0,0,1,27.8,16.49a24.58,24.58,0,0,1,23.27-6.38,25.23,25.23,0,0,1,19.6,21.3,24.35,24.35,0,0,1-3.13,16.17,25,25,0,0,1-19,12.69,25,25,0,0,1-16.49-3.53c-.59-.35-1.14-.76-1.7-1.16s-1.21-.88-1.85-1.27a4.55,4.55,0,0,0-6.09,1.42,4.63,4.63,0,0,0,.77,6.19,34.62,34.62,0,0,0,15.65,7.32,37.07,37.07,0,0,0,6.73.63,33.25,33.25,0,0,0,7.15-.77,34.1,34.1,0,0,0,17.14-9.3C78.47,51.1,81.76,40.54,79.66,28.41Z"/><path d="M42.61,38.85c2.56,2.51,5.08,5,7.61,7.57l3.1,3.12a10.24,10.24,0,0,0,.85.76,4.71,4.71,0,0,0,5.8-.1,4.68,4.68,0,0,0,1.71-3.41A5.11,5.11,0,0,0,60.09,43l-1.26-1.26C56,38.91,53.2,36.09,50.37,33.3a.66.66,0,0,1-.27-.61c0-3.62,0-7.24,0-10.85V19.92a4.8,4.8,0,0,0-3.24-4.61,4.66,4.66,0,0,0-4.15.63,5,5,0,0,0-2,4.08c0,1.75,0,3.5,0,5.25v4.25c0,1.59,0,3.17,0,4.75A6,6,0,0,0,42.61,38.85Z"/></svg>