<svg xmlns="http://www.w3.org/2000/svg" viewBox="0 0 64 64">
    <path d="m56.53258,40.32244l5.17565,-5.17565a4.44416,4.44416 0 0 0 0,-6.29359l-5.17565,-5.16185a4.49937,4.49937 0 0 1 -1.29736,-3.1606l0,-7.30112a4.45796,4.45796 0 0 0 -4.45796,-4.47176l-7.31492,0a4.44416,4.44416 0 0 1 -3.1468,-1.29736l-5.17565,-5.17565a4.44416,4.44416 0 0 0 -6.29359,0l-5.17565,5.18945a4.49937,4.49937 0 0 1 -3.1606,1.29736l-7.28732,0a4.45796,4.45796 0 0 0 -4.45796,4.45796l0,7.30112a4.49937,4.49937 0 0 1 -1.29736,3.1606l-5.17565,5.16185a4.44416,4.44416 0 0 0 0,6.29359l5.17565,5.17565a4.49937,4.49937 0 0 1 1.29736,3.1468l0,7.31492a4.45796,4.45796 0 0 0 4.45796,4.45796l7.30112,0a4.49937,4.49937 0 0 1 3.1606,1.29736l5.16185,5.17565a4.44416,4.44416 0 0 0 6.29359,0l5.17565,-5.17565a4.44416,4.44416 0 0 1 3.1468,-1.29736l7.31492,0a4.45796,4.45796 0 0 0 4.45796,-4.45796l0,-7.31492a4.49937,4.49937 0 0 1 1.29736,-3.1468"/>
</svg>