<svg xmlns="http://www.w3.org/2000/svg" viewBox="0 0 64 64">
    <path d="m52.45813,16.93456l-41.04982,0a2.52867,2.52867 0 0 1 -2.06891,-1.11656a2.47941,2.47941 0 0 1 -0.44334,-2.29879l1.23149,-4.72894a2.44657,2.44657 0 0 1 2.05249,-1.75693a90.76936,90.76936 0 0 1 10.73863,-1.0673a1.90471,1.90471 0 0 0 1.64199,-1.51063a9.52356,9.52356 0 0 1 1.46137,-2.74213q0.78816,-0.93594 6.00969,-0.93594t5.92759,0.88668a8.66972,8.66972 0 0 1 1.19865,2.03607q0.4926,1.14939 0.5747,1.33001a1.78977,1.78977 0 0 0 1.64199,0.96878q1.33001,0 5.48426,0.44334t4.92598,0.52544a2.44657,2.44657 0 0 1 2.03607,1.77335l1.28075,4.72894a2.47941,2.47941 0 0 1 -0.47618,2.34805a2.56151,2.56151 0 0 1 -2.16743,1.11656zm-38.15991,4.92598l35.33569,0a2.80781,2.80781 0 0 1 2.08533,0.93594a2.75855,2.75855 0 0 1 0.70606,2.11817l-3.02127,35.87754a2.61077,2.61077 0 0 1 -0.83742,1.72409a2.49583,2.49583 0 0 1 -1.77335,0.70606l-29.68723,0a2.56151,2.56151 0 0 1 -1.80619,-0.70606a2.61077,2.61077 0 0 1 -0.83742,-1.72409l-2.95559,-35.91038a2.90633,2.90633 0 0 1 0.75532,-2.11817a2.75855,2.75855 0 0 1 2.03607,-0.91952l0,0.01642z"/>
</svg>