<svg xmlns="http://www.w3.org/2000/svg" viewBox="0 0 64 64"><title>Kano_ICON-2019</title><g id="Layer_1" data-name="Layer 1"><path d="M56.3,30.3V34a2.2,2.2,0,0,1-2.2,2.2h-.6a3.2,3.2,0,0,0-3.1,2.3,10.2,10.2,0,0,1-.9,2.2,3,3,0,0,0,.6,3.8,3.1,3.1,0,0,1,1,2,2.5,2.5,0,0,1-.6,1.6l-2.6,2.6a2.6,2.6,0,0,1-1.6.7,2.1,2.1,0,0,1-1.5-.7l-.5-.5a3,3,0,0,0-3.9-.5l-2.1.9a3,3,0,0,0-1.7,1.2,3.1,3.1,0,0,0-.6,1.9v.6a2.3,2.3,0,0,1-.6,1.6,2.5,2.5,0,0,1-1.6.6H30.1a2.5,2.5,0,0,1-1.6-.6,2.3,2.3,0,0,1-.6-1.6v-.7a3.2,3.2,0,0,0-2.4-3.2l-2-.8a3.2,3.2,0,0,0-3.9.6l-.5.5a2.1,2.1,0,0,1-1.5.7,2.6,2.6,0,0,1-1.6-.7l-2.6-2.6a2.5,2.5,0,0,1-.6-1.6,2,2,0,0,1,.6-1.5l.6-.6a3.1,3.1,0,0,0,.5-3.8,18,18,0,0,1-.8-2.1,3.7,3.7,0,0,0-1.3-1.7,3.1,3.1,0,0,0-1.9-.6H9.8a2.1,2.1,0,0,1-1.6-.7A2,2,0,0,1,7.6,34V30.3a2,2,0,0,1,.6-1.5,2.1,2.1,0,0,1,1.6-.7h.7a3.1,3.1,0,0,0,1.9-.6,3.7,3.7,0,0,0,1.3-1.7,18,18,0,0,1,.8-2.1,3.1,3.1,0,0,0-.5-3.8l-.6-.6a2,2,0,0,1-.6-1.5,2.5,2.5,0,0,1,.6-1.6L16,13.6a2.5,2.5,0,0,1,1.6-.6,2,2,0,0,1,1.5.6l.5.5a3.2,3.2,0,0,0,3.9.6l2.1-.9a4.3,4.3,0,0,0,1.7-1.2,3.3,3.3,0,0,0,.6-1.9V10a2.3,2.3,0,0,1,.6-1.6,2.5,2.5,0,0,1,1.6-.6h3.7a2.5,2.5,0,0,1,1.6.6A2.3,2.3,0,0,1,36,10v.6a3,3,0,0,0,2.3,3.1l2.1.9a3,3,0,0,0,3.9-.5l.5-.5a2,2,0,0,1,1.5-.6,2.5,2.5,0,0,1,1.6.6l2.6,2.6a2.5,2.5,0,0,1,.6,1.6,2,2,0,0,1-.6,1.5c-1.4,1.4-1.7,2.8-1,4.2s.7,1.6.9,2.3a3.2,3.2,0,0,0,3.1,2.3h.6a2.2,2.2,0,0,1,2.2,2.2ZM34.6,44.5A13.2,13.2,0,0,0,41,41.1a12.6,12.6,0,0,0,3.2-5.5,14.5,14.5,0,0,0,.3-5,8.9,8.9,0,0,0-1.2-4,12.7,12.7,0,0,0-6-5.9,12,12,0,0,0-7.8-.9,13.7,13.7,0,0,0-6.4,3.4,11.7,11.7,0,0,0-3.2,5.5,17.7,17.7,0,0,0-.4,5,12.6,12.6,0,0,0,7.3,9.9A11.8,11.8,0,0,0,34.6,44.5Z"/></g></svg>