<svg version="1.1" xmlns="http://www.w3.org/2000/svg" xmlns:xlink="http://www.w3.org/1999/xlink" x="0px" y="0px"
viewBox="0 0 37.01 37.01" style="enable-background:new 0 0 37.01 37.01;" xml:space="preserve">
<g id="Layer_3">
</g>
<g id="Layer_1">
<g>
 <defs>
   <rect id="SVGID_1_" x="-442.41" y="-787.52" width="748.21" height="594.78"/>
 </defs>
 <clipPath id="SVGID_2_">
   <use xlink:href="#SVGID_1_"  style="overflow:visible;"/>
 </clipPath>
 <g class="st2">
   <defs>
     <rect id="SVGID_3_" x="-1258.78" y="-817.78" width="3860.14" height="708.75"/>
   </defs>
   <clipPath id="SVGID_4_">
     <use xlink:href="#SVGID_3_"  style="overflow:visible;"/>
   </clipPath>
 </g>
</g>
<g id="Layer_2">
</g>
<g>
 <defs>
   <rect id="SVGID_17_" x="-442.41" y="240.06" width="750.43" height="596.67"/>
 </defs>
 <clipPath id="SVGID_6_">
   <use xlink:href="#SVGID_17_"  style="overflow:visible;"/>
 </clipPath>
 <g style="clip-path:url(#SVGID_6_);">
   <defs>
     <rect id="SVGID_19_" x="-2345.92" y="216.27" width="5211.83" height="631.12"/>
   </defs>
   <clipPath id="SVGID_8_">
     <use xlink:href="#SVGID_19_"  style="overflow:visible;"/>
   </clipPath>
   <g style="clip-path:url(#SVGID_8_);">
     <defs>
       <rect id="SVGID_21_" x="-2510.85" y="237.06" width="5211.83" height="610.76"/>
     </defs>
     <clipPath id="SVGID_10_">
       <use xlink:href="#SVGID_21_"  style="overflow:visible;"/>
     </clipPath>
     <g style="clip-path:url(#SVGID_10_);">
       <g>
         <circle class="st58" cx="-330.53" cy="272.13" r="347.8"/>
       </g>
     </g>
   </g>
 </g>
</g>
<path class="st72" d="M37.01,17.08v2.84c0,0.64-0.27,1.12-0.82,1.45c-0.26,0.16-0.54,0.23-0.84,0.22h-0.46
 c-1.16-0.02-1.94,0.57-2.36,1.76c-0.19,0.55-0.42,1.09-0.67,1.64c-0.55,1.11-0.41,2.08,0.41,2.93c0.54,0.55,0.82,1.04,0.82,1.49
 c0,0.45-0.16,0.84-0.48,1.18l-2,2.02c-0.34,0.32-0.73,0.48-1.18,0.48c-0.45,0-0.84-0.16-1.18-0.48l-0.36-0.36
 c-0.83-0.86-1.81-1.01-2.94-0.43c-0.51,0.26-1.04,0.48-1.59,0.67c-0.54,0.18-0.98,0.48-1.3,0.91c-0.32,0.43-0.48,0.92-0.48,1.47
 v0.48c0,0.46-0.16,0.86-0.48,1.18c-0.32,0.32-0.71,0.48-1.18,0.48h-2.81c-0.46,0-0.86-0.16-1.18-0.48
 c-0.32-0.32-0.48-0.71-0.48-1.18v-0.55c0.02-1.19-0.6-1.99-1.85-2.41c-0.45-0.16-0.94-0.37-1.47-0.63
 c-1.12-0.56-2.11-0.42-2.96,0.43L8.78,32.6c-0.32,0.32-0.71,0.48-1.18,0.48c-0.47,0-0.86-0.16-1.18-0.48l-2-2.02
 c-0.32-0.34-0.48-0.73-0.48-1.18c0-0.45,0.16-0.83,0.48-1.15l0.43-0.43C5.68,27,5.81,26.03,5.27,24.9
 c-0.26-0.5-0.46-1.02-0.62-1.56c-0.19-0.54-0.51-0.98-0.94-1.3c-0.43-0.32-0.91-0.47-1.44-0.46H1.68
 c-0.47-0.02-0.86-0.19-1.18-0.51c-0.32-0.32-0.49-0.71-0.5-1.16v-2.84c0.01-0.45,0.18-0.83,0.5-1.16c0.32-0.32,0.71-0.49,1.18-0.5
 h0.58c0.53,0.01,1.01-0.14,1.44-0.46c0.43-0.32,0.74-0.75,0.94-1.3c0.19-0.55,0.4-1.07,0.62-1.56c0.54-1.12,0.41-2.09-0.41-2.91
 L4.43,8.76C4.11,8.44,3.95,8.05,3.95,7.6c0-0.45,0.16-0.84,0.48-1.18l2-2C6.74,4.11,7.14,3.95,7.6,3.95c0.46,0,0.86,0.16,1.18,0.48
 l0.39,0.38c0.85,0.85,1.83,1,2.93,0.43c0.51-0.26,1.04-0.48,1.59-0.67c0.54-0.19,0.98-0.5,1.3-0.91c0.32-0.42,0.47-0.9,0.46-1.44
 V1.66c0-0.46,0.16-0.86,0.48-1.18C16.25,0.16,16.64,0,17.11,0h2.81c0.47,0,0.86,0.16,1.18,0.48c0.32,0.32,0.48,0.71,0.48,1.18v0.5
 c0,1.16,0.59,1.94,1.78,2.36c0.54,0.19,1.07,0.42,1.59,0.67c1.14,0.56,2.12,0.42,2.94-0.43l0.36-0.34
 c0.34-0.32,0.73-0.48,1.18-0.48c0.45,0,0.84,0.16,1.18,0.48l2,2c0.32,0.34,0.48,0.73,0.48,1.18c0,0.45-0.16,0.83-0.48,1.15
 c-1.04,1.04-1.31,2.11-0.79,3.2c0.29,0.59,0.53,1.16,0.72,1.71c0.42,1.17,1.2,1.76,2.36,1.76h0.46c0.64,0,1.12,0.28,1.44,0.84
 C36.93,16.52,37.01,16.79,37.01,17.08 M20.5,27.91c1.94-0.45,3.56-1.33,4.86-2.64c1.3-1.31,2.11-2.69,2.43-4.12
 c0.32-1.43,0.41-2.7,0.29-3.82c-0.13-1.12-0.43-2.14-0.91-3.06c-1.06-2.04-2.6-3.52-4.62-4.45c-2.02-0.93-3.99-1.17-5.89-0.72
 c-1.91,0.45-3.52,1.33-4.84,2.64c-1.32,1.32-2.13,2.69-2.45,4.12c-0.32,1.43-0.41,2.7-0.26,3.82c0.14,1.12,0.45,2.14,0.91,3.06
 c1.03,2.04,2.55,3.52,4.57,4.45C16.59,28.12,18.56,28.36,20.5,27.91"/>
</g>
</svg>