<svg><path d="M63.949 29.603v4.883a2.727 2.727 0 0 1-1.4 2.487 2.395 2.395 0 0 1-1.456.369h-.792a3.98 3.98 0 0 0-4.054 3.021 30.326 30.326 0 0 1-1.16 2.8 4.09 4.09 0 0 0 .7 5.067 3.906 3.906 0 0 1 1.418 2.561 2.764 2.764 0 0 1-.847 2.027L52.931 56.3a2.856 2.856 0 0 1-2.027.83 2.893 2.893 0 0 1-2.045-.83l-.608-.626a3.943 3.943 0 0 0-5.122-.719 23.749 23.749 0 0 1-2.726 1.16 4.274 4.274 0 0 0-2.23 1.567 4.109 4.109 0 0 0-.847 2.542v.83a2.8 2.8 0 0 1-2.856 2.855h-4.79a2.837 2.837 0 0 1-2.856-2.856v-.958a4.053 4.053 0 0 0-3.187-4.145 29.257 29.257 0 0 1-2.524-1.069 4.053 4.053 0 0 0-5.104.737l-.663.7a2.764 2.764 0 0 1-2.027.83 2.745 2.745 0 0 1-2.026-.83l-3.446-3.482a2.819 2.819 0 0 1-.829-2.026 2.708 2.708 0 0 1 .83-1.99l.755-.737a4.035 4.035 0 0 0 .7-5.03 14.942 14.942 0 0 1-1.087-2.69 4.624 4.624 0 0 0-1.603-2.23 3.961 3.961 0 0 0-2.487-.791H3.13A2.966 2.966 0 0 1 .22 34.486v-4.883a2.966 2.966 0 0 1 2.91-2.855h.996a3.961 3.961 0 0 0 2.487-.793 4.68 4.68 0 0 0 1.603-2.247c.331-.94.7-1.843 1.087-2.69a4.016 4.016 0 0 0-.7-5.012l-.756-.737a2.745 2.745 0 0 1-.829-1.99 2.893 2.893 0 0 1 .83-2.044l3.445-3.427a2.745 2.745 0 0 1 2.026-.83 2.764 2.764 0 0 1 2.027.83l.663.663a3.98 3.98 0 0 0 5.048.737 23.951 23.951 0 0 1 2.746-1.16 4.68 4.68 0 0 0 2.229-1.567 3.685 3.685 0 0 0 .792-2.487v-.958A2.837 2.837 0 0 1 29.68.18h4.845a2.8 2.8 0 0 1 2.856 2.856v.866a4.072 4.072 0 0 0 3.077 4.071 23.749 23.749 0 0 1 2.727 1.161 3.98 3.98 0 0 0 5.066-.755l.608-.571a2.893 2.893 0 0 1 2.045-.83 2.856 2.856 0 0 1 2.027.83l3.427 3.427a2.837 2.837 0 0 1 .847 2.045 2.69 2.69 0 0 1-.847 1.99 4.57 4.57 0 0 0-1.363 5.527 27.397 27.397 0 0 1 1.252 2.93 4.035 4.035 0 0 0 4.054 3.04h.792a2.69 2.69 0 0 1 2.487 1.436 2.966 2.966 0 0 1 .369 1.4zM35.52 48.25a16.858 16.858 0 0 0 8.383-4.57 14.887 14.887 0 0 0 4.183-7.074 19.99 19.99 0 0 0 .57-6.596A14.74 14.74 0 0 0 47 24.739a16.582 16.582 0 0 0-7.96-7.682 15.44 15.44 0 0 0-10.151-1.235 17.208 17.208 0 0 0-8.328 4.55 14.74 14.74 0 0 0-4.22 7.094 19.309 19.309 0 0 0-.46 6.578 15.863 15.863 0 0 0 1.585 5.269 16.14 16.14 0 0 0 7.867 7.664A15.403 15.403 0 0 0 35.52 48.25z"/></svg>