<svg xmlns="http://www.w3.org/2000/svg" viewBox="0 0 64 64"><title>Kano_ICON-2019</title><g id="Layer_1" data-name="Layer 1"><path d="M60.4,29.9v4.4a2.3,2.3,0,0,1-1.3,2.2,1.8,1.8,0,0,1-1.2.3h-.7a3.7,3.7,0,0,0-3.7,2.7,18.6,18.6,0,0,1-1,2.5,3.8,3.8,0,0,0,.6,4.5,3.4,3.4,0,0,1,1.3,2.3,2.5,2.5,0,0,1-.8,1.8l-3,3.1a2.4,2.4,0,0,1-3.6,0l-.6-.5a3.5,3.5,0,0,0-4.5-.7l-2.4,1.1a3.2,3.2,0,0,0-2,1.4,3.5,3.5,0,0,0-.8,2.2v.7a2.5,2.5,0,0,1-.7,1.9,2.9,2.9,0,0,1-1.8.7H29.9a2.9,2.9,0,0,1-1.8-.7,2.6,2.6,0,0,1-.8-1.9v-.8a3.6,3.6,0,0,0-2.8-3.7,14.6,14.6,0,0,1-2.3-1,3.6,3.6,0,0,0-4.5.7l-.6.6a2.4,2.4,0,0,1-3.6,0l-3.1-3.1a2.4,2.4,0,0,1-.7-1.8,2.1,2.1,0,0,1,.7-1.7l.7-.7a3.8,3.8,0,0,0,.6-4.5,13.3,13.3,0,0,1-1-2.4,3.5,3.5,0,0,0-1.4-2,3.6,3.6,0,0,0-2.2-.7H6.2a2.9,2.9,0,0,1-1.8-.7,2.5,2.5,0,0,1-.8-1.8V29.9a2.3,2.3,0,0,1,.8-1.7,2.5,2.5,0,0,1,1.8-.8h.9a3.6,3.6,0,0,0,2.2-.7,3.5,3.5,0,0,0,1.4-2c.3-.9.7-1.6,1-2.4a3.8,3.8,0,0,0-.6-4.5l-.7-.6a2.4,2.4,0,0,1-.7-1.8,2.4,2.4,0,0,1,.7-1.8l3.1-3.1a2.4,2.4,0,0,1,1.8-.7,2.4,2.4,0,0,1,1.8.7l.6.6a3.6,3.6,0,0,0,4.5.7l2.4-1.1a3.7,3.7,0,0,0,2-1.4,3.2,3.2,0,0,0,.7-2.2V6.3a2.3,2.3,0,0,1,.8-1.8,2.5,2.5,0,0,1,1.8-.8h4.3a2.5,2.5,0,0,1,1.8.8,2.3,2.3,0,0,1,.7,1.8V7a3.7,3.7,0,0,0,2.8,3.7l2.4,1a3.5,3.5,0,0,0,4.5-.7l.6-.5a2.7,2.7,0,0,1,3.6,0l3,3.1a2.4,2.4,0,0,1,0,3.6c-1.6,1.6-2,3.2-1.2,4.9a14.5,14.5,0,0,1,1.1,2.6,3.7,3.7,0,0,0,3.7,2.7h.7a2.4,2.4,0,0,1,2.2,1.3A2.7,2.7,0,0,1,60.4,29.9ZM35.1,46.5a14.1,14.1,0,0,0,7.4-4,13.2,13.2,0,0,0,3.8-6.3,17.6,17.6,0,0,0,.4-5.9,14.3,14.3,0,0,0-1.4-4.7,14.6,14.6,0,0,0-7.1-6.8,13.7,13.7,0,0,0-9-1.1,15.6,15.6,0,0,0-7.5,4A13.9,13.9,0,0,0,18,28a17.6,17.6,0,0,0-.4,5.9A14.3,14.3,0,0,0,19,38.6a14.4,14.4,0,0,0,7,6.8A13.3,13.3,0,0,0,35.1,46.5Z"/></g></svg>