<svg width="40px" height="40px" viewBox="0 0 40 40" version="1.1" xmlns="http://www.w3.org/2000/svg" xmlns:xlink="http://www.w3.org/1999/xlink"><defs><polygon id="path-1" points="0.000174610019 0.872272976 38.128 0.872272976 38.128 39 0.000174610019 39"></polygon></defs><g id="Icon-art-/-Challenge-/-Gamification-/-SimpleGreyMedal-40px" stroke="none" stroke-width="1" fill="none" fill-rule="evenodd"><g id="Group-24" transform="translate(1.000000, 0.000000)"><g id="Group-3" transform="translate(0.000000, 0.128100)"><g id="Clip-2"></g><path d="M38.1282,19.9063 C38.1442,30.4343 29.6232,38.9833 19.0942,39.0003 C16.0912,39.0043 13.2492,38.3143 10.7202,37.0823 C9.6502,36.5603 8.6362,35.9413 7.6892,35.2373 C7.1382,34.8273 6.6102,34.3883 6.1082,33.9223 C4.3992,32.3383 2.9822,30.4463 1.9442,28.3333 C0.7032,25.8083 0.0042,22.9683 0.0002,19.9653 C-0.0168,9.4363 8.5052,0.8883 19.0342,0.8723 C22.0372,0.8673 24.8792,1.5563 27.4082,2.7893 C29.5242,3.8213 31.4202,5.2333 33.0112,6.9363 C33.4772,7.4373 33.9192,7.9643 34.3302,8.5133 C35.0372,9.4583 35.6592,10.4703 36.1842,11.5383 C37.4252,14.0643 38.1242,16.9043 38.1282,19.9063" id="Fill-1" fill="#CACACA" ></path></g><path d="M35.2542,19.3027 C35.2532,19.3447 35.2522,19.3867 35.2502,19.4297 C35.2522,19.3927 35.2542,19.3547 35.2542,19.3177 C35.2542,19.3127 35.2542,19.3077 35.2542,19.3027 M2.8722,19.3527 L2.8722,19.3577 C2.8712,19.3617 2.8712,19.3667 2.8712,19.3707 C2.8732,19.4137 2.8742,19.4577 2.8772,19.5007 L2.8772,19.4967 C2.8752,19.4487 2.8732,19.4007 2.8722,19.3527" id="Fill-4" fill="#D1D1D1"></path><path d="M32.7786,19.2239 C32.7806,20.6589 32.5606,22.0409 32.1516,23.3459 C30.4066,28.9029 25.2106,32.9489 19.0846,32.9589 C18.0976,32.9609 17.1336,32.8579 16.2046,32.6609 C14.7816,32.3589 13.4406,31.8349 12.2196,31.1279 C11.5386,30.7339 10.8926,30.2839 10.2936,29.7819 C8.3026,28.1219 6.7876,25.9119 5.9846,23.3849 C5.9596,23.2999 5.9326,23.2139 5.9056,23.1279 C5.5446,21.9019 5.3486,20.6069 5.3476,19.2649 C5.3366,11.7039 11.4776,5.5399 19.0416,5.5299 C20.3806,5.5269 21.6766,5.7179 22.9026,6.0779 C25.5406,6.8469 27.8516,8.3889 29.5716,10.4429 C30.0766,11.0419 30.5286,11.6859 30.9246,12.3659 C31.6366,13.5859 32.1636,14.9249 32.4696,16.3449 C32.6696,17.2739 32.7766,18.2369 32.7786,19.2239" id="Fill-6" fill="#C3C3C3"></path><path d="M35.387,19.8381 C35.388,21.5471 35.126,23.1921 34.639,24.7431 C32.563,31.3561 26.379,36.1721 19.089,36.1831 C17.915,36.1871 16.767,36.0631 15.661,35.8291 C15.437,35.7821 15.212,35.7281 14.987,35.6701 C13.544,35.2991 12.178,34.7341 10.919,34.0051 C10.805,33.9381 10.693,33.8731 10.582,33.8041 C9.894,33.3831 9.24,32.9161 8.626,32.4041 L8.428,32.2331 C6.157,30.2811 4.427,27.7131 3.499,24.7901 L3.456,24.6511 L3.405,24.4841 C2.973,23.0251 2.743,21.4831 2.74,19.8861 C2.727,10.8891 10.036,3.5551 19.037,3.5421 C20.631,3.5371 22.174,3.7661 23.633,4.1931 L23.799,4.2411 L23.801,4.2411 C26.785,5.1491 29.408,6.8871 31.401,9.1891 L31.569,9.3881 C32.086,10.0001 32.558,10.6531 32.977,11.3371 C33.046,11.4501 33.115,11.5631 33.181,11.6771 C33.911,12.9341 34.482,14.2991 34.857,15.7421 C34.915,15.9631 34.968,16.1871 35.017,16.4131 C35.256,17.5181 35.383,18.6651 35.387,19.8381" id="Fill-8" fill="#D4D4D4"></path><path d="M15.2092,23.0986 C15.2092,23.3886 14.9752,23.6236 14.6862,23.6236 C14.3962,23.6236 14.1612,23.3886 14.1612,23.0986 C14.1612,22.8086 14.3962,22.5756 14.6862,22.5756 C14.9752,22.5756 15.2092,22.8086 15.2092,23.0986" id="Fill-10" fill="#FFFFFF"></path><polygon id="Fill-12" fill="#C2C2C2" points="25.9368 18.6496 23.3698 18.6496 23.3698 19.9306 22.2468 19.9236 22.1198 19.7966 22.1238 19.1016 16.0358 25.2096 16.0138 28.6046"></polygon><path d="M21.6004,11.1621 C21.4464,11.1621 21.2894,11.2251 21.1724,11.3681 L13.0724,21.1551 L11.6614,21.1551 L11.6614,23.1051 L11.6674,23.1051 C11.6784,23.4211 11.9204,23.7171 12.2854,23.7191 L15.9154,23.7431 L16.0444,23.8721 L16.0354,25.2091 L22.1234,19.1021 L22.1714,11.7341 C22.1734,11.3871 21.8914,11.1621 21.6004,11.1621" id="Fill-14" fill="#CCCCCC"></path><path d="M26.5012,18.6496 L25.9372,18.6496 L16.0132,28.6046 L15.9922,31.9326 C15.9892,32.2806 16.2712,32.5056 16.5612,32.5056 C16.7162,32.5056 16.8742,32.4416 16.9912,32.2986 L26.3572,20.9806 C26.4512,20.8666 26.4922,20.7376 26.4972,20.6086 L26.5012,20.6086 L26.5012,18.6496" id="Fill-16" fill="#CCCCCC"></path><path d="M26.5007,17.0608 L23.3697,17.0608 L23.3697,18.3428 L22.2477,18.3348 L22.1197,18.2078 L22.1717,10.1458 C22.1747,9.6128 21.5107,9.3688 21.1717,9.7798 L13.0727,19.5668 L11.6607,19.5668 L11.6607,21.5158 L11.6677,21.5158 C11.6777,21.8328 11.9207,22.1278 12.2847,22.1308 L15.9167,22.1548 L16.0437,22.2838 L15.9917,30.3428 C15.9887,30.8788 16.6527,31.1208 16.9917,30.7108 L26.3577,19.3918 C26.4507,19.2788 26.4927,19.1488 26.4977,19.0208 L26.5007,19.0208 L26.5007,17.0608 Z" id="Fill-18" fill="#939393"></path><path d="M26.3577,17.4414 L16.9917,28.7604 C16.6527,29.1704 15.9887,28.9284 15.9917,28.3924 L16.0447,20.3334 L15.9167,20.2034 L12.2847,20.1794 C11.7567,20.1764 11.4687,19.5574 11.8057,19.1474 L21.1717,7.8284 C21.5107,7.4184 22.1747,7.6624 22.1717,8.1954 L22.1197,16.2574 L22.2477,16.3844 L25.8787,16.4084 C26.4067,16.4114 26.6937,17.0334 26.3577,17.4414" id="Fill-20" fill="#A4A4A4"></path><path d="M22.136,8.1955 C22.139,7.6625 21.475,7.4175 21.136,7.8285 L11.771,19.1475 C11.434,19.5575 11.721,20.1765 12.249,20.1795 L14.897,20.1975 L22.115,11.4735 L22.136,8.1955 Z" id="Fill-22" fill="#B2B2B2"></path></g></g></svg>