<svg viewBox="8 0 22 30" xmlns="http://www.w3.org/2000/svg"><defs><clipPath id="clip-path"><path class="cls-1" d="M12.1 8.5l-.8 1.5-1.4.7 1.4.8.8 1.4.8-1.4 1.4-.8L13 10l-.8-1.5z"/></clipPath><clipPath id="clip-path-2"><path class="cls-1" d="M18.8 13.3l2 3.6 3.6 2-3.6 1.9-2 3.6-2-3.6-3.5-2 3.6-2 2-3.5z"/></clipPath></defs><g id="Layer_2" data-name="Layer 2"><g id="Layer_6" data-name="Layer 6"><path class="cls-2" d="M23.5 5l-1.3 2.4L20 8.7l2.4 1.3 1.2 2.3 1.3-2.3 2.3-1.3-2.3-1.3-1.3-2.3zM12.1 8.5l-.8 1.5-1.4.7 1.4.8.8 1.4.8-1.4 1.4-.8L13 10l-.8-1.5zM18.8 13.3l2 3.6 3.6 2-3.6 1.9-2 3.6-2-3.6-3.5-2 3.6-2 2-3.5z"/></g></g></svg>