<svg xmlns="http://www.w3.org/2000/svg" viewBox="0 0 64 64">
    <path d="M60.5217391,27.9652174 L55.5130435,22.6782609 C54.6782609,21.8434783 54.1217391,20.7304348 54.1217391,19.6173913 L54.1217391,12.3826087 C54.1217391,9.87826087 52.173913,7.93043478 49.6695652,7.93043478 L42.4347826,7.93043478 C41.3217391,7.93043478 40.2086957,7.37391304 39.373913,6.53913043 L34.0869565,1.25217391 C32.4173913,-0.417391304 29.6347826,-0.417391304 27.6869565,1.25217391 L22.6782609,6.53913043 C21.8434783,7.37391304 20.7304348,7.93043478 19.6173913,7.93043478 L12.3826087,7.93043478 C9.87826087,7.93043478 7.93043478,9.87826087 7.93043478,12.3826087 L7.93043478,19.6173913 C7.93043478,20.7304348 7.37391304,21.8434783 6.53913043,22.6782609 L1.25217391,27.9652174 C-0.417391304,29.6347826 -0.417391304,32.4173913 1.25217391,34.3652174 L6.53913043,39.6521739 C7.37391304,40.4869565 7.93043478,41.6 7.93043478,42.7130435 L7.93043478,49.9478261 C7.93043478,52.4521739 9.87826087,54.4 12.3826087,54.4 L19.6173913,54.4 C20.7304348,54.4 21.8434783,54.9565217 22.6782609,55.7913043 L27.9652174,61.0782609 C29.6347826,62.7478261 32.4173913,62.7478261 34.3652174,61.0782609 L39.6521739,55.7913043 C40.4869565,54.9565217 41.6,54.4 42.7130435,54.4 L49.9478261,54.4 C52.4521739,54.4 54.4,52.4521739 54.4,49.9478261 L54.4,42.7130435 C54.4,41.6 54.9565217,40.4869565 55.7913043,39.6521739 L61.0782609,34.3652174 C62.4695652,32.4173913 62.4695652,29.6347826 60.5217391,27.9652174 Z M38.8608696,38.0869565 C39.4173913,38.6434783 39.4173913,39.2 39.4173913,39.7565217 C39.4173913,40.3130435 39.1391304,40.8695652 38.8608696,41.426087 C38.3043478,41.9826087 37.7478261,41.9826087 37.1913043,41.9826087 C36.6347826,41.9826087 36.0782609,41.7043478 35.5217391,41.426087 L27.4521739,34.4695652 L27.4521739,39.7565217 C27.4521739,40.3130435 27.173913,40.8695652 26.8956522,41.426087 C26.6173913,41.7043478 26.0608696,41.9826087 25.226087,41.9826087 C24.6695652,41.9826087 24.1130435,41.7043478 23.5565217,41.426087 C23,41.1478261 23,40.3130435 23,39.7565217 L23,22.5043478 C23,21.9478261 23.2782609,21.3913043 23.5565217,20.8347826 C23.8347826,20.2782609 24.6695652,20 25.226087,20 C25.7826087,20 26.3391304,20.2782609 26.8956522,20.5565217 C27.4521739,21.1130435 27.4521739,21.6695652 27.4521739,22.226087 L27.4521739,27.7913043 L35.5217391,20.8347826 C36.0782609,20.2782609 36.6347826,20.2782609 37.1913043,20.2782609 C37.7478261,20.2782609 38.3043478,20.5565217 38.8608696,20.8347826 C39.4173913,21.1130435 39.4173913,21.9478261 39.4173913,22.5043478 C39.4173913,23.0608696 39.1391304,23.6173913 38.8608696,24.173913 L30.7913043,31.1304348 L38.8608696,38.0869565 Z"/>
</svg>