<svg xmlns="http://www.w3.org/2000/svg" viewBox="0 0 23.4 23.4"><title>Steps</title><g id="Layer_2" data-name="Layer 2"><g id="Layer_1-2" data-name="Layer 1"><path d="M18.2,0H5.2A5.2,5.2,0,0,0,0,5.2v13a5.2,5.2,0,0,0,5.2,5.2h13a5.2,5.2,0,0,0,5.2-5.2V5.2A5.2,5.2,0,0,0,18.2,0ZM8.4,10.7H15a2.5,2.5,0,0,1,2.5,2.5v2.6A2.5,2.5,0,0,1,15,18.3H11a2.9,2.9,0,1,1-2.7-4,3,3,0,0,1,2.8,2.1H15a.6.6,0,0,0,.6-.6V13.2a.6.6,0,0,0-.6-.6H8.4a2.6,2.6,0,0,1-2.6-2.5V7.6A2.6,2.6,0,0,1,8.4,5.1h3.3a3.2,3.2,0,0,1,3.1-2.3A3.3,3.3,0,1,1,11.6,7H8.4a.7.7,0,0,0-.7.6v2.5A.7.7,0,0,0,8.4,10.7Z"/><path d="M14.8,7.7a1.6,1.6,0,1,0-1.6-1.6A1.6,1.6,0,0,0,14.8,7.7Zm0-2.4a.8.8,0,0,1,.8.8.8.8,0,1,1-1.6,0A.8.8,0,0,1,14.8,5.3Z"/></g></g></svg>