<svg viewBox="0 0 44 44" xmlns="http://www.w3.org/2000/svg" xmlns:xlink="http://www.w3.org/1999/xlink"><defs><path id="a" d="M.078.032h9.918V8.58H.078z"/><path id="c" d="M.153.032h18.486V8.58H.153z"/><path id="e" d="M0 .046h19.8v8.547H0z"/><path id="g" d="M.142.046h11.912v8.547H.142z"/><path id="i" d="M.077.045h9.917v8.548H.077z"/></defs><g fill="none" fill-rule="evenodd"><rect fill="#292F35" width="44" height="44" rx="9"/><path fill="#FFF" d="M39.72 30.997v.037h.12v.242h.047v-.243h.12v-.036zM40.814 30.997l-.087.228-.09-.228h-.053v.279h.039v-.222l.08.222h.046l.08-.222v.221h.041v-.278z"/><g transform="translate(12.792 22.193)"><mask id="b" fill="#fff"><use xlink:href="#a"/></mask><path d="M5.712 5.018h-1.25c-.044 0-.076-.05-.076-.096 0-.018.665-2.163.665-2.163.024-.08.026-.083.035-.083.01 0 .012.002.036.083 0 0 .665 2.145.665 2.163 0 .046-.034.096-.075.096M7.397.11A.11.11 0 0 0 7.3.032H2.71a.109.109 0 0 0-.095.078S.078 8.489.078 8.504c0 .042.034.076.076.076h3.034a.078.078 0 0 0 .048-.058l.353-1.13a.08.08 0 0 1 .07-.049l2.797-.001c.031.001.058.023.07.05l.36 1.13a.08.08 0 0 0 .049.058H9.92a.074.074 0 0 0 .076-.074c0-.014-2.6-8.396-2.6-8.396" fill="#FFF"/></g><g transform="translate(23.36 22.193)"><mask id="d" fill="#fff"><use xlink:href="#c"/></mask><path d="M5.478 3.531l-1.863.001s-.05-.014-.05-.07l-.002-.942c0-.056.05-.07.05-.07h1.71c.198 0 .6.099.6.558 0 .46-.445.523-.445.523m8.938-.728h4.223V.033h-5.43c-.51 0-1.223.26-1.633.565-.41.303-1.003.996-1.003 1.95 0 .955.58 1.698.58 1.698.296.367 1.044 1.135 1.044 1.135a.102.102 0 0 1-.076.172H7.937c-.509-.002-.544-.205-.544-.233 0-.052.064-.085.064-.085.19-.092.579-.396.579-.396.827-.643.926-1.527.926-2 0-.474-.07-1.314-.919-2.049C7.195.055 6.121.034 6.121.034H.153V8.53c0 .028.024.05.052.05h3.323V6.196c0-.043.063 0 .063 0l1.732 1.739c.614.622 1.632.643 1.632.643h6.543a2.624 2.624 0 0 0 1.908-.778c.17-.17.735-.806.735-1.86 0-1.053-.48-1.592-.685-1.84a43.63 43.63 0 0 0-1.065-1.153.081.081 0 0 1-.03-.063c0-.037.021-.071.055-.082" fill="#FFF" mask="url(#d)"/></g><path d="M11.355 30.772c.022 0 .038-.016.045-.04 0 0 2.571-8.448 2.571-8.456 0-.023-.014-.048-.036-.05h-3.168c-.017 0-.026.013-.03.03l-.655 2.197c-.005.019-.014.03-.03.03s-.03-.015-.032-.03l-.686-2.199c-.003-.014-.014-.028-.03-.028h-3.5a.031.031 0 0 0-.022.02l-.616 2.207c-.003.018-.013.03-.03.03a.03.03 0 0 1-.029-.026l-.652-2.205a.03.03 0 0 0-.026-.027H1.05a.05.05 0 0 0-.05.05l.002.015 2.609 8.442c.007.024.022.04.045.04l2.805.001c.017-.001.034-.021.04-.04l.975-3.143c.006-.019.014-.03.03-.03.017 0 .026.013.03.03l.953 3.155a.04.04 0 0 0 .038.028h2.828" fill="#FFF"/><g transform="translate(1 13)"><mask id="f" fill="#fff"><use xlink:href="#e"/></mask><path d="M7.914.046c-.508 0-1.222.261-1.632.565-.41.304-1.003.997-1.003 1.952 0 .954.579 1.696.579 1.696.297.368 1.045 1.14 1.045 1.14a.103.103 0 0 1-.077.173H0v3.02h8.204a2.624 2.624 0 0 0 1.908-.777c.17-.17.735-.806.735-1.859s-.48-1.598-.686-1.845c-.183-.222-.913-.99-1.065-1.15a.082.082 0 0 1-.03-.062c0-.037.022-.072.056-.082h3.95v5.776h3.039V2.83H19.8V.046H7.914z" fill="#FFF" mask="url(#f)"/></g><g transform="translate(29.945 13)"><mask id="h" fill="#fff"><use xlink:href="#g"/></mask><path d="M5.468 3.545H3.604s-.05-.013-.05-.07l-.001-.94c0-.057.05-.071.05-.071h1.71c.197 0 .6.098.6.558 0 .46-.445.523-.445.523zm2.46 2.022c-.51-.002-.545-.205-.545-.233 0-.052.063-.085.063-.085.191-.092.58-.396.58-.396.827-.643.926-1.527.926-2 0-.474-.071-1.314-.919-2.05C7.185.07 6.111.047 6.111.047H.143v8.498c0 .028.024.049.052.049h3.322V6.21c0-.042.064 0 .064 0l1.732 1.74c.614.622 1.632.643 1.632.643h5.109V5.567H7.927z" fill="#FFF" mask="url(#h)"/></g><g transform="translate(19.53 13)"><mask id="j" fill="#fff"><use xlink:href="#i"/></mask><path d="M5.71 5.031H4.46c-.046 0-.076-.05-.076-.097 0-.018.666-2.162.666-2.162.023-.08.03-.083.035-.083.005 0 .012.002.035.083 0 0 .666 2.144.666 2.162 0 .047-.03.097-.076.097M7.393.121a.105.105 0 0 0-.096-.076h-4.59a.104.104 0 0 0-.096.075S.077 8.502.077 8.517c0 .042.034.076.075.076h3.034a.08.08 0 0 0 .048-.058l.353-1.13a.08.08 0 0 1 .07-.049h2.798a.08.08 0 0 1 .069.05l.36 1.13a.08.08 0 0 0 .05.057h2.984a.074.074 0 0 0 .076-.075C9.994 8.505 7.393.12 7.393.12" fill="#FFF" mask="url(#j)"/></g></g></svg>