<svg xmlns="http://www.w3.org/2000/svg" viewBox="0 0 64 64">
    <path d="M51.5691417,19.4518855 C44.5329963,8.75106205 30.154608,5.77976993 19.4532791,12.8151466 C8.75195018,19.8505232 5.77962514,34.228698 12.814233,44.9305323 C19.8488408,55.6323666 34.226802,58.6057246 44.9291417,51.5718855 C50.0695712,48.1934697 53.6571426,42.9111516 54.9024253,36.8872841 C56.147708,30.8634166 54.9486653,24.5915868 51.5691417,19.4518855 Z M45.3891417,26.6518855 C45.3210967,26.9186285 45.1748293,27.158925 44.9691417,27.3418855 L32.3191417,39.9918855 C32.2788492,40.0476193 32.2354471,40.1010373 32.1891417,40.1518855 L30.6991417,41.6418855 L30.4891417,41.8218855 C30.2186663,42.0749937 29.8594501,42.2114959 29.4891417,42.2018855 C29.0759324,42.2109412 28.6775262,42.0479569 28.3891417,41.7518855 L21.0791417,34.2018855 C20.5075168,33.5876346 20.5075168,32.6361365 21.0791417,32.0218855 L22.5691417,30.5318855 C22.8568272,30.2252477 23.2586782,30.0514743 23.6791417,30.0518855 C24.08412,30.0399929 24.4743911,30.2041256 24.7491417,30.5018855 L29.5991417,35.3418855 L41.2991417,23.6418855 C41.9030526,23.0445498 42.8752308,23.0445498 43.4791417,23.6418855 L44.9691417,25.1318855 C45.4034656,25.5071089 45.5691972,26.1068994 45.3891417,26.6518855 L45.3891417,26.6518855 Z"/>
</svg>