<svg><g id="wand"><path d="m24.31724,39.51219l-6.52544,6.53875a2.66344,2.66344 0 0 0 3.76877,3.76877l6.52544,-6.53875l-3.76877,-3.76877z" /><path d="m47.94198,19.7228a2.66344,2.66344 0 0 0 -3.78209,0l-17.07267,17.0194l3.78209,3.76877l17.07267,-17.0194a2.66344,2.66344 0 0 0 0,-3.76877z" /><polygon points="40.01823855364091,5.553279935395949 41.00371490807811,7.337787327397564 42.77490223738823,8.29662673152393 41.00371490807811,9.268783658284065 40.01823855364091,11.03997352765191 39.05939978452898,9.268783658284065 37.28820991516113,8.29662673152393 39.05939978452898,7.337787327397564 40.01823855364091,5.553279935395949 " /><polygon points="32.121130515971345,15.301482978235981 33.612657490145466,18.031512886744622 36.31605362341543,19.496407355708925 33.612657490145466,20.987935599911907 32.121130515971345,23.704646715757917 30.65623604700704,20.987935599911907 27.92620486846954,19.496407355708925 30.65623604700704,18.031512886744622 32.121130515971345,15.301482978235981 " /></g></svg>