<svg viewBox="0 0 44 44" xmlns="http://www.w3.org/2000/svg" xmlns:xlink="http://www.w3.org/1999/xlink">
  <defs>
    <path id="a" d="M.825.483h22.543v33.67H.825z"/>
    <path id="c" d="M.841.536h15.094v9.132H.84z"/>
    <path id="e" d="M0 .06h13.917v14.13H0z"/>
  </defs>
  <g fill="none" fill-rule="evenodd">
    <rect fill="#1A426A" width="44" height="44" rx="9"/>
    <g transform="translate(6.846 7.466)">
      <mask id="b" fill="#fff">
        <use xlink:href="#a"/>
      </mask>
      <path d="M18.16 8.64c0 .07-.002.122 0 .175.013.417.022.835.041 1.253.038.831.08 1.662.122 2.493.01.197.02.394.027.59.026.606.051 1.212.074 1.817.011.298.016.596.023.894a.31.31 0 0 0 .047.177c.209.3.385.622.569.937.159.275.318.549.482.82.07.115.15.224.23.332.037.05.084.093.13.135.052.047.11.05.172.011.238-.147.412-.343.486-.62.055-.209.081-.424.085-.64.007-.356.012-.712.004-1.068-.013-.558-.036-1.116-.055-1.672l-.04-1.24-.074-2.091-.067-1.99a.67.67 0 0 0-.01-.115c-.016-.08-.054-.113-.137-.124-.038-.006-.076-.005-.115-.007l-1.846-.068h-.148zM13.261.482c.034.048.041.096.001.144-.03.038-.059.077-.09.113l-.66.766c-.055.065-.108.134-.163.2a.176.176 0 0 0-.046.134v.058l-.02 7.678.002.253c.036 0 .064.006.09-.001a8.642 8.642 0 0 1 1.288-.24c.244-.03.489-.05.733-.068.24-.018.48-.026.72-.04.048-.001.095-.008.149-.012.003-.035.01-.062.008-.089-.023-.22-.05-.44-.074-.66a.496.496 0 0 0-.184-.346c-.14-.117-.282-.233-.422-.351-.19-.162-.38-.326-.568-.49-.039-.034-.085-.063-.104-.127.022-.008.042-.018.064-.02.37-.021.74-.04 1.11-.062.388-.023.777-.05 1.166-.074.35-.023.7-.044 1.051-.068l1.18-.077c.313-.02.625-.042.937-.06l1.254-.069c.043-.002.086 0 .13-.004.095-.006.169.026.217.11.017.03.04.056.057.084.346.522.69 1.042 1.037 1.563.335.505.669 1.012 1.009 1.514.122.18.191.374.196.592.022 1.016.056 2.03.03 3.045-.01.385-.044.768-.073 1.153-.039.537-.113 1.07-.185 1.605a43.36 43.36 0 0 1-.113.784 2.28 2.28 0 0 1-.07.31 2.868 2.868 0 0 1-.323.69 1.72 1.72 0 0 1-.458.477c-.125.09-.257.17-.398.232a7.388 7.388 0 0 1-1.56.506.87.87 0 0 1-.1.015.318.318 0 0 1-.292-.126c-.036-.045-.064-.095-.094-.144l-1.008-1.667c-.025-.04-.053-.077-.079-.114-.046.019-.033.052-.034.078l-.01.75c-.021.953-.049 1.905-.062 2.858-.01.706.008 1.413.04 2.12l.053 1.024c.002.04 0 .08 0 .126-.053-.022-.05-.067-.06-.1-.114-.333-.219-.668-.338-.998-.074-.208-.165-.41-.254-.613-.03-.069-.078-.133-.121-.194-.025-.035-.06-.066-.12-.053-.036.033-.045.085-.05.136-.011.12-.024.24-.03.36a28.975 28.975 0 0 0-.001 1.746c.016.756.038 1.51.057 2.266.007.284.015.567.02.85.002.043 0 .084-.002.147-.029-.025-.044-.033-.053-.046-.063-.108-.122-.219-.19-.324a6.605 6.605 0 0 0-.272-.407.855.855 0 0 0-.183-.182c-.143-.102-.226-.087-.271.092a1.925 1.925 0 0 0-.056.326c-.02.292-.038.586-.045.88-.01.442-.012.884-.013 1.327 0 .597-.028 1.193-.047 1.79-.017.494-.03.99-.046 1.485l-.03 1.053c0 .019-.004.038-.006.057-.038-.001-.036-.03-.038-.051l-.064-.69-.105-1.091-.068-.718-.106-1.12c-.034-.35-.065-.7-.098-1.05-.034-.359-.07-.718-.103-1.077l-.069-.733-.104-1.091-.068-.733c-.036-.369-.072-.738-.106-1.107l-.098-1.048a4339.696 4339.696 0 0 0-.172-1.81l-.105-1.105-.066-.69c-.017-.182-.035-.364-.051-.547-.003-.026 0-.054 0-.081.044-.005.05.03.063.052.104.18.203.361.31.537.081.13.17.258.26.381.045.062.101.116.155.171.018.02.047.028.07.042.037-.04.027-.08.023-.116-.02-.186-.039-.373-.067-.558-.19-1.25-.43-2.492-.673-3.733l-.169-.863c-.004-.024-.004-.047-.008-.09.037.03.063.048.086.07.104.1.204.204.31.302.053.049.111.092.171.132a.528.528 0 0 0 .115.06c.066.026.11.005.138-.062a.25.25 0 0 0 .019-.069c.009-.066.022-.133.023-.2.002-.154.006-.308-.006-.462-.028-.35-.062-.7-.1-1.048-.048-.459-.103-.918-.156-1.376l-.13-1.161c-.034-.302-.065-.604-.098-.904l-.055-.488c-.002-.018-.009-.036-.015-.064-.029 0-.057-.004-.083 0a9.679 9.679 0 0 0-1.019.264c-.497.15-.986.325-1.473.504a.507.507 0 0 0-.324.343c-.038.12-.051.245-.056.37-.003.067-.002.135-.002.202V21.68c0 .27.008.54.054.805.08.457.232.885.543 1.239.108.123.23.233.35.345.076.072.161.136.238.209.045.042.089.09.119.142.057.097.026.178-.076.223a.483.483 0 0 1-.297.022 3.505 3.505 0 0 1-.266-.067c-.25-.069-.497-.153-.754-.194-.109-.017-.219-.035-.33-.04a34.349 34.349 0 0 0-.936-.028c-.448-.008-.894.027-1.34.069-.244.022-.49.026-.735.035a.524.524 0 0 1-.17-.026c-.083-.024-.112-.088-.085-.168a.446.446 0 0 1 .158-.22c.05-.038.102-.07.153-.109.084-.062.17-.125.251-.193.172-.144.303-.32.403-.522.16-.32.27-.658.346-1.007.08-.363.117-.73.117-1.102l.007-7.867-.001-.144a.307.307 0 0 0-.01-.072c-.015-.06-.064-.086-.12-.062a.728.728 0 0 0-.114.063c-.12.08-.238.163-.357.246-.07.05-.142.1-.21.152-.537.423-1.144.724-1.766.998-.225.1-.455.182-.698.228-.031.006-.062.02-.1.035l-.002.19v6.495c0 .106 0 .211-.002.318a.58.58 0 0 0 .115.365c.069.092.139.184.215.271.135.157.275.309.412.464.034.04.064.084.09.128.02.032-.01.07-.048.068-.028-.004-.056-.012-.084-.018a18.915 18.915 0 0 0-1.399-.286 6.148 6.148 0 0 0-.66-.065c-.37-.02-.74-.03-1.11-.045-.211-.008-.423-.012-.635-.021a1.284 1.284 0 0 1-.2-.026c-.052-.01-.068-.057-.037-.098a.663.663 0 0 1 .08-.083l.779-.689.065-.056a.497.497 0 0 0 .184-.363c.004-.058.006-.116.006-.173v-6.222c-.027-.056-.071-.068-.11-.086-.166-.075-.333-.15-.499-.227a9.458 9.458 0 0 1-1.385-.772 5.526 5.526 0 0 1-1.107-.985c-.168-.2-.317-.411-.43-.647a1.642 1.642 0 0 1-.146-.437c-.049-.292.063-.507.337-.63.316-.14.647-.243.988-.308.209-.04.419-.062.631-.07.027-.001.055.004.079.005.016.036-.013.037-.024.048-.01.01-.025.015-.037.023a7.557 7.557 0 0 0-.843.606c-.078.063-.155.13-.226.201a.523.523 0 0 0-.104.137c-.053.102-.035.191.046.277l.042.04c.353.32.712.632 1.096.914.167.122.34.24.515.347.305.188.64.31.985.4.05.012.102.027.154.011.031-.057.02-.116.021-.173l.004-1.674c.005-2.766.01-5.533.013-8.3 0-.13-.01-.26-.023-.388a.601.601 0 0 0-.16-.348 1.892 1.892 0 0 0-.162-.164c-.105-.093-.212-.182-.315-.275a3.33 3.33 0 0 1-.167-.16.538.538 0 0 1-.069-.092c-.023-.04-.008-.08.037-.088.062-.01.125-.015.186-.014.168.002.337.013.505.013h2.8c.063 0 .126 0 .188.006.06.006.083.051.053.103a.735.735 0 0 1-.068.094l-.31.361c-.059.07-.118.139-.173.213a.458.458 0 0 0-.094.296v10.205c0 .066 0 .134.002.21.037-.003.066-.001.09-.01.206-.07.402-.161.593-.265a6.45 6.45 0 0 0 .908-.61c.208-.165.411-.334.615-.503.333-.276.664-.556.998-.831.052-.044.086-.089.078-.159-.003-.033 0-.067 0-.1v-9.08c0-.203.001-.204-.137-.357-.12-.133-.242-.262-.362-.394a7.468 7.468 0 0 1-.2-.228.709.709 0 0 1-.08-.12C9.2.748 9.232.694 9.336.684h.043c.481-.008.962-.017 1.443-.023.5-.005 1-.026 1.499-.066.245-.02.488-.052.731-.08.033-.004.063-.02.093-.031h.116z" fill="#FFF"/>
    </g>
    <g transform="translate(24.872 8.415)">
      <mask id="d" fill="#fff">
        <use xlink:href="#c"/>
      </mask>
      <path d="M3.83 4.295c.025-.011.05-.021.074-.035a.266.266 0 0 0 .057-.042.046.046 0 0 0 .01-.037.052.052 0 0 0-.028-.027c-.045-.015-.085.005-.116.034-.03.029-.024.067.003.107zm.782-3.02c-.077.019-.097.08-.105.144-.013.085.018.154.106.237-.07-.14-.085-.259-.001-.38zm-1.791.78a.378.378 0 0 0-.058-.248.537.537 0 0 0-.085.177l.143.071zm3.432-.639l-.055-.173a2.667 2.667 0 0 0-.107-.017c-.025-.004-.047 0-.057.034.047.072.085.155.22.156zm8.23 4.578c-.023.016-.03.019-.03.021-.013.08.011.151.057.214.014.02.047.03.073.038.01.003.03-.006.037-.015.008-.01.011-.03.006-.04a9.448 9.448 0 0 0-.144-.218zM5.09 1.72c.044-.012.079-.022.115-.03l.134-.024a.441.441 0 0 0-.174-.158l-.075.212zm.576.164l-.14-.206a.655.655 0 0 0-.084-.098c-.018-.015-.037-.033-.058-.008.015.159.115.247.282.312zm9.23 4.89c.039-.046.042-.086.018-.127a4.52 4.52 0 0 0-.115-.182c-.01-.014-.018-.035-.042-.027-.037.126-.008.2.139.336zM12.995 4.48c.027-.122.032-.132.011-.153-.06-.066-.117-.135-.212-.175-.005.157.083.242.2.328zm.175.701c.003-.003.008-.007.009-.011a1.793 1.793 0 0 0-.044-.409c-.006-.033-.031-.058-.072-.063-.003.013-.01.027-.008.04.012.075.027.15.037.225.009.057.012.114.021.17.005.029.018.056.057.048zm.958.388c-.021.2.005.258.154.347.047-.06.058-.117.009-.18-.038-.048-.076-.097-.116-.145-.008-.01-.023-.011-.047-.022zm-.162-.001c.006-.073.061-.13.029-.2a.298.298 0 0 0-.16-.137.377.377 0 0 0 .016.264c.018.041.049.068.115.073zM11.22 2.982c-.043.096-.006.173.036.248.031.058.069.113.155.117-.007-.05-.017-.091-.02-.133-.003-.043 0-.086 0-.132a.366.366 0 0 0-.171-.1zM1.64 4.905c.002.024 0 .04.006.049.106.138.25.203.423.202.01 0 .021-.017.034-.029-.037-.058-.067-.123-.147-.123a.51.51 0 0 1-.259-.077c-.015-.008-.032-.012-.057-.022zM11.83 3.55c.013-.055.036-.108.018-.163-.14-.116-.168-.133-.26-.156-.02.09.03.156.071.224.038.06.09.097.172.095zm.45.166a.816.816 0 0 0-.264-.199c-.029.09.011.156.05.22.055.085.086.107.18.13l.034-.151zm.356.286c-.108-.114-.132-.13-.217-.157-.004.018-.01.036-.01.054 0 .13.068.227.16.307.015.013.04.013.067.022v-.226zm-5.463 2.14c-.036.087-.009.156.032.222.039.062.08.128.168.146.015-.078.03-.146.043-.22a.647.647 0 0 0-.243-.147zm-.478-4.579l-.012-.233c-.126-.046-.19-.053-.264-.03.027.176.099.247.276.263zM1.853 4.79c-.068-.068-.128-.107-.182-.151-.052-.044-.104-.086-.153-.131-.051-.05-.099-.104-.149-.155-.047-.05-.074-.117-.14-.164.025.152.12.291.305.441.087.07.17.152.319.16zm4.141.52c-.06.06-.053.125-.036.19.02.07.058.128.11.18.017.017.034.034.056.018l.077-.235c-.063-.06-.13-.109-.207-.153zm.961.976l.03-.282a.783.783 0 0 0-.223-.142c-.04.09-.041.116-.01.198.04.107.103.177.203.226zm6.519-1.483c-.04.112-.026.2.017.28a.38.38 0 0 0 .172.168l.068-.184c-.075-.094-.145-.187-.257-.264zm-8.568.268c-.03-.045-.075-.042-.115-.053-.02-.005-.038-.022-.06-.035l.068-.152c.017-.034.038-.067.052-.102.004-.01-.004-.03-.013-.037-.009-.006-.029-.005-.04 0a.12.12 0 0 0-.04.039c-.07.1-.156.183-.253.255-.014.01-.02.027-.034.05.15.048.29.052.435.035zm1.467.521c-.054.108-.057.139-.027.228.038.11.1.181.208.23a.662.662 0 0 1 .024-.321c-.066-.053-.124-.102-.205-.137zm2.242-3.805c-.07.122-.072.203-.012.304.044.075.122.115.221.113-.013-.055-.037-.109-.039-.164-.003-.06.015-.12.024-.185a.467.467 0 0 0-.194-.068zm-1.11-.306c-.043-.012-.089-.027-.134-.036-.055-.012-.084.009-.093.063-.02.112.045.268.144.324.047.028.1.054.163.045-.03-.067-.064-.127-.078-.19-.012-.063-.002-.132-.002-.206zM5.55 4.954a.239.239 0 0 0-.028.232.406.406 0 0 0 .211.244l.09-.25c-.076-.081-.168-.148-.273-.226zM4.2 4.49l-.015.006c-.011.01-.023.018-.032.029a.555.555 0 0 1-.347.184c-.056.008-.113.014-.17.02-.02.003-.037.005-.037.03.117.072.161.087.236.067.153-.043.297-.106.43-.191.021-.013.034-.04.049-.06-.03-.05-.065-.081-.114-.085zm4.201-2.763c-.043-.04-.1-.045-.155-.06-.067-.016-.096.006-.108.076a.352.352 0 0 0 .198.363c.023.01.05.03.076-.001-.053-.163-.053-.163-.01-.378zm-.393.28c-.074-.188-.074-.188-.045-.408a.572.572 0 0 0-.226-.06c-.052.09-.059.137-.025.22.052.126.145.21.296.249zM4.623 4.71c-.066-.028-.11-.08-.185-.083-.041.05-.077.104-.122.145-.046.04-.103.07-.155.102-.05.032-.12.018-.18.07.143.054.268.074.388-.02.046-.035.098-.061.144-.096.04-.026.083-.049.11-.118zm.292-.139c-.058-.032-.09-.05-.123-.065a1.904 1.904 0 0 1-.689-.51c-.015-.018-.03-.037-.047-.054-.024-.023-.055-.025-.078-.008-.03.023-.038.062-.014.089a.635.635 0 0 0 .093.09c.175.133.353.264.527.399.09.069.187.093.331.06zm5.559-.466c.004.016.002.033.01.044.009.014.025.032.04.034.013.001.035-.015.041-.028a.519.519 0 0 0 .03-.111c.038-.222.076-.443.112-.666.016-.094.027-.19.04-.285.003-.03-.003-.058-.038-.067-.03-.009-.048.013-.057.063l-.16.919-.018.097zm-6.463-.856c.035-.025.06-.04.08-.058.086-.076.175-.15.258-.229.12-.112.25-.207.39-.295.165-.105.33-.212.493-.32a.587.587 0 0 0 .102-.08c.027-.028.044-.064.01-.11-.023.011-.05.019-.073.034l-1.197.82c-.095.066-.099.086-.063.238zm7.07 1.398c.017-.035.032-.054.037-.076.094-.382.148-.77.195-1.16.002-.014-.002-.028-.004-.043L11.3 3.35a3.427 3.427 0 0 1-.094-.025c-.01.035-.023.06-.028.088-.065.348-.125.697-.193 1.045-.016.086.016.135.096.19zM5.593 2.361c-.056-.007-.084.031-.117.057-.295.22-.582.453-.9.643-.012.008-.026.014-.035.026-.014.017-.036.037-.038.057-.006.065-.05.1-.098.133-.044.03-.088.058-.13.09-.037.025-.045.06-.025.083.026.028.055.016.077-.002.074-.06.151-.12.218-.189.066-.07.139-.13.219-.185l.487-.33c.088-.059.174-.12.263-.176.08-.052.1-.12.079-.207zm-.23-.493c-.042-.07-.053-.08-.097-.057-.09.046-.18.093-.263.149-.333.22-.64.475-.937.742a.524.524 0 0 0-.06.061c-.044.052-.042.09.003.169.028-.02.056-.036.081-.058.072-.062.147-.124.215-.192.245-.247.523-.452.813-.642l.18-.12c.023-.015.043-.035.064-.052zm.01 2.47c-.02-.016-.034-.03-.051-.037l-.402-.193c-.073-.035-.149-.068-.218-.109-.119-.07-.234-.15-.351-.224a.911.911 0 0 1-.287-.277c-.015-.022-.036-.04-.056-.064-.06.129-.061.15.017.222.183.17.37.334.577.474a.41.41 0 0 0 .13.06c.174.043.331.122.482.215.025.016.05.028.07.04.052-.019.08-.048.089-.108zm.773 1.499c-.009.048-.019.085-.022.122a10.07 10.07 0 0 0-.028 1.31c.007.153.035.306.055.458.004.031.006.067.053.085.002-.036.006-.067.006-.1-.01-.379.004-.758.029-1.137.008-.134.024-.267.043-.401.025-.183.028-.183-.095-.315-.006-.007-.016-.01-.041-.022zM9.803 2.24a.175.175 0 0 0-.032.164c.016.067.044.129.102.168.078.053.098.125.086.213-.007.043-.007.086-.014.128l-.151.807c-.008.042-.02.084-.027.127a.144.144 0 0 0 .03.121c.015.019.052.02.061-.002a.728.728 0 0 0 .04-.107c.027-.107.057-.214.076-.322.036-.204.07-.408.096-.612a.565.565 0 0 0-.031-.31.256.256 0 0 1-.007-.185c.008-.026.01-.054.015-.084a.743.743 0 0 0-.244-.106zm1.23.612c-.12-.061-.216-.142-.345-.175-.004.024-.013.042-.012.06a.31.31 0 0 0 .132.244c.042.032.085.06.127.089 0 .03.003.055 0 .078-.032.184-.063.368-.098.552a16.29 16.29 0 0 1-.107.52.134.134 0 0 0 .046.142c.047.04.093.031.11-.028a.653.653 0 0 0 .023-.112c.04-.319.077-.637.114-.956.006-.043.014-.088.005-.13a.63.63 0 0 1 .006-.284zM9.027 9.467c-.047-.147-.1-.281-.134-.42a5.243 5.243 0 0 1-.137-1.515c.004-.066-.004-.117-.055-.167a.307.307 0 0 1-.097-.26c.002-.029 0-.057 0-.084-.062-.046-.117-.091-.193-.107-.03.06-.016.116.011.167.028.05.06.097.095.143.022.03.034.058.025.093-.037.152-.029.306-.017.46.035.43.076.86.117 1.29.01.105.027.21.04.313.006.035.012.067.042.089a.255.255 0 0 0 .161.054c.053 0 .106-.003.142-.056zM2.641.882a.46.46 0 0 0-.224.158c-.235.281-.418.588-.462.961-.005.041-.004.088-.053.115-.058-.005-.092-.044-.112-.095a.35.35 0 0 1-.017-.185c.021-.14.067-.27.118-.4.015-.038.05-.073.032-.12-.01.003-.02.005-.025.01-.123.147-.21.313-.244.5a.776.776 0 0 0 0 .23c.011.08.053.144.141.164a.313.313 0 0 1 .09.043c.186.12.342.1.482-.066.053-.063.099-.134.16-.185a.616.616 0 0 0 .182-.273l.076-.218c.024-.068.05-.134.08-.2.005-.015.023-.025.044-.044 0 .028.003.042 0 .055-.04.197-.04.393.002.588.027.126.07.25.104.374.03.107.062.213.088.32a.432.432 0 0 1-.007.228c-.054.18-.201.279-.384.247a.771.771 0 0 1-.203-.072 1.351 1.351 0 0 1-.345-.259 11.287 11.287 0 0 0-.346-.327.838.838 0 0 0-.255-.16.41.41 0 0 0-.323.007.435.435 0 0 0-.26.357c-.022.14-.012.279.014.417.068.352.205.68.366.999.137.272.338.49.582.668a.98.98 0 0 0 .391.177c.157.031.314.047.473.038a.948.948 0 0 0 .629-.255.283.283 0 0 1 .164-.078 1.8 1.8 0 0 0 .414-.118.451.451 0 0 0 .065-.031c.023-.016.025-.04.013-.064-.008-.015-.024-.028-.039-.046-.129.048-.247.141-.395.089-.001-.012-.006-.023-.003-.03a.51.51 0 0 1 .026-.067c.108-.235.16-.484.186-.738.036-.336.035-.673.012-1.01-.008-.105-.012-.21-.008-.316a.761.761 0 0 1 .117-.397.44.44 0 0 1 .298-.21c.057-.01.103.002.134.056a.42.42 0 0 0 .064.078c.057.056.093.07.187.078 0-.005.002-.011 0-.013a.619.619 0 0 1-.263-.35.115.115 0 0 0-.106-.085c-.086 0-.14-.081-.227-.076-.016.001-.04-.026-.05-.046a.575.575 0 0 1-.042-.152c-.016-.176.039-.231.214-.209.168.021.327.08.483.14.037.015.068.039.073.084-.022.072-.039.145-.086.21-.034.046-.028.102-.006.152a.224.224 0 0 0 .2.144c.113.009.184-.052.19-.166.002-.024-.002-.047 0-.071.001-.013.01-.027.016-.045h.107c-.008-.024-.007-.045-.017-.058-.036-.039-.07-.08-.111-.113a1.426 1.426 0 0 0-.52-.273C4.415.916 4.302.896 4.21.816 4.178.79 4.133.777 4.092.763a1.423 1.423 0 0 0-.64-.068.453.453 0 0 0-.112.025c-.03.012-.065.03-.08.057a.241.241 0 0 1-.125.109.52.52 0 0 0-.131.088.993.993 0 0 0-.34.524 1.263 1.263 0 0 1-.188.403c-.015.023-.038.039-.082.083.016-.063.02-.095.032-.124.048-.135.097-.271.15-.405.035-.085.073-.168.12-.246.07-.12.16-.228.264-.322.023-.021.06-.035.056-.084a.338.338 0 0 0-.223.033c.005.115-.062.198-.126.281-.027.035-.05.071-.074.107-.1.154-.192.312-.24.49-.033.121-.05.246-.076.368-.004.02-.017.04-.028.064-.026-.01-.043-.018-.06-.026-.02-.012-.039-.027-.06-.039-.016-.01-.033-.016-.044-.022-.018-.057-.002-.102.009-.15.066-.28.184-.535.365-.76.049-.06.098-.12.144-.18.013-.017.018-.04.038-.087zM15.935 8.6c-.021.008-.045.026-.064.022-.019-.003-.04-.025-.049-.045-.016-.034-.024-.072-.036-.11a15.518 15.518 0 0 0-.096-.272c-.006-.017-.019-.03-.034-.055l-.118.162c-.02-.028-.037-.044-.044-.063a.302.302 0 0 1-.006-.198c.013-.047.03-.092.044-.138.018-.055.004-.1-.044-.147-.079.088-.078.216-.178.288-.015-.023-.03-.041-.037-.062a.402.402 0 0 1 .017-.268c.027-.072.058-.142.09-.219a5.67 5.67 0 0 0-.274-.52c-.006-.01-.02-.014-.036-.025-.018.068.011.118.037.169.036.067.076.133.116.199.03.046.041.093.028.15-.018.074-.026.152-.04.227a.173.173 0 0 1-.188.14c-.015-.002-.034-.022-.038-.037a.236.236 0 0 1-.006-.085c.015-.12.029-.24.046-.358.009-.062.025-.122.037-.186-.031-.05-.077-.083-.124-.12-.032.049-.032.097-.04.144-.02.133-.038.265-.06.398a.886.886 0 0 1-.037.14.063.063 0 0 1-.066.045c-.075-.007-.142-.073-.133-.144.003-.028.01-.056.014-.085l.13-.768c.003-.018 0-.037 0-.062l-.098-.075c-.04.041-.033.087-.037.129-.022.23-.063.457-.12.68-.013.056-.018.115-.066.157-.052.002-.08-.032-.104-.067-.024-.034-.018-.071-.01-.11.039-.174.08-.347.108-.523.028-.17.044-.343.039-.517a.451.451 0 0 0-.015-.114c-.007-.024-.032-.043-.049-.065-.048.037-.036.083-.038.124A4.416 4.416 0 0 1 14.17 7.4c-.011.035-.031.068-.047.1-.071.01-.104-.035-.137-.075-.03-.036-.031-.078-.02-.123.037-.159.077-.317.107-.477.053-.28.082-.562.074-.848 0-.065-.023-.11-.083-.135-.008-.004-.019 0-.032 0-.01.14-.018.278-.03.416a6.59 6.59 0 0 1-.148.955c-.012.055-.017.114-.067.162-.063-.002-.099-.046-.132-.092-.027-.04-.022-.08-.01-.123a6.267 6.267 0 0 0 .216-1.481c0-.076-.034-.115-.111-.14-.007.027-.015.048-.017.068-.027.327-.05.652-.08.979-.016.18-.04.362-.065.543-.016.118-.065.143-.166.088a.25.25 0 0 0-.122-.034c-.108-.002-.136-.04-.12-.143.027-.176.059-.351.083-.528.055-.395.103-.79.113-1.19.003-.12.006-.24-.052-.353-.036-.071-.027-.152.002-.225.028-.07.007-.12-.047-.164-.032-.027-.055-.066-.105-.075-.026.068-.003.129.03.178a.524.524 0 0 1 .075.303c.003.404-.032.807-.076 1.209-.029.258-.064.515-.096.773a.692.692 0 0 1-.017.099c-.02.07-.06.092-.13.072-.015-.004-.029-.008-.042-.014-.088-.038-.115-.085-.099-.18.022-.13.05-.257.069-.385.093-.647.097-1.294-.043-1.936-.013-.06-.016-.124-.071-.19-.005.033-.013.048-.01.062.077.363.064.728.037 1.092a9.252 9.252 0 0 1-.157 1.144c-.014.07-.03.141-.051.21-.018.058-.061.073-.128.053-.06-.018-.08-.049-.069-.107.039-.207.083-.414.116-.623.04-.252.074-.505.08-.76.001-.038 0-.075-.018-.117-.006.017-.015.034-.018.053a6.432 6.432 0 0 1-.23 1.041c-.035.11-.082.215-.125.322a.493.493 0 0 1-.06.098c-.03.041-.08.047-.13.02-.042-.023-.056-.058-.044-.109.068-.27.14-.54.2-.812a8.25 8.25 0 0 0 .179-1.285c.01-.183.01-.366-.015-.547-.006-.043-.01-.087-.06-.12-.006.034-.016.065-.02.096-.013.164-.02.328-.038.489-.04.359-.082.717-.133 1.074-.045.314-.104.626-.16.94a.917.917 0 0 1-.049.164c-.018.048-.06.058-.107.034-.077-.04-.102-.093-.081-.176.153-.602.243-1.216.33-1.83.037-.262.067-.525.1-.788.006-.056.006-.113.009-.166-.04-.044-.084-.056-.141-.055-.005.04-.013.077-.014.115a16.402 16.402 0 0 1-.224 1.949c-.037.217-.09.432-.139.648-.012.056-.037.109-.06.162-.015.032-.044.048-.082.047a.375.375 0 0 1-.191-.058c-.084-.053-.105-.11-.082-.208.148-.622.258-1.252.362-1.883.05-.305.1-.608.12-.916.002-.047 0-.095 0-.149l-.114-.04c-.012.063-.023.114-.029.165-.067.593-.19 1.178-.313 1.76-.056.264-.108.529-.163.792-.009.042-.015.086-.032.125a.247.247 0 0 1-.069.09c-.044.038-.1.036-.146-.001-.025-.022-.044-.051-.059-.07-.076.005-.136.014-.198.013-.066 0-.085-.071-.138-.107-.125.03-.253.048-.281-.14-.044.01-.075.02-.108.024-.119.014-.193-.06-.175-.181.006-.043.02-.085.031-.126a22.35 22.35 0 0 0 .537-2.377 6.49 6.49 0 0 0 .056-.385c.01-.09.012-.182.014-.273.002-.077 0-.153 0-.243a.58.58 0 0 0-.238-.118c-.053.13-.05.137.104.384a2.229 2.229 0 0 0-.07.037c-.01.165-.015.329-.03.491a10.262 10.262 0 0 1-.38 1.995c-.028.091-.066.18-.1.27a.45.45 0 0 1-.039.077c-.026.043-.067.05-.112.021a.274.274 0 0 1-.122-.203c-.006-.042-.005-.085-.008-.133-.06-.02-.12-.038-.176-.062-.066-.028-.078-.058-.057-.125.014-.046.032-.09.05-.143-.026-.024-.057-.047-.081-.075-.042-.046-.057-.097-.028-.158.176-.362.271-.75.373-1.136.075-.288.136-.58.176-.875.008-.057.009-.115.014-.176-.164-.12-.236-.268-.151-.467-.054-.06-.122-.075-.196-.092-.058.084-.045.165-.011.247.033.084.1.138.177.18.017.128.007.247-.008.366-.043.35-.114.693-.208 1.03-.054.196-.116.388-.177.58-.016.05-.029.103-.085.135a.33.33 0 0 1-.18-.24c-.01-.044.01-.096.026-.14.107-.294.19-.595.247-.903.045-.237.077-.475.082-.716.002-.106.003-.21-.064-.303-.042-.062-.04-.138-.025-.211.007-.031.017-.063.026-.099a.386.386 0 0 0-.189-.074c-.066.06-.055.134-.032.201a.391.391 0 0 0 .087.147c.064.061.075.129.065.21-.02.152-.033.306-.055.457a9.493 9.493 0 0 1-.17.937c-.022.083-.05.166-.079.247-.01.03-.034.054-.054.088a.301.301 0 0 1-.17-.175c-.02-.047-.001-.093.009-.14.076-.318.154-.635.222-.955.035-.17.053-.342.076-.513.006-.046.015-.096-.015-.138-.036-.005-.038.021-.04.044-.038.437-.131.865-.236 1.29a1.75 1.75 0 0 1-.053.165c-.007.021-.024.038-.037.056-.149-.074-.21-.193-.176-.34.08-.346.148-.696.193-1.05.006-.056.011-.114.015-.172a.115.115 0 0 0-.01-.054c-.006-.012-.024-.022-.036-.021-.011 0-.028.013-.031.025-.007.021-.007.046-.009.07a8.505 8.505 0 0 1-.147 1.027.949.949 0 0 1-.033.126c-.007.021-.025.038-.037.055-.165-.058-.224-.16-.2-.32.052-.323.1-.645.147-.97a.366.366 0 0 0 .002-.085c-.001-.021-.014-.026-.072-.029-.042.351-.068.705-.159 1.048-.066.01-.1-.028-.128-.065a.15.15 0 0 0-.108-.062c-.112-.015-.14-.098-.121-.188.052-.24.1-.48.147-.72.01-.047.013-.094.02-.148l-.102-.03c-.007.018-.017.032-.018.044-.014.197-.05.392-.095.583-.015.064-.02.134-.078.185-.053.007-.088-.024-.121-.061a.134.134 0 0 1-.031-.107c.016-.168.035-.335.05-.502a3.09 3.09 0 0 0 .01-.186c0-.006-.011-.015-.018-.017-.007-.001-.021.003-.023.01a.286.286 0 0 0-.02.066c-.026.177-.051.352-.079.528-.005.031-.02.062-.033.095-.086-.028-.11-.084-.104-.159.016-.172.03-.345.045-.518.007-.073.002-.137-.048-.202a.263.263 0 0 1-.047-.233c.006-.022.005-.045.009-.077-.052-.012-.097-.026-.143-.035-.039-.007-.066.014-.074.051a.29.29 0 0 0 .12.275c.03.017.06.03.1.05.015.162-.02.322-.04.483-.007.063-.002.136-.055.188-.145-.047-.228-.158-.22-.296.007-.095.02-.191.027-.287a.514.514 0 0 0-.003-.115c-.002-.015-.02-.027-.043-.054-.01.047-.021.078-.024.11-.007.07-.01.142-.016.215-.003.029-.017.061-.049.062a.114.114 0 0 1-.077-.025c-.065-.056-.087-.136-.097-.219-.006-.047-.003-.096-.004-.144-.003-.086-.007-.09-.12-.098-.03.107.038.204.034.305-.023.028-.048.019-.068.008a.358.358 0 0 1-.198-.283c-.007-.043-.009-.087-.013-.13-.002-.014-.004-.014-.058-.032-.032.046-.013.101-.02.151-.002.034.006.074-.029.091-.045.022-.067-.022-.093-.047a.224.224 0 0 1-.067-.17c0-.043.008-.086.011-.13-.001-.008-.005-.017-.008-.025-.036-.087-.1-.126-.194-.117-.036.003-.075-.02-.113.017.033.078.13.05.18.111.014.077.028.16.003.258-.03-.013-.053-.019-.07-.031a.28.28 0 0 1-.106-.151.165.165 0 0 0-.092-.105.37.37 0 0 1-.102-.077c-.055-.063-.12-.07-.196-.052.047.109.091.18.16.235.185.147.318.332.409.55.026.063.058.119.121.155.048.026.071.077.088.128.046.133.084.265.082.408-.001.067.004.134.008.202a.23.23 0 0 0 .049.134c.057.067.065.149.06.231a1.776 1.776 0 0 1-.027.185.711.711 0 0 0-.005.272.68.68 0 0 1-.082.474c-.04.076-.092.146-.136.22-.04.071-.083.142-.115.216-.043.1-.037.117.044.187.076.066.154.13.233.193.436.343.893.653 1.356.958.225.147.452.291.677.438a.879.879 0 0 1 .158.125c.188.202.37.405.555.608.016.018.03.038.047.061-.022.018-.052.032-.06.052a.133.133 0 0 0 .007.084c.04.1.087.194.213.224.012-.03.023-.06.036-.088.01 0 .021-.002.027.002a.429.429 0 0 1 .049.054c.114.153.228.309.345.462.046.06.065.125.068.2.01.191.021.384.038.576.018.196.051.39.107.58.032.107.07.21.131.304.012.019.02.04.027.056-.016.038-.042.037-.065.034a.328.328 0 0 1-.252-.173.789.789 0 0 1-.054-.133 4.24 4.24 0 0 1-.21-1.333c0-.087.01-.173.015-.261-.049-.034-.095-.067-.144-.098-.006-.005-.017-.001-.034-.001-.004.017-.01.034-.011.051-.009.424.005.846.082 1.265.041.219.097.432.215.624.007.012.008.027.014.047-.124.025-.212-.047-.31-.095-.117.107-.247.078-.372.02-.052-.025-.094-.062-.159-.053-.041.007-.073-.02-.086-.061-.017-.055-.038-.11-.048-.166-.049-.25-.101-.5-.137-.752a5.337 5.337 0 0 1-.066-.92c.004-.135.02-.268.028-.403.002-.043.012-.091-.005-.126-.047-.1-.068-.2-.03-.303a.65.65 0 0 0-.204-.134c-.038.016-.038.04-.034.064.018.099.045.146.163.277l-.012.41a9.23 9.23 0 0 0 .04 1.355 2.747 2.747 0 0 0 .172.772c.01.04-.013.07-.052.062a.432.432 0 0 1-.206-.097.196.196 0 0 1-.067-.124c-.036-.199-.08-.396-.108-.596a8.99 8.99 0 0 1-.06-1.541c.003-.091.015-.181.023-.273.003-.038.01-.077-.015-.111a.388.388 0 0 1-.064-.302c.002-.01-.003-.019-.006-.04l-.169-.108c-.045.024-.047.059-.045.092.005.09.041.169.102.233a.212.212 0 0 1 .059.184c-.057.52-.01 1.037.05 1.554.033.292.076.582.113.873.005.036.001.075.001.108-.026.034-.056.025-.081.012-.135-.07-.234-.168-.252-.328-.017-.148-.04-.295-.054-.444a11.69 11.69 0 0 1-.059-1.34c.005-.177.028-.355.047-.531.01-.097.013-.096-.069-.172-.042.019-.037.062-.042.097-.035.22-.04.44-.043.663-.008.418.004.837.033 1.254.01.144.023.288.034.432.002.033 0 .065 0 .104-.026.007-.05.02-.07.015-.125-.021-.206-.089-.216-.214-.013-.153-.04-.305-.05-.458a8.53 8.53 0 0 1 .027-1.485c.017-.148.047-.294.07-.442l.014-.105-.167-.127c-.014.03-.03.053-.035.078-.02.148-.042.296-.054.444-.04.543-.044 1.086-.023 1.63.005.168.017.337.023.505.002.027-.002.056-.004.084-.067.016-.106-.024-.146-.055-.043-.031-.086-.065-.095-.122a1.389 1.389 0 0 1-.021-.143c-.035-.34-.035-.682-.036-1.023-.001-.384-.003-.77.033-1.154l.025-.23.02-.186c-.042-.04-.08-.073-.13-.118-.01.036-.021.057-.023.078a14.38 14.38 0 0 0-.088 1.714c.008.318.033.634.102.945.011.051.028.103-.004.161a.29.29 0 0 1-.26-.165c-.016-.003-.031-.007-.043-.005-.097.019-.16-.03-.2-.108a.618.618 0 0 1-.057-.177 4.147 4.147 0 0 1-.052-.371 15.175 15.175 0 0 1-.059-1.903c.006-.154.029-.307.047-.46.01-.094.013-.094-.093-.145-.036.022-.039.062-.047.1-.035.183-.054.37-.058.558-.01.467.011.933.045 1.398.013.178.024.355.033.534.003.037.015.082-.027.104-.045.023-.083-.009-.119-.031-.039-.025-.057-.067-.067-.108a1.523 1.523 0 0 1-.046-.371c.004-.096-.016-.178-.096-.242-.081-.065-.107-.156-.099-.26.015-.196.023-.393.04-.59.032-.34.068-.679.104-1.018.01-.096.026-.192.035-.287.007-.073-.003-.08-.106-.103-.05.115-.059.24-.079.362a8.317 8.317 0 0 0-.09.745c-.01.124-.011.25-.02.375-.007.122.021.246-.008.38-.03-.01-.055-.011-.073-.024a.362.362 0 0 1-.177-.297 4.084 4.084 0 0 1 .034-.705c.042-.305.104-.607.195-.902.02-.069.047-.135.07-.205.008-.025.011-.053.02-.1-.035.019-.057.025-.073.039a.662.662 0 0 1-.346.13 2.233 2.233 0 0 1-.674-.05c-.118-.023-.234-.052-.352-.078a1.248 1.248 0 0 0-.641.026c-.143.045-.281.098-.413.168-.026.014-.051.029-.077.04-.168.088-.339.158-.544.1a.181.181 0 0 0 .097.117.456.456 0 0 0 .134.046.386.386 0 0 0 .198-.029c.054-.02.109-.04.16-.064a.24.24 0 0 1 .21-.004c.057.024.114.051.17.08.064.033.124.07.189.104.157.08.324.121.5.115a.573.573 0 0 0 .25-.065c.015-.007.024-.025.045-.046-.038 0-.062-.003-.084 0a1.01 1.01 0 0 1-.525-.06c-.112-.042-.22-.098-.326-.15a.29.29 0 0 1-.078-.064c-.023-.024-.017-.072.013-.088a.446.446 0 0 1 .119-.048c.187-.04.373-.027.558.018.097.024.193.055.29.082.08.02.16.04.239.056.095.021.19.02.286.002.032-.005.064-.005.097-.008 0 .058-.039.084-.067.115a.205.205 0 0 0-.054.143c-.005.11-.014.22-.024.331-.002.026-.02.05-.034.08-.126-.064-.154-.187-.212-.297-.022.003-.048 0-.067.011-.217.122-.453.117-.689.093a3.871 3.871 0 0 1-.68-.132.388.388 0 0 0-.183-.012.62.62 0 0 1-.475-.123 1.471 1.471 0 0 1-.174-.153.419.419 0 0 0-.18-.113.521.521 0 0 1-.342-.31.715.715 0 0 0-.255-.305.319.319 0 0 1-.125-.172c-.065-.22-.137-.44-.19-.664C.953 3.7.947 3.557.935 3.42A1.229 1.229 0 0 0 .9 3.192a1.327 1.327 0 0 1-.041-.585.597.597 0 0 1 .153-.32.613.613 0 0 0 .083-.118c.047-.079.09-.16.134-.239.187-.332.443-.603.74-.839a.755.755 0 0 1 .274-.154.21.21 0 0 0 .093-.063.47.47 0 0 1 .373-.158A.2.2 0 0 0 2.83.68a.798.798 0 0 1 .456-.112c.11.003.219-.01.329-.024.252-.03.49.013.68.203.04.043.086.05.141.052.25.009.5.016.75.03.467.023.93.075 1.393.141.648.093 1.287.229 1.916.41 1.304.377 2.522.938 3.628 1.731a10.14 10.14 0 0 1 2.905 3.185 9.04 9.04 0 0 1 .83 1.9c.023.073.035.15.054.223.004.013.015.024.023.035V8.6z" fill="#FFF" mask="url(#d)"/>
    </g>
    <path d="M36.279 21.776a9.62 9.62 0 0 0-1.315-4.816 12.005 12.005 0 0 0-2.075-2.632c-.246-.237-.503-.462-.753-.695a1.737 1.737 0 0 1-.203-.223.56.56 0 0 1-.106-.324.508.508 0 0 1 .69-.486c.104.039.195.101.282.17.341.275.668.565.983.87.888.863 1.658 1.82 2.278 2.893.553.955.965 1.967 1.21 3.045a10.33 10.33 0 0 1 .241 2.794 7.979 7.979 0 0 1-.33 1.899c-.262.897-.65 1.736-1.128 2.537a16.03 16.03 0 0 1-1.84 2.473A23.923 23.923 0 0 1 31.307 32a31.963 31.963 0 0 1-2.238 1.633 2.59 2.59 0 0 1-.196.12.42.42 0 0 1-.122.043.203.203 0 0 1-.097-.01c-.05-.02-.07-.074-.042-.119a.488.488 0 0 1 .09-.112c.086-.076.176-.15.268-.218.574-.43 1.136-.874 1.678-1.343.984-.852 1.9-1.77 2.714-2.788.7-.874 1.31-1.805 1.8-2.815.4-.825.707-1.683.896-2.581.099-.467.166-.937.191-1.414l.029-.62" fill="#FFF"/>
    <g transform="translate(4 23.594)">
      <mask id="f" fill="#fff">
        <use xlink:href="#e"/>
      </mask>
      <path d="M4.45.096c-.03.023-.046.04-.065.053A6.994 6.994 0 0 0 2.6 1.936a7.196 7.196 0 0 0-1.208 2.923 7.925 7.925 0 0 0-.105 1.854 10.5 10.5 0 0 0 .262 1.752c.122.523.337 1.001.634 1.445.335.5.746.929 1.21 1.311.65.536 1.37.958 2.136 1.304.898.404 1.834.691 2.802.878.562.11 1.13.182 1.7.217.573.036 1.145.03 1.717-.01.57-.04 1.14-.107 1.707-.176.096-.013.192-.021.288-.029a.903.903 0 0 1 .143.003c.012 0 .027.015.03.027.003.01-.002.034-.01.038-.046.026-.092.056-.142.07-.17.05-.34.102-.514.141-.493.111-.99.196-1.49.266-.339.047-.677.095-1.016.132-.503.053-1.007.089-1.511.102-.395.01-.79.01-1.184-.008-1.194-.053-2.362-.24-3.486-.66a7.675 7.675 0 0 1-2.505-1.51A7.32 7.32 0 0 1 .927 10.7a5.058 5.058 0 0 1-.64-1.397A6.341 6.341 0 0 1 .02 7.756C.018 7.7.01 7.641.007 7.584c-.003-.088-.01-.174-.006-.26.042-1.402.453-2.694 1.167-3.895.447-.752.984-1.436 1.583-2.07.35-.373.72-.725 1.106-1.058.076-.065.16-.124.246-.175a.418.418 0 0 1 .276-.062c.021.003.04.017.071.032" fill="#FFF" mask="url(#f)"/>
    </g>
    <path d="M38.147 18.06c.066.1.158.176.14.31-.051.025-.096.01-.14-.009-.007-.014-.018-.027-.02-.04-.009-.083-.033-.157-.104-.212-.024-.02-.035-.056-.051-.086-.01-.022-.017-.045-.03-.065-.022-.04-.08-.059-.094-.036-.022.037.003.063.02.092a.116.116 0 0 0 .029.031c.093.071.111.174.125.28-.055.032-.108.02-.157.007-.02-.005-.038-.029-.05-.048-.01-.015-.01-.037-.014-.056-.016-.098-.027-.2-.088-.285a.12.12 0 0 1-.019-.054c-.007-.103-.076-.134-.165-.152-.025.07-.002.128.04.175.096.104.09.236.134.359-.119.002-.174-.026-.194-.104-.017-.069-.01-.146-.03-.213-.021-.066-.067-.126-.099-.19-.007-.011-.006-.027-.009-.041-.02-.114-.035-.127-.172-.156a.227.227 0 0 0 .073.208c.109.096.107.22.113.343.002.052-.037.078-.087.068-.057-.01-.1-.04-.114-.096-.025-.088-.05-.176-.066-.266a.762.762 0 0 0-.048-.18c-.027-.06-.036-.127-.057-.202-.059-.034-.126-.07-.2-.11-.037.081.007.137.03.196.024.065.088.084.133.118l.079.328a.502.502 0 0 1 .015.085c.002.038-.023.056-.088.072-.009-.01-.021-.02-.027-.032l-.216-.519c-.01-.026-.02-.054-.035-.079a.346.346 0 0 1-.06-.19c0-.046-.014-.084-.058-.106a.216.216 0 0 1-.093-.106c-.037-.073-.077-.145-.114-.217-.01-.02-.015-.04-.026-.07.06-.005.093.027.129.047l.825.475 1.168.66c.075.043.149.088.22.136.032.021.06.05.081.081.034.05-.004.119-.062.111a.467.467 0 0 1-.151-.044c-.099-.048-.194-.105-.291-.158-.041-.022-.084-.04-.125-.06M34.573 16.69c.07.06.093.125.133.177.078.103.11.22.126.347.018.131.055.261.086.392.003.017.016.032.025.049.037-.016.023-.043.024-.063 0-.028-.005-.057-.008-.085l-.004-.072-.001-.087c.023.016.042.022.05.034.042.076.082.152.12.23a.222.222 0 0 1 .026.082c.014.157.04.313.094.472-.03.012-.054.029-.079.029a.658.658 0 0 1-.25-.06.186.186 0 0 1-.1-.099c-.028-.065-.059-.132-.08-.2a3.486 3.486 0 0 1-.17-1.062c0-.019.003-.038.008-.083M29.73 15.008c-.146-.064-.231-.147-.231-.289 0-.1.01-.201.022-.3a1.88 1.88 0 0 1 .118-.488c.03-.075.071-.146.117-.214.036-.053.082-.056.14-.024.037.021.054.054.045.095-.008.034-.02.065-.03.097a4.03 4.03 0 0 0-.172.873c-.006.076-.006.152-.01.25M28.475 11.092l-.14-.033c-.022-.006-.044-.018-.067-.02-.011-.001-.03.007-.034.017-.006.01-.004.028.001.04a.064.064 0 0 0 .027.033l.202.088c.038-.039.03-.074.011-.125m-.275.267c.104.048.2.09.295.135.013-.104.014-.111-.048-.13a.768.768 0 0 1-.187-.105c-.006-.004-.017 0-.032 0-.006.014-.015.031-.02.049-.004.013-.004.028-.008.051m.29.402c.026-.11.02-.13-.055-.14a.823.823 0 0 1-.271-.09c-.012-.005-.035.01-.052.014.004.017.004.042.015.049.109.07.23.118.362.167m-.024-.862c.01-.128.011-.128-.081-.174a1.787 1.787 0 0 0-.13-.061c-.02-.008-.044-.024-.07.007l.018.12.224.106c.007.004.019.001.039.002m-.358-.478l.359.138c.042-.067.042-.067.022-.145-.068-.02-.137-.036-.205-.06-.066-.024-.13-.056-.2-.089-.012.061-.01.111.024.156m.332-.988c-.024-.004-.028-.007-.033-.006-.009 0-.02.002-.028.005-.072.036-.08.054-.058.122l.1.284a.37.37 0 0 0 .149.186c.011.007.036 0 .051-.007.009-.005.017-.028.013-.037a1.067 1.067 0 0 0-.06-.13.704.704 0 0 1-.106-.292c-.003-.043-.019-.084-.028-.125m-.319.217c-.011.024-.02.04-.026.058-.025.058-.024.109.035.151.08.06.121.145.157.237.042.106.12.177.225.227.011-.02.02-.031.023-.043.011-.053-.013-.092-.042-.132-.11-.152-.217-.305-.326-.457-.01-.014-.027-.023-.046-.041m-1.015 2.015c-.035-.124-.034-.124-.13-.185-.05-.032-.099-.063-.15-.088a1.049 1.049 0 0 1-.397-.325.471.471 0 0 0-.056-.066c-.009-.009-.03-.016-.036-.012-.015.01-.028.028-.029.044a.124.124 0 0 0 .014.068.64.64 0 0 0 .066.094c.1.12.22.215.347.302.034.024.08.033.097.089-.034.02-.07.044-.108.068l-.107-.077c-.016-.01-.032-.022-.046.002.027.084.135.087.176.176-.037 0-.067.01-.089.002a.755.755 0 0 1-.137-.078.958.958 0 0 1-.24-.267c-.013-.022-.02-.057-.056-.053-.005.004-.01.006-.012.009-.008.116.022.218.114.295l.27.216.124.102c-.073.068-.033.132-.003.198.003.004-.007.015-.012.025-.054-.013-.087-.056-.126-.089-.056-.046-.11-.094-.166-.138-.012-.01-.033-.007-.056-.01.019.072.069.105.111.14.053.043.109.08.162.121.101.08.103.085.106.215v.039l-.08.046c.028.1.102.165.164.237.022.027.043.066.1.057l.014-.137c.03.002.055-.002.076.006.035.014.07.033.103.052.132.078.272.142.428.158.008 0 .016.01.03.02.005.027.01.06.018.092.004.019.007.04.018.054.01.01.032.016.048.015.01 0 .025-.017.027-.028.003-.024-.002-.048-.003-.071-.013-.187-.034-.374-.013-.562.005-.047.005-.097.057-.143h.158c.144.002.289.004.43-.025a.665.665 0 0 0 .098-.028c.032-.012.049-.057.033-.083-.015-.025-.04-.022-.064-.014-.032.01-.063.022-.097.028-.089.017-.178.038-.269.046-.06.005-.124-.005-.185-.015a.118.118 0 0 1-.091-.063c-.013-.026-.002-.066.025-.072a.421.421 0 0 1 .085-.013c.124-.007.25-.013.374-.021a1.53 1.53 0 0 0 .186-.022c.075-.014.082-.031.059-.13-.055.004-.111.008-.168.01-.077 0-.154.002-.23-.003-.078-.006-.14-.037-.156-.125 0-.007-.01-.014-.022-.025-.096.02-.202 0-.316.039l.092.085c.018.018.031.044.008.063-.016.012-.046.02-.063.014-.041-.015-.077-.04-.115-.061-.08-.043-.158-.088-.24-.13-.047-.025-.096-.044-.15-.068m1.673-2.222l-.104-.026c-.034.167-.018.22.173.556-.009.013-.017.03-.03.044-.148.143-.217.325-.252.524a2.943 2.943 0 0 0-.013.747c.027.342.02.682-.046 1.02-.04.204-.103.4-.225.572a.76.76 0 0 1-.55.332c-.126.015-.25.004-.373-.019a1.23 1.23 0 0 1-.6-.299 1.982 1.982 0 0 1-.364-.444 2.756 2.756 0 0 1-.387-1.077.95.95 0 0 1 .008-.36c.042-.163.153-.23.313-.182.064.02.126.05.18.088.086.062.165.132.246.2.112.098.221.2.335.296.103.088.215.16.343.209.163.06.32.052.475-.024a.438.438 0 0 0 .257-.374 1.24 1.24 0 0 0-.043-.457 7.853 7.853 0 0 0-.122-.384 1.194 1.194 0 0 1-.069-.496.725.725 0 0 1 .216-.476.478.478 0 0 1 .436-.136c.056.01.11.035.162.058.033.015.033.025.034.108" fill="#FFF"/>
    <path d="M27.655 12.056c-.044.032-.071.05-.095.07-.026.021-.049.045-.075.07-.028-.008-.057-.013-.08-.025-.133-.07-.264-.14-.394-.213a.26.26 0 0 1-.13-.148.227.227 0 0 1-.009-.083.05.05 0 0 1 .073-.044c.056.028.11.061.165.089.145.074.292.146.437.219.03.014.056.033.108.065M26.802 12.144c.026-.057.076-.08.135-.097.098.053.196.101.29.157.099.058.217.035.32.083.007.067-.012.125-.025.179-.044.033-.088.025-.13.019-.17-.021-.467-.193-.59-.34M27.588 12.691c-.046.069-.11.08-.179.074a.604.604 0 0 1-.152-.038 1.192 1.192 0 0 1-.35-.22.287.287 0 0 1-.06-.079c-.007-.014-.003-.04.005-.053.01-.013.035-.026.049-.022.036.01.072.023.104.043.064.041.125.087.189.131.063.045.13.078.212.072a.222.222 0 0 1 .147.049c.014.01.023.027.035.043M29.784 27.119a.239.239 0 0 0-.025-.075.118.118 0 0 0-.09-.061.479.479 0 0 0-.068-.004v.403c0 .02 0 .035.003.048 0 .012.005.022.011.028a.047.047 0 0 0 .028.016c.013.004.03.007.05.008v.017l-.07-.003h-.15l-.078.003v-.017c.021-.001.038-.004.05-.008a.047.047 0 0 0 .028-.016.05.05 0 0 0 .012-.028.317.317 0 0 0 .003-.048v-.403c-.026 0-.048.001-.068.004a.116.116 0 0 0-.09.06.239.239 0 0 0-.025.076h-.023a3.15 3.15 0 0 0 .008-.116v-.06a121.306 121.306 0 0 1 .25.004l.126-.002.129-.003a1.198 1.198 0 0 0 .002.107l.002.037.004.033h-.019zM30.168 27.494a2.625 2.625 0 0 0-.077-.22c-.017-.04-.034-.08-.053-.12a2.654 2.654 0 0 0-.054-.115h-.002a5.12 5.12 0 0 0-.022.137l-.008.078a1.02 1.02 0 0 0-.002.15c.001.015.005.027.012.038.005.01.015.019.027.026.012.006.03.01.052.014v.017l-.056-.003H29.871l-.058.003v-.017a.1.1 0 0 0 .041-.012.072.072 0 0 0 .027-.023.139.139 0 0 0 .015-.034 5.763 5.763 0 0 0 .033-.221c.007-.06.016-.12.028-.179a.1.1 0 0 0-.038-.034.164.164 0 0 0-.049-.017v-.02l.072.003.07.002.062-.001c.021 0 .042-.002.062-.004v.02a.12.12 0 0 0-.034.01c-.01.006-.015.016-.015.032a.14.14 0 0 0 .011.038l.03.07a1.801 1.801 0 0 1 .083.2l.02-.035.026-.059.029-.07.028-.068.02-.056a.102.102 0 0 0 .007-.029c0-.005-.002-.01-.008-.014-.004-.003-.01-.007-.018-.01l-.02-.005-.018-.004v-.02l.066.003a1.508 1.508 0 0 0 .215-.003v.02a.125.125 0 0 0-.062.02c-.015.012-.023.032-.023.06l.005.04c.003.02.005.044.01.072l.014.086.015.085.012.068.007.03c.003.012.008.02.013.027a.05.05 0 0 0 .015.017.061.061 0 0 0 .023.01.116.116 0 0 0 .028.005v.017l-.064-.003H30.4l-.086.003v-.015l.04-.008a.09.09 0 0 0 .034-.011.061.061 0 0 0 .024-.022.08.08 0 0 0 .009-.04l-.004-.03-.01-.062-.012-.08a4.996 4.996 0 0 0-.014-.083l-.012-.071c-.003-.021-.007-.035-.009-.044h-.002a.99.99 0 0 1-.042.116l-.048.114-.045.113a.865.865 0 0 0-.032.118h-.023z" fill="#FFF"/>
  </g>
</svg>