<?xml version="1.0" encoding="UTF-8"?>
<svg width="64px" height="64px" viewBox="0 0 64 64" version="1.1" xmlns="http://www.w3.org/2000/svg" xmlns:xlink="http://www.w3.org/1999/xlink">
    <!-- Generator: Sketch 47.1 (45422) - http://www.bohemiancoding.com/sketch -->
    <title>Kano Code</title>
    <desc>Created with Sketch.</desc>
    <defs>
        <linearGradient x1="50.0063562%" y1="1.22283814%" x2="50.0063562%" y2="99.3283075%" id="linearGradient-1">
            <stop stop-color="#FFFFFF" offset="0%"></stop>
            <stop stop-color="#CCCCCC" offset="100%"></stop>
        </linearGradient>
    </defs>
    <g id="Page-1" stroke="none" stroke-width="1" fill="none" fill-rule="evenodd">
        <g id="Kano-Code" fill-rule="nonzero">
            <g id="kano-code" transform="translate(1.000000, 0.000000)">
                <g id="Group">
                    <g id="Shape">
                        <g opacity="0.15" transform="translate(0.000000, 1.371429)" fill="#000000">
                            <path d="M58.1485714,0.137142857 L3.79428571,0.137142857 C1.73714286,0.137142857 0.0457142857,1.82857143 0.0457142857,3.88571429 L0.0457142857,58.24 C0.0457142857,60.2971429 1.73714286,61.9885714 3.79428571,61.9885714 L58.1485714,61.9885714 C60.2057143,61.9885714 61.8971429,60.2971429 61.8971429,58.24 L61.8971429,3.88571429 C61.8971429,1.82857143 60.2057143,0.137142857 58.1485714,0.137142857 Z M7.72571429,56.5028571 C6.58285714,56.5028571 5.66857143,55.5885714 5.66857143,54.4457143 C5.66857143,53.3028571 6.58285714,52.3885714 7.72571429,52.3885714 C8.86857143,52.3885714 9.78285714,53.3028571 9.78285714,54.4457143 C9.78285714,55.5885714 8.86857143,56.5028571 7.72571429,56.5028571 Z M7.72571429,10.4228571 C6.58285714,10.4228571 5.66857143,9.50857143 5.66857143,8.36571429 C5.66857143,7.22285714 6.58285714,6.30857143 7.72571429,6.30857143 C8.86857143,6.30857143 9.78285714,7.22285714 9.78285714,8.36571429 C9.78285714,9.50857143 8.86857143,10.4228571 7.72571429,10.4228571 Z M53.8057143,56.5028571 C52.6628571,56.5028571 51.7485714,55.5885714 51.7485714,54.4457143 C51.7485714,53.3028571 52.6628571,52.3885714 53.8057143,52.3885714 C54.9485714,52.3885714 55.8628571,53.3028571 55.8628571,54.4457143 C55.8628571,55.5885714 54.9485714,56.5028571 53.8057143,56.5028571 Z M53.8057143,10.4228571 C52.6628571,10.4228571 51.7485714,9.50857143 51.7485714,8.36571429 C51.7485714,7.22285714 52.6628571,6.30857143 53.8057143,6.30857143 C54.9485714,6.30857143 55.8628571,7.22285714 55.8628571,8.36571429 C55.8628571,9.50857143 54.9485714,10.4228571 53.8057143,10.4228571 Z"></path>
                        </g>
                        <path d="M58.1485714,0.365714286 L3.79428571,0.365714286 C1.73714286,0.365714286 0.0457142857,2.05714286 0.0457142857,4.11428571 L0.0457142857,58.4685714 C0.0457142857,60.5257143 1.73714286,62.2171429 3.79428571,62.2171429 L58.1485714,62.2171429 C60.2057143,62.2171429 61.8971429,60.5257143 61.8971429,58.4685714 L61.8971429,4.06857143 C61.8971429,2.01142857 60.2057143,0.365714286 58.1485714,0.365714286 Z M7.72571429,56.6857143 C6.58285714,56.6857143 5.66857143,55.7714286 5.66857143,54.6285714 C5.66857143,53.4857143 6.58285714,52.5714286 7.72571429,52.5714286 C8.86857143,52.5714286 9.78285714,53.4857143 9.78285714,54.6285714 C9.78285714,55.7714286 8.86857143,56.6857143 7.72571429,56.6857143 Z M7.72571429,10.6057143 C6.58285714,10.6057143 5.66857143,9.69142857 5.66857143,8.54857143 C5.66857143,7.40571429 6.58285714,6.49142857 7.72571429,6.49142857 C8.86857143,6.49142857 9.78285714,7.40571429 9.78285714,8.54857143 C9.78285714,9.69142857 8.86857143,10.6057143 7.72571429,10.6057143 Z M53.8057143,56.6857143 C52.6628571,56.6857143 51.7485714,55.7714286 51.7485714,54.6285714 C51.7485714,53.4857143 52.6628571,52.5714286 53.8057143,52.5714286 C54.9485714,52.5714286 55.8628571,53.4857143 55.8628571,54.6285714 C55.8628571,55.7714286 54.9485714,56.6857143 53.8057143,56.6857143 Z M53.8057143,10.6057143 C52.6628571,10.6057143 51.7485714,9.69142857 51.7485714,8.54857143 C51.7485714,7.40571429 52.6628571,6.49142857 53.8057143,6.49142857 C54.9485714,6.49142857 55.8628571,7.40571429 55.8628571,8.54857143 C55.8628571,9.69142857 54.9485714,10.6057143 53.8057143,10.6057143 Z" fill="#FF6900"></path>
                    </g>
                    <g opacity="0.3" id="Shape" fill="url(#linearGradient-1)">
                        <g>
                            <path d="M58.1485714,0.365714286 L3.79428571,0.365714286 C1.73714286,0.365714286 0.0457142857,2.05714286 0.0457142857,4.11428571 L0.0457142857,58.4685714 C0.0457142857,60.5257143 1.73714286,62.2171429 3.79428571,62.2171429 L58.1485714,62.2171429 C60.2057143,62.2171429 61.8971429,60.5257143 61.8971429,58.4685714 L61.8971429,4.06857143 C61.8971429,2.01142857 60.2057143,0.365714286 58.1485714,0.365714286 Z M7.72571429,56.6857143 C6.58285714,56.6857143 5.66857143,55.7714286 5.66857143,54.6285714 C5.66857143,53.4857143 6.58285714,52.5714286 7.72571429,52.5714286 C8.86857143,52.5714286 9.78285714,53.4857143 9.78285714,54.6285714 C9.78285714,55.7714286 8.86857143,56.6857143 7.72571429,56.6857143 Z M7.72571429,10.6057143 C6.58285714,10.6057143 5.66857143,9.69142857 5.66857143,8.54857143 C5.66857143,7.40571429 6.58285714,6.49142857 7.72571429,6.49142857 C8.86857143,6.49142857 9.78285714,7.40571429 9.78285714,8.54857143 C9.78285714,9.69142857 8.86857143,10.6057143 7.72571429,10.6057143 Z M53.8057143,56.6857143 C52.6628571,56.6857143 51.7485714,55.7714286 51.7485714,54.6285714 C51.7485714,53.4857143 52.6628571,52.5714286 53.8057143,52.5714286 C54.9485714,52.5714286 55.8628571,53.4857143 55.8628571,54.6285714 C55.8628571,55.7714286 54.9485714,56.6857143 53.8057143,56.6857143 Z M53.8057143,10.6057143 C52.6628571,10.6057143 51.7485714,9.69142857 51.7485714,8.54857143 C51.7485714,7.40571429 52.6628571,6.49142857 53.8057143,6.49142857 C54.9485714,6.49142857 55.8628571,7.40571429 55.8628571,8.54857143 C55.8628571,9.69142857 54.9485714,10.6057143 53.8057143,10.6057143 Z"></path>
                        </g>
                    </g>
                    <g transform="translate(19.657143, 16.457143)" id="Shape">
                        <g opacity="0.15" transform="translate(0.000000, 1.828571)" fill="#000000">
                            <path d="M21.3485714,23.6342857 C21.9428571,24.2285714 22.2628571,24.96 22.2628571,25.7828571 C22.2628571,26.6057143 21.9428571,27.3371429 21.3485714,27.9771429 C20.7542857,28.5257143 20.0228571,28.8457143 19.2,28.8457143 C18.3771429,28.8457143 17.6457143,28.5714286 17.0057143,27.9771429 L6.53714286,18.6514286 L6.53714286,25.7371429 C6.53714286,26.56 6.26285714,27.2914286 5.66857143,27.8857143 C5.07428571,28.48 4.34285714,28.7542857 3.47428571,28.7542857 C2.65142857,28.7542857 1.92,28.48 1.32571429,27.8857143 C0.731428571,27.2914286 0.411428571,26.6057143 0.411428571,25.7371429 L0.411428571,3.06285714 C0.411428571,2.24 0.731428571,1.55428571 1.32571429,0.96 C1.92,0.365714286 2.65142857,0.0457142857 3.47428571,0.0457142857 C4.34285714,0.0457142857 5.07428571,0.365714286 5.66857143,0.96 C6.26285714,1.55428571 6.53714286,2.28571429 6.53714286,3.06285714 L6.53714286,10.1028571 L17.0057143,0.914285714 C17.6457143,0.32 18.3771429,0 19.2,0 C20.0228571,0 20.7542857,0.32 21.3485714,0.914285714 C21.9428571,1.50857143 22.2628571,2.24 22.2628571,3.06285714 C22.2628571,3.88571429 21.9428571,4.61714286 21.3485714,5.21142857 L10.8342857,14.4 L21.3485714,23.6342857 Z"></path>
                        </g>
                        <path d="M21.3485714,24 C21.9428571,24.5942857 22.2628571,25.3257143 22.2628571,26.1485714 C22.2628571,26.9714286 21.9428571,27.7028571 21.3485714,28.3428571 C20.7542857,28.8914286 20.0228571,29.2114286 19.2,29.2114286 C18.3771429,29.2114286 17.6457143,28.9371429 17.0057143,28.3428571 L6.53714286,19.0628571 L6.53714286,26.1485714 C6.53714286,26.9714286 6.26285714,27.7028571 5.66857143,28.2971429 C5.07428571,28.8914286 4.34285714,29.1657143 3.47428571,29.1657143 C2.65142857,29.1657143 1.92,28.8914286 1.32571429,28.2971429 C0.731428571,27.7028571 0.411428571,27.0171429 0.411428571,26.1485714 L0.411428571,3.42857143 C0.411428571,2.60571429 0.731428571,1.92 1.32571429,1.32571429 C1.92,0.731428571 2.65142857,0.411428571 3.47428571,0.411428571 C4.34285714,0.411428571 5.07428571,0.731428571 5.66857143,1.32571429 C6.26285714,1.92 6.53714286,2.65142857 6.53714286,3.42857143 L6.53714286,10.5142857 L17.0057143,1.32571429 C17.6457143,0.731428571 18.3771429,0.411428571 19.2,0.411428571 C20.0228571,0.411428571 20.7542857,0.731428571 21.3485714,1.32571429 C21.9428571,1.92 22.2628571,2.65142857 22.2628571,3.47428571 C22.2628571,4.29714286 21.9428571,5.02857143 21.3485714,5.62285714 L10.8342857,14.8114286 L21.3485714,24 Z" fill="#FFFFFF"></path>
                    </g>
                </g>
                <g id="Group" opacity="0.25" fill="#FFFFFF">
                    <path d="M58.1485714,0.365714286 L3.79428571,0.365714286 C1.73714286,0.365714286 0.0457142857,2.05714286 0.0457142857,4.11428571 L0.0457142857,5.57714286 C0.0457142857,3.47428571 1.73714286,1.82857143 3.79428571,1.82857143 L58.1485714,1.82857143 C60.2057143,1.82857143 61.8971429,3.52 61.8971429,5.57714286 L61.8971429,4.06857143 C61.8971429,2.01142857 60.2057143,0.365714286 58.1485714,0.365714286 Z" id="Shape"></path>
                </g>
                <g id="Group" opacity="0.25" transform="translate(0.000000, 56.685714)" fill="#666666">
                    <path d="M3.79428571,5.44 L58.1485714,5.44 C60.2057143,5.44 61.8971429,3.74857143 61.8971429,1.69142857 L61.8971429,0.228571429 C61.8971429,2.28571429 60.2057143,3.97714286 58.1485714,3.97714286 L3.79428571,3.97714286 C1.73714286,3.97714286 0.0457142857,2.28571429 0.0457142857,0.228571429 L0.0457142857,1.69142857 C0.0457142857,3.74857143 1.73714286,5.44 3.79428571,5.44 Z" id="Shape"></path>
                </g>
            </g>
        </g>
    </g>
</svg>