<?xml version="1.0" encoding="UTF-8"?>
<svg width="64px" height="64px" viewBox="0 0 64 64" version="1.1" xmlns="http://www.w3.org/2000/svg" xmlns:xlink="http://www.w3.org/1999/xlink">
    <!-- Generator: Sketch 47.1 (45422) - http://www.bohemiancoding.com/sketch -->
    <title>Make Pong</title>
    <desc>Created with Sketch.</desc>
    <defs>
        <filter x="-1.8%" y="-1.9%" width="103.6%" height="107.9%" filterUnits="objectBoundingBox" id="filter-1">
            <feOffset dx="0" dy="2.286" in="SourceAlpha" result="shadowOffsetOuter1"></feOffset>
            <feColorMatrix values="0 0 0 0 0.180392157   0 0 0 0 0.474509804   0 0 0 0 0.729411765  0 0 0 0.5 0" type="matrix" in="shadowOffsetOuter1" result="shadowMatrixOuter1"></feColorMatrix>
            <feMerge>
                <feMergeNode in="shadowMatrixOuter1"></feMergeNode>
                <feMergeNode in="SourceGraphic"></feMergeNode>
            </feMerge>
        </filter>
    </defs>
    <g id="Page-1" stroke="none" stroke-width="1" fill="none" fill-rule="evenodd">
        <g id="Make-Pong">
            <g filter="url(#filter-1)">
                <g id="Rectangle">
                    <g id="path-1-link" fill-rule="nonzero" fill="#000000">
                        <rect id="path-1" x="0" y="0" width="64" height="61.7142857" rx="5"></rect>
                    </g>
                    <g id="path-1-link" fill="#2E79BA">
                        <rect id="path-1" x="0" y="0" width="64" height="61.7142857" rx="5"></rect>
                    </g>
                </g>
                <g id="Page-1" transform="translate(13.714286, 10.971429)" fill-rule="nonzero">
                    <path d="M21.5709714,3.42678857 C21.5467429,3.42678857 21.4854857,3.42861714 21.4854857,3.42861714 L21.4854857,4.11433143 L3.19977143,4.11433143 L3.19977143,37.9429029 L21.4854857,37.9429029 L21.4854857,32.4846171 C21.4854857,32.4846171 21.5467429,32.4864457 21.5709714,32.4864457 C29.5961143,32.4864457 36.1008,25.9813029 36.1008,17.9566171 C36.1008,9.93193143 29.5961143,3.42678857 21.5709714,3.42678857" id="Fill-4" fill="#1A2F4B"></path>
                    <polygon id="Fill-6" fill="#1A2F4B" points="2.80868571 5.46834286 22.0251429 5.46834286 22.0251429 3.42674286 2.80868571 3.42674286"></polygon>
                    <g id="Group-11" transform="translate(0.000000, 3.200000)" fill-opacity="0.7" fill="#CCCCCC">
                        <path d="M24.7834971,19.2104686 C25.7759543,16.0031543 23.97984,12.5988114 20.7729829,11.6068114 C17.5656686,10.6143543 14.1613257,12.4104686 13.1693257,15.6177829 C12.1768686,18.8250971 13.9729829,22.22944 17.17984,23.22144 C20.3876114,24.21344 23.7914971,22.4177829 24.7834971,19.2104686" id="Fill-8" style="mix-blend-mode: multiply;"></path>
                        <path d="M8.05668571,1.21764571 L4.6016,0.148845714 C4.3104,0.0587885714 4.00091429,0.221988571 3.91085714,0.513188571 L0.469942857,11.6363886 C0.379885714,11.9280457 0.542628571,12.2370743 0.834285714,12.3275886 L4.28937143,13.3963886 C4.58057143,13.4864457 4.89005714,13.3232457 4.98057143,13.0315886 L8.42102857,1.90884571 C8.51108571,1.61718857 8.34834286,1.30770286 8.05668571,1.21764571" id="Fill-9" style="mix-blend-mode: multiply;"></path>
                        <path d="M36.0910629,22.3419429 L32.6359771,21.2731429 C32.3447771,21.1830857 32.0352914,21.3462857 31.9452343,21.6374857 L28.50432,32.7606857 C28.4142629,33.0523429 28.5770057,33.3613714 28.8686629,33.4518857 L32.3237486,34.5206857 C32.6149486,34.6107429 32.9244343,34.4475429 33.0149486,34.1558857 L36.4554057,23.0331429 C36.5454629,22.7414857 36.38272,22.432 36.0910629,22.3419429" id="Fill-10" style="mix-blend-mode: multiply;"></path>
                    </g>
                    <path d="M24.7834971,19.2703086 C25.7759543,16.0629943 23.97984,12.6586514 20.7729829,11.6666514 C17.5656686,10.6741943 14.1613257,12.4703086 13.1693257,15.6776229 C12.1768686,18.8849371 13.9729829,22.28928 17.17984,23.28128 C20.3876114,24.27328 23.7914971,22.4776229 24.7834971,19.2703086" id="Fill-12" fill="#FFFFFF"></path>
                    <path d="M8.05668571,1.27744 L4.6016,0.20864 C4.3104,0.118582857 4.00091429,0.281782857 3.91085714,0.572982857 L0.469942857,11.6961829 C0.379885714,11.98784 0.542628571,12.2968686 0.834285714,12.3873829 L4.28937143,13.4561829 C4.58057143,13.54624 4.89005714,13.38304 4.98057143,13.0913829 L8.42102857,1.96864 C8.51108571,1.67698286 8.34834286,1.36749714 8.05668571,1.27744" id="Fill-13" fill="#FFFFFF"></path>
                    <path d="M36.0910629,22.4017829 L32.6359771,21.3329829 C32.3447771,21.2429257 32.0352914,21.4061257 31.9452343,21.6973257 L28.50432,32.8205257 C28.4142629,33.1121829 28.5770057,33.4212114 28.8686629,33.5117257 L32.3237486,34.5805257 C32.6149486,34.6705829 32.9244343,34.5073829 33.0149486,34.2157257 L36.4554057,23.0929829 C36.5454629,22.8013257 36.38272,22.49184 36.0910629,22.4017829" id="Fill-14" fill="#FFFFFF"></path>
                    <path d="M18.9834971,20.0127086 C16.01344,20.0127086 13.5562971,18.4305371 13.0932114,16.35968 C13.0420114,16.6787657 13.0081829,17.0033371 13.0081829,17.3370514 C13.0081829,20.6737371 15.6833829,23.3781943 18.9834971,23.3781943 C22.2836114,23.3781943 24.9588114,20.6737371 24.9588114,17.3370514 C24.9588114,17.0033371 24.9249829,16.6787657 24.8737829,16.35968 C24.4106971,18.4305371 21.9535543,20.0127086 18.9834971,20.0127086" id="Fill-15" fill="#E6E6E6"></path>
                </g>
            </g>
        </g>
    </g>
</svg>