<?xml version="1.0" encoding="UTF-8"?>
<svg width="64px" height="64px" viewBox="0 0 64 64" version="1.1" xmlns="http://www.w3.org/2000/svg" xmlns:xlink="http://www.w3.org/1999/xlink">
    <!-- Generator: Sketch 47.1 (45422) - http://www.bohemiancoding.com/sketch -->
    <title>Make Art</title>
    <desc>Created with Sketch.</desc>
    <defs>
        <filter x="-1.8%" y="-1.9%" width="103.6%" height="107.9%" filterUnits="objectBoundingBox" id="filter-1">
            <feOffset dx="0" dy="2.286" in="SourceAlpha" result="shadowOffsetOuter1"></feOffset>
            <feColorMatrix values="0 0 0 0 0.22745098   0 0 0 0 0.321568627   0 0 0 0 0.364705882  0 0 0 0.5 0" type="matrix" in="shadowOffsetOuter1" result="shadowMatrixOuter1"></feColorMatrix>
            <feMerge>
                <feMergeNode in="shadowMatrixOuter1"></feMergeNode>
                <feMergeNode in="SourceGraphic"></feMergeNode>
            </feMerge>
        </filter>
    </defs>
    <g id="Page-1" stroke="none" stroke-width="1" fill="none" fill-rule="evenodd">
        <g id="Make-Art">
            <g filter="url(#filter-1)">
                <g id="Rectangle">
                    <g id="path-1-link" fill-rule="nonzero" fill="#000000">
                        <rect id="path-1" x="0" y="0" width="64" height="61.7142857" rx="5"></rect>
                    </g>
                    <g id="path-1-link" fill="#3A525D">
                        <rect id="path-1" x="0" y="0" width="64" height="61.7142857" rx="5"></rect>
                    </g>
                </g>
                <g id="Page-1" transform="translate(13.257143, 13.257143)" fill-rule="nonzero">
                    <g id="Group-13" opacity="0.15" style="mix-blend-mode: multiply;" transform="translate(0.000000, 0.914286)" fill="#000000">
                        <path d="M11.5759086,26.9714286 L19.3359086,26.9714286 C18.83168,32 14.7466514,35.5378286 9.79488,35.5378286 C4.50619429,35.5378286 0.0792228571,31.2201143 0.0792228571,25.9314286 C0.0792228571,20.9357714 3.65728,16.8036571 8.68585143,16.3684571 L8.68585143,24.2843429 C8.68585143,25.7426286 10.1231086,26.9714286 11.5759086,26.9714286" id="Fill-7"></path>
                        <path d="M37.6634057,15.6884114 L28.75872,0.353554286 C28.58272,0.0500114286 28.2892343,0.0394971429 28.1717486,0.0394971429 C28.0542629,0.0394971429 27.7607771,0.119954286 27.5797486,0.42304 L18.6750629,15.7505829 C18.4990629,16.0591543 18.6165486,16.1386971 18.6750629,16.2415543 C18.7340343,16.3444114 18.9100343,16.4573257 19.2624914,16.4573257 L37.0764343,16.4573257 C37.4334629,16.4573257 37.6094629,16.3444114 37.6684343,16.2415543 C37.7269486,16.1386971 37.8444343,15.9965257 37.6634057,15.6884114" id="Fill-9"></path>
                        <path d="M19.2622629,18.2857143 L18.7388343,18.2857143 L18.7338057,18.2857143 C18.0000914,18.2857143 17.3285486,17.8505143 16.9418057,17.1803429 C16.8197486,16.9645714 16.6912914,16.8365714 16.6327771,16.6066286 C16.62912,16.6038857 16.6254629,16.6345143 16.6222629,16.6317714 C16.4778057,15.9904 16.6396343,15.3394286 16.9824914,14.7442286 L20.5390629,8.68571429 L11.5758629,8.68571429 C11.2042057,8.68571429 10.5143771,8.87771429 10.5143771,9.2544 L10.5143771,24.2843429 C10.5143771,24.6610286 11.2042057,25.1428571 11.5758629,25.1428571 L26.6108343,25.1428571 C26.98752,25.1428571 27.4286629,24.6610286 27.4286629,24.2843429 L27.4286629,18.2857143 L19.2622629,18.2857143 Z" id="Fill-11"></path>
                    </g>
                    <path d="M11.5759086,26.9714286 L19.3359086,26.9714286 C18.83168,32 14.7466514,35.5378286 9.79488,35.5378286 C4.50619429,35.5378286 0.0792228571,31.2201143 0.0792228571,25.9314286 C0.0792228571,20.9357714 3.65728,16.8036571 8.68585143,16.3684571 L8.68585143,24.2843429 C8.68585143,25.7426286 10.1231086,26.9714286 11.5759086,26.9714286" id="Fill-14" fill="#EA5455"></path>
                    <path d="M37.6634057,15.6884114 L28.75872,0.353554286 C28.58272,0.0500114286 28.2892343,0.0394971429 28.1717486,0.0394971429 C28.0542629,0.0394971429 27.7607771,0.119954286 27.5797486,0.42304 L18.6750629,15.7505829 C18.4990629,16.0591543 18.6165486,16.1386971 18.6750629,16.2415543 C18.7340343,16.3444114 18.9100343,16.4573257 19.2624914,16.4573257 L37.0764343,16.4573257 C37.4334629,16.4573257 37.6094629,16.3444114 37.6684343,16.2415543 C37.7269486,16.1386971 37.8444343,15.9965257 37.6634057,15.6884114" id="Fill-16" fill="#F8CA00"></path>
                    <path d="M19.2622629,18.2857143 L18.7388343,18.2857143 L18.7338057,18.2857143 C18.0000914,18.2857143 17.3285486,17.8505143 16.9418057,17.1803429 C16.8197486,16.9645714 16.6912914,16.8365714 16.6327771,16.6066286 C16.62912,16.6038857 16.6254629,16.6345143 16.6222629,16.6317714 C16.4778057,15.9904 16.6396343,15.3394286 16.9824914,14.7442286 L20.5390629,8.68571429 L11.5758629,8.68571429 C11.2042057,8.68571429 10.5143771,8.87771429 10.5143771,9.2544 L10.5143771,24.2843429 C10.5143771,24.6610286 11.2042057,25.1428571 11.5758629,25.1428571 L26.6108343,25.1428571 C26.98752,25.1428571 27.4286629,24.6610286 27.4286629,24.2843429 L27.4286629,18.2857143 L19.2622629,18.2857143 Z" id="Fill-18" fill="#54BEE4"></path>
                </g>
            </g>
        </g>
    </g>
</svg>