<?xml version="1.0" encoding="UTF-8"?>
<svg width="64px" height="64px" viewBox="0 0 64 64" version="1.1" xmlns="http://www.w3.org/2000/svg" xmlns:xlink="http://www.w3.org/1999/xlink">
    <!-- Generator: Sketch 47.1 (45422) - http://www.bohemiancoding.com/sketch -->
    <title>Motion Sensor</title>
    <desc>Created with Sketch.</desc>
    <defs></defs>
    <g id="Page-1" stroke="none" stroke-width="1" fill="none" fill-rule="evenodd">
        <g id="Motion-Sensor" fill-rule="nonzero">
            <g id="motion-sensor">
                <path d="M61.2571429,64 L2.74285714,64 C1.23428571,64 0,62.7657143 0,61.2571429 L0,2.74285714 C0,1.23428571 1.23428571,0 2.74285714,0 L61.2571429,0 C62.7657143,0 64,1.23428571 64,2.74285714 L64,61.2571429 C64,62.7657143 62.7657143,64 61.2571429,64 Z" id="Shape" fill="#414A51"></path>
                <path d="M61.2571429,61.7142857 L2.74285714,61.7142857 C1.23428571,61.7142857 0,60.48 0,58.9714286 L0,61.2571429 C0,62.7657143 1.23428571,64 2.74285714,64 L61.2571429,64 C62.7657143,64 64,62.7657143 64,61.2571429 L64,58.9714286 C64,60.48 62.7657143,61.7142857 61.2571429,61.7142857 Z" id="Shape" fill="#CCCCCC" opacity="0.74"></path>
                <g id="Group" transform="translate(21.485714, 14.628571)">
                    <g opacity="0.15" transform="translate(0.000000, 2.285714)" fill="#000000">
                        <path d="M17.5542857,20.1142857 L17.5542857,33.2342857 C17.5542857,33.7371429 17.1428571,34.1485714 16.64,34.1485714 L4.52571429,34.1485714 C4.02285714,34.1485714 3.61142857,33.7371429 3.61142857,33.2342857 L3.61142857,20.1142857 L17.5542857,20.1142857 Z" id="Shape"></path>
                        <circle id="Oval" cx="8.36571429" cy="29.44" r="1.28"></circle>
                        <circle id="Oval" cx="12.8914286" cy="29.44" r="1.28"></circle>
                        <path d="M17.5542857,18.9714286 L17.5542857,24.96 C15.4514286,26.24 13.12,26.9257143 10.6057143,26.9257143 C8.09142857,26.9257143 5.76,26.1942857 3.65714286,24.96 L3.65714286,18.9714286 L17.5542857,18.9714286 Z" id="Shape" opacity="0.05"></path>
                        <path d="M10.5142857,25.5085714 L10.5142857,25.5085714 C4.75428571,25.5085714 0.0914285714,20.8457143 0.0914285714,15.0857143 L0.0914285714,10.5142857 C0.0914285714,4.75428571 4.75428571,0.0914285714 10.5142857,0.0914285714 L10.5142857,0.0914285714 C16.2742857,0.0914285714 20.9371429,4.75428571 20.9371429,10.5142857 L20.9371429,15.0857143 C20.9828571,20.8457143 16.32,25.5085714 10.5142857,25.5085714 Z" id="Shape"></path>
                        <path d="M10.5142857,25.5085714 L10.5142857,25.5085714 C4.75428571,25.5085714 0.0914285714,20.8457143 0.0914285714,15.0857143 L0.0914285714,10.5142857 C0.0914285714,4.75428571 4.75428571,0.0914285714 10.5142857,0.0914285714 L10.5142857,0.0914285714 C16.2742857,0.0914285714 20.9371429,4.75428571 20.9371429,10.5142857 L20.9371429,15.0857143 C20.9828571,20.8457143 16.32,25.5085714 10.5142857,25.5085714 Z" id="Shape"></path>
                        <path d="M10.5142857,22.9942857 C6.17142857,22.9942857 2.65142857,19.4285714 2.65142857,15.0857143 L2.65142857,10.5142857 C2.65142857,6.17142857 6.17142857,2.60571429 10.5142857,2.60571429 C14.8571429,2.60571429 18.3771429,6.17142857 18.3771429,10.5142857 L18.3771429,15.0857143 C18.3771429,19.4285714 14.8571429,22.9942857 10.5142857,22.9942857 Z" id="Shape"></path>
                        <path d="M18.2857143,9.37142857 C17.1885714,6.08 14.08,3.74857143 10.4228571,3.74857143 C6.76571429,3.74857143 3.70285714,6.12571429 2.56,9.37142857 C3.10857143,5.53142857 6.44571429,2.60571429 10.4228571,2.60571429 C14.4,2.60571429 17.7371429,5.57714286 18.2857143,9.37142857 Z" id="Shape" opacity="0.04"></path>
                        <path d="M10.5142857,20.4342857 C7.54285714,20.4342857 5.07428571,18.0114286 5.07428571,15.04 L5.07428571,10.5142857 C5.07428571,7.54285714 7.54285714,5.12 10.5142857,5.12 C13.4857143,5.12 15.9542857,7.58857143 15.9542857,10.5142857 L15.9542857,15.0857143 C15.9542857,18.0571429 13.4857143,20.4342857 10.5142857,20.4342857 Z" id="Shape"></path>
                        <path d="M15.8171429,9.73714286 C15.1314286,7.45142857 12.9371429,5.80571429 10.4228571,5.80571429 C7.90857143,5.80571429 5.76,7.45142857 5.02857143,9.73714286 C5.39428571,7.13142857 7.68,5.12 10.4228571,5.12 C13.1657143,5.16571429 15.4514286,7.17714286 15.8171429,9.73714286 Z" id="Shape" opacity="0.04"></path>
                        <path d="M10.5142857,17.92 C8.91428571,17.92 7.49714286,16.64 7.49714286,15.0857143 L7.49714286,10.5142857 C7.49714286,8.96 8.86857143,7.68 10.5142857,7.68 C12.16,7.68 13.5314286,8.96 13.5314286,10.5142857 L13.5314286,15.0857143 C13.4857143,16.64 12.1142857,17.92 10.5142857,17.92 Z" id="Shape"></path>
                        <path d="M13.4857143,10.5142857 L13.4857143,10.5142857 C12.8457143,9.37142857 11.7942857,8.54857143 10.4685714,8.54857143 C9.14285714,8.54857143 7.95428571,9.37142857 7.45142857,10.56 L7.45142857,10.5142857 C7.45142857,8.96 8.82285714,7.68 10.4685714,7.68 C12.1142857,7.68 13.4857143,8.96 13.4857143,10.5142857 Z" id="Shape" opacity="0.12"></path>
                    </g>
                    <g>
                        <g transform="translate(3.200000, 20.114286)">
                            <path d="M14.3542857,0.274285714 L14.3542857,13.3942857 C14.3542857,13.8971429 13.9428571,14.3085714 13.44,14.3085714 L1.32571429,14.3085714 C0.822857143,14.3085714 0.411428571,13.8971429 0.411428571,13.3942857 L0.411428571,0.274285714 L14.3542857,0.274285714 Z" id="Shape" fill="#069DD8"></path>
                            <g transform="translate(3.657143, 8.228571)" id="Oval" fill="#007AA8">
                                <circle cx="1.50857143" cy="1.32571429" r="1.28"></circle>
                                <circle cx="6.03428571" cy="1.32571429" r="1.28"></circle>
                            </g>
                        </g>
                        <path d="M17.5542857,19.2457143 L17.5542857,25.2342857 C15.4514286,26.5142857 13.12,27.2 10.6057143,27.2 C8.09142857,27.2 5.76,26.4685714 3.65714286,25.2342857 L3.65714286,19.2457143 L17.5542857,19.2457143 Z" id="Shape" fill="#211E1F" opacity="0.05"></path>
                        <path d="M10.5142857,25.7371429 L10.5142857,25.7371429 C4.75428571,25.7371429 0.0914285714,21.0742857 0.0914285714,15.3142857 L0.0914285714,10.7885714 C0.0914285714,5.02857143 4.75428571,0.365714286 10.5142857,0.365714286 L10.5142857,0.365714286 C16.2742857,0.365714286 20.9371429,5.02857143 20.9371429,10.7885714 L20.9371429,15.3142857 C20.9828571,21.0742857 16.32,25.7371429 10.5142857,25.7371429 Z" id="Shape" fill="#F58824"></path>
                        <g id="Shape">
                            <path d="M10.5142857,25.7371429 L10.5142857,25.7371429 C4.75428571,25.7371429 0.0914285714,21.0742857 0.0914285714,15.3142857 L0.0914285714,10.7885714 C0.0914285714,5.02857143 4.75428571,0.365714286 10.5142857,0.365714286 L10.5142857,0.365714286 C16.2742857,0.365714286 20.9371429,5.02857143 20.9371429,10.7885714 L20.9371429,15.3142857 C20.9828571,21.0742857 16.32,25.7371429 10.5142857,25.7371429 Z" fill="#2FA9E0"></path>
                            <path d="M10.5142857,23.2228571 C6.17142857,23.2228571 2.65142857,19.6571429 2.65142857,15.3142857 L2.65142857,10.7885714 C2.65142857,6.44571429 6.17142857,2.88 10.5142857,2.88 C14.8571429,2.88 18.3771429,6.44571429 18.3771429,10.7885714 L18.3771429,15.3142857 C18.3771429,19.7028571 14.8571429,23.2228571 10.5142857,23.2228571 Z" fill="#1D9CD7"></path>
                            <path d="M18.2857143,9.64571429 C17.1885714,6.35428571 14.08,4.02285714 10.4228571,4.02285714 C6.76571429,4.02285714 3.70285714,6.4 2.56,9.64571429 C3.10857143,5.80571429 6.44571429,2.88 10.4228571,2.88 C14.4,2.88 17.7371429,5.80571429 18.2857143,9.64571429 Z" fill="#211E1F" opacity="0.04"></path>
                            <path d="M10.5142857,20.7085714 C7.54285714,20.7085714 5.07428571,18.2857143 5.07428571,15.3142857 L5.07428571,10.7885714 C5.07428571,7.81714286 7.54285714,5.39428571 10.5142857,5.39428571 C13.4857143,5.39428571 15.9542857,7.81714286 15.9542857,10.7885714 L15.9542857,15.3142857 C15.9542857,18.2857143 13.4857143,20.7085714 10.5142857,20.7085714 Z" fill="#0686C3"></path>
                            <path d="M15.8171429,10.0114286 C15.1314286,7.72571429 12.9371429,6.08 10.4228571,6.08 C7.90857143,6.08 5.76,7.72571429 5.02857143,10.0114286 C5.39428571,7.40571429 7.68,5.39428571 10.4228571,5.39428571 C13.1657143,5.39428571 15.4514286,7.40571429 15.8171429,10.0114286 Z" fill="#211E1F" opacity="0.04"></path>
                            <path d="M10.5142857,18.1942857 C8.91428571,18.1942857 7.49714286,16.9142857 7.49714286,15.36 L7.49714286,10.8342857 C7.49714286,9.28 8.86857143,8 10.5142857,8 C12.16,8 13.5314286,9.28 13.5314286,10.8342857 L13.5314286,15.36 C13.4857143,16.9142857 12.1142857,18.1942857 10.5142857,18.1942857 Z" fill="#4A4D4F"></path>
                            <path d="M13.4857143,10.7885714 L13.4857143,10.7885714 C12.8457143,9.64571429 11.7942857,8.82285714 10.4685714,8.82285714 C9.14285714,8.82285714 7.95428571,9.64571429 7.45142857,10.8342857 L7.45142857,10.7885714 C7.45142857,9.23428571 8.82285714,7.95428571 10.4685714,7.95428571 C12.1142857,7.95428571 13.4857143,9.23428571 13.4857143,10.7885714 Z" fill="#211E1F" opacity="0.12"></path>
                        </g>
                    </g>
                </g>
            </g>
        </g>
    </g>
</svg>