<?xml version="1.0" encoding="UTF-8"?>
<svg width="64px" height="64px" viewBox="0 0 64 64" version="1.1" xmlns="http://www.w3.org/2000/svg" xmlns:xlink="http://www.w3.org/1999/xlink">
    <!-- Generator: Sketch 47.1 (45422) - http://www.bohemiancoding.com/sketch -->
    <title>Pixel Kit</title>
    <desc>Created with Sketch.</desc>
    <defs></defs>
    <g id="Page-1" stroke="none" stroke-width="1" fill="none" fill-rule="evenodd">
        <g id="Pixel-Kit" fill-rule="nonzero">
            <g id="pixel-kit">
                <path d="M61.2571429,64 L2.74285714,64 C1.23428571,64 0,62.7657143 0,61.2571429 L0,2.74285714 C0,1.23428571 1.23428571,0 2.74285714,0 L61.2571429,0 C62.7657143,0 64,1.23428571 64,2.74285714 L64,61.2571429 C64,62.7657143 62.7657143,64 61.2571429,64 Z" id="Shape" fill="#414A51"></path>
                <path d="M61.2571429,61.7142857 L2.74285714,61.7142857 C1.23428571,61.7142857 0,60.48 0,58.9714286 L0,61.2571429 C0,62.7657143 1.23428571,64 2.74285714,64 L61.2571429,64 C62.7657143,64 64,62.7657143 64,61.2571429 L64,58.9714286 C64,60.48 62.7657143,61.7142857 61.2571429,61.7142857 Z" id="Shape" fill="#CCCCCC" opacity="0.74"></path>
                <g id="Group" transform="translate(13.714286, 11.885714)">
                    <g opacity="0.15" transform="translate(0.000000, 1.828571)" fill="#000000">
                        <path d="M34.0571429,37.0285714 L2.74285714,37.0285714 C1.87428571,37.0285714 1.18857143,36.3428571 1.18857143,35.4742857 L1.18857143,4.93714286 C1.18857143,4.06857143 1.87428571,3.38285714 2.74285714,3.38285714 L34.0114286,3.38285714 C34.7885714,3.38285714 35.3828571,4.02285714 35.3828571,4.75428571 L35.3828571,35.6571429 C35.4285714,36.3885714 34.8342857,37.0285714 34.0571429,37.0285714 Z" id="Shape"></path>
                        <path d="M33.3714286,35.6114286 L3.29142857,35.6114286 C2.88,35.6114286 2.56,35.2914286 2.56,34.88 L2.56,5.48571429 C2.56,5.07428571 2.88,4.75428571 3.29142857,4.75428571 L33.3714286,4.75428571 C33.7828571,4.75428571 34.1028571,5.07428571 34.1028571,5.48571429 L34.1028571,34.9257143 C34.0571429,35.2914286 33.7371429,35.6114286 33.3714286,35.6114286 Z" id="Shape"></path>
                        <rect id="Rectangle-path" x="8.22857143" y="2.97142857" width="2.78857143" height="1.55428571"></rect>
                        <rect id="Rectangle-path" x="25.5542857" y="3.38285714" width="2.78857143" height="1.14285714"></rect>
                        <rect id="Rectangle-path" x="19.9771429" y="3.38285714" width="2.78857143" height="1.14285714"></rect>
                        <path d="M13.8514286,3.38285714 L5.39428571,3.38285714 C5.16571429,3.38285714 4.98285714,3.2 4.98285714,2.97142857 L4.98285714,0.411428571 C4.98285714,0.182857143 5.16571429,0 5.39428571,0 L13.8971429,0 C14.1257143,0 14.3085714,0.182857143 14.3085714,0.411428571 L14.3085714,2.97142857 C14.2628571,3.2 14.08,3.38285714 13.8514286,3.38285714 Z" id="Shape"></path>
                        <path d="M10.2857143,12.7542857 L5.39428571,12.7542857 C5.12,12.7542857 4.93714286,12.5714286 4.93714286,12.2971429 L4.93714286,7.63428571 C4.93714286,7.36 5.12,7.17714286 5.39428571,7.17714286 L10.2857143,7.17714286 C10.56,7.17714286 10.7428571,7.36 10.7428571,7.63428571 L10.7428571,12.3428571 C10.7885714,12.5714286 10.56,12.7542857 10.2857143,12.7542857 Z" id="Shape"></path>
                        <ellipse id="Oval" opacity="0.5" cx="7.86285714" cy="10.0114286" rx="1.82857143" ry="1.78285714"></ellipse>
                        <path d="M10.2857143,19.52 L5.39428571,19.52 C5.12,19.52 4.93714286,19.3371429 4.93714286,19.0628571 L4.93714286,14.3542857 C4.93714286,14.08 5.12,13.8971429 5.39428571,13.8971429 L10.2857143,13.8971429 C10.56,13.8971429 10.7428571,14.08 10.7428571,14.3542857 L10.7428571,19.0628571 C10.7885714,19.3371429 10.56,19.52 10.2857143,19.52 Z" id="Shape"></path>
                        <ellipse id="Oval" opacity="0.5" cx="7.86285714" cy="16.7771429" rx="1.82857143" ry="1.78285714"></ellipse>
                        <path d="M10.2857143,26.2857143 L5.39428571,26.2857143 C5.12,26.2857143 4.93714286,26.1028571 4.93714286,25.8285714 L4.93714286,21.12 C4.93714286,20.8457143 5.12,20.6628571 5.39428571,20.6628571 L10.2857143,20.6628571 C10.56,20.6628571 10.7428571,20.8457143 10.7428571,21.12 L10.7428571,25.8285714 C10.7885714,26.0571429 10.56,26.2857143 10.2857143,26.2857143 Z" id="Shape"></path>
                        <ellipse id="Oval" opacity="0.5" cx="7.86285714" cy="23.5428571" rx="1.82857143" ry="1.78285714"></ellipse>
                        <path d="M10.2857143,33.0514286 L5.39428571,33.0514286 C5.12,33.0514286 4.93714286,32.8685714 4.93714286,32.5942857 L4.93714286,27.8857143 C4.93714286,27.6114286 5.12,27.4285714 5.39428571,27.4285714 L10.2857143,27.4285714 C10.56,27.4285714 10.7428571,27.6114286 10.7428571,27.8857143 L10.7428571,32.5942857 C10.7885714,32.8228571 10.56,33.0514286 10.2857143,33.0514286 Z" id="Shape"></path>
                        <ellipse id="Oval" opacity="0.5" cx="7.86285714" cy="30.3085714" rx="1.82857143" ry="1.78285714"></ellipse>
                        <path d="M17.28,12.7542857 L12.3885714,12.7542857 C12.1142857,12.7542857 11.9314286,12.5714286 11.9314286,12.2971429 L11.9314286,7.63428571 C11.9314286,7.36 12.1142857,7.17714286 12.3885714,7.17714286 L17.28,7.17714286 C17.5542857,7.17714286 17.7371429,7.36 17.7371429,7.63428571 L17.7371429,12.3428571 C17.7371429,12.5714286 17.5085714,12.7542857 17.28,12.7542857 Z" id="Shape"></path>
                        <ellipse id="Oval" opacity="0.5" cx="14.8114286" cy="10.0114286" rx="1.82857143" ry="1.78285714"></ellipse>
                        <path d="M17.28,19.52 L12.3885714,19.52 C12.1142857,19.52 11.9314286,19.3371429 11.9314286,19.0628571 L11.9314286,14.3542857 C11.9314286,14.08 12.1142857,13.8971429 12.3885714,13.8971429 L17.28,13.8971429 C17.5542857,13.8971429 17.7371429,14.08 17.7371429,14.3542857 L17.7371429,19.0628571 C17.7371429,19.3371429 17.5085714,19.52 17.28,19.52 Z" id="Shape"></path>
                        <ellipse id="Oval" opacity="0.5" cx="14.8114286" cy="16.7771429" rx="1.82857143" ry="1.78285714"></ellipse>
                        <path d="M17.28,26.2857143 L12.3885714,26.2857143 C12.1142857,26.2857143 11.9314286,26.1028571 11.9314286,25.8285714 L11.9314286,21.12 C11.9314286,20.8457143 12.1142857,20.6628571 12.3885714,20.6628571 L17.28,20.6628571 C17.5542857,20.6628571 17.7371429,20.8457143 17.7371429,21.12 L17.7371429,25.8285714 C17.7371429,26.0571429 17.5085714,26.2857143 17.28,26.2857143 Z" id="Shape"></path>
                        <ellipse id="Oval" opacity="0.5" cx="14.8114286" cy="23.5428571" rx="1.82857143" ry="1.78285714"></ellipse>
                        <path d="M17.28,33.0514286 L12.3885714,33.0514286 C12.1142857,33.0514286 11.9314286,32.8685714 11.9314286,32.5942857 L11.9314286,27.8857143 C11.9314286,27.6114286 12.1142857,27.4285714 12.3885714,27.4285714 L17.28,27.4285714 C17.5542857,27.4285714 17.7371429,27.6114286 17.7371429,27.8857143 L17.7371429,32.5942857 C17.7371429,32.8228571 17.5085714,33.0514286 17.28,33.0514286 Z" id="Shape"></path>
                        <ellipse id="Oval" opacity="0.5" cx="14.8114286" cy="30.3085714" rx="1.82857143" ry="1.78285714"></ellipse>
                        <path d="M24.2285714,12.7542857 L19.3371429,12.7542857 C19.0628571,12.7542857 18.88,12.5714286 18.88,12.2971429 L18.88,7.63428571 C18.88,7.36 19.0628571,7.17714286 19.3371429,7.17714286 L24.2285714,7.17714286 C24.5028571,7.17714286 24.6857143,7.36 24.6857143,7.63428571 L24.6857143,12.3428571 C24.6857143,12.5714286 24.5028571,12.7542857 24.2285714,12.7542857 Z" id="Shape"></path>
                        <ellipse id="Oval" opacity="0.5" cx="21.8057143" cy="10.0114286" rx="1.82857143" ry="1.78285714"></ellipse>
                        <path d="M24.2285714,19.52 L19.3371429,19.52 C19.0628571,19.52 18.88,19.3371429 18.88,19.0628571 L18.88,14.3542857 C18.88,14.08 19.0628571,13.8971429 19.3371429,13.8971429 L24.2285714,13.8971429 C24.5028571,13.8971429 24.6857143,14.08 24.6857143,14.3542857 L24.6857143,19.0628571 C24.6857143,19.3371429 24.5028571,19.52 24.2285714,19.52 Z" id="Shape"></path>
                        <ellipse id="Oval" opacity="0.5" cx="21.8057143" cy="16.7771429" rx="1.82857143" ry="1.78285714"></ellipse>
                        <path d="M24.2285714,26.2857143 L19.3371429,26.2857143 C19.0628571,26.2857143 18.88,26.1028571 18.88,25.8285714 L18.88,21.12 C18.88,20.8457143 19.0628571,20.6628571 19.3371429,20.6628571 L24.2285714,20.6628571 C24.5028571,20.6628571 24.6857143,20.8457143 24.6857143,21.12 L24.6857143,25.8285714 C24.6857143,26.0571429 24.5028571,26.2857143 24.2285714,26.2857143 Z" id="Shape"></path>
                        <ellipse id="Oval" opacity="0.5" cx="21.8057143" cy="23.5428571" rx="1.82857143" ry="1.78285714"></ellipse>
                        <path d="M24.2285714,33.0514286 L19.3371429,33.0514286 C19.0628571,33.0514286 18.88,32.8685714 18.88,32.5942857 L18.88,27.8857143 C18.88,27.6114286 19.0628571,27.4285714 19.3371429,27.4285714 L24.2285714,27.4285714 C24.5028571,27.4285714 24.6857143,27.6114286 24.6857143,27.8857143 L24.6857143,32.5942857 C24.6857143,32.8228571 24.5028571,33.0514286 24.2285714,33.0514286 Z" id="Shape"></path>
                        <ellipse id="Oval" opacity="0.5" cx="21.8057143" cy="30.3085714" rx="1.82857143" ry="1.78285714"></ellipse>
                        <path d="M31.2228571,12.7542857 L26.3314286,12.7542857 C26.0571429,12.7542857 25.8742857,12.5714286 25.8742857,12.2971429 L25.8742857,7.63428571 C25.8742857,7.36 26.0571429,7.17714286 26.3314286,7.17714286 L31.2228571,7.17714286 C31.4971429,7.17714286 31.68,7.36 31.68,7.63428571 L31.68,12.3428571 C31.68,12.5714286 31.4514286,12.7542857 31.2228571,12.7542857 Z" id="Shape"></path>
                        <ellipse id="Oval" opacity="0.5" cx="28.7542857" cy="10.0114286" rx="1.82857143" ry="1.78285714"></ellipse>
                        <path d="M31.2228571,19.52 L26.3314286,19.52 C26.0571429,19.52 25.8742857,19.3371429 25.8742857,19.0628571 L25.8742857,14.3542857 C25.8742857,14.08 26.0571429,13.8971429 26.3314286,13.8971429 L31.2228571,13.8971429 C31.4971429,13.8971429 31.68,14.08 31.68,14.3542857 L31.68,19.0628571 C31.68,19.3371429 31.4514286,19.52 31.2228571,19.52 Z" id="Shape"></path>
                        <ellipse id="Oval" opacity="0.5" cx="28.7542857" cy="16.7771429" rx="1.82857143" ry="1.78285714"></ellipse>
                        <path d="M31.2228571,26.2857143 L26.3314286,26.2857143 C26.0571429,26.2857143 25.8742857,26.1028571 25.8742857,25.8285714 L25.8742857,21.12 C25.8742857,20.8457143 26.0571429,20.6628571 26.3314286,20.6628571 L31.2228571,20.6628571 C31.4971429,20.6628571 31.68,20.8457143 31.68,21.12 L31.68,25.8285714 C31.68,26.0571429 31.4514286,26.2857143 31.2228571,26.2857143 Z" id="Shape"></path>
                        <ellipse id="Oval" opacity="0.5" cx="28.7542857" cy="23.5428571" rx="1.82857143" ry="1.78285714"></ellipse>
                        <path d="M31.2228571,33.0514286 L26.3314286,33.0514286 C26.0571429,33.0514286 25.8742857,32.8685714 25.8742857,32.5942857 L25.8742857,27.8857143 C25.8742857,27.6114286 26.0571429,27.4285714 26.3314286,27.4285714 L31.2228571,27.4285714 C31.4971429,27.4285714 31.68,27.6114286 31.68,27.8857143 L31.68,32.5942857 C31.68,32.8228571 31.4514286,33.0514286 31.2228571,33.0514286 Z" id="Shape"></path>
                        <ellipse id="Oval" opacity="0.5" cx="28.7542857" cy="30.3085714" rx="1.82857143" ry="1.78285714"></ellipse>
                        <path d="M0.64,10.1942857 L1.23428571,10.1942857 L1.23428571,7.77142857 L0.64,7.77142857 C0.411428571,7.77142857 0.228571429,7.95428571 0.228571429,8.18285714 L0.228571429,9.82857143 C0.228571429,10.0114286 0.411428571,10.1942857 0.64,10.1942857 Z" id="Shape"></path>
                    </g>
                    <g>
                        <path d="M34.0571429,37.0285714 L2.74285714,37.0285714 C1.87428571,37.0285714 1.18857143,36.3428571 1.18857143,35.4742857 L1.18857143,4.93714286 C1.18857143,4.06857143 1.87428571,3.38285714 2.74285714,3.38285714 L34.0114286,3.38285714 C34.7885714,3.38285714 35.3828571,4.02285714 35.3828571,4.75428571 L35.3828571,35.6571429 C35.4285714,36.3885714 34.8342857,37.0285714 34.0571429,37.0285714 Z" id="Shape" fill="#BBE5FA"></path>
                        <path d="M33.3714286,35.6114286 L3.29142857,35.6114286 C2.88,35.6114286 2.56,35.2914286 2.56,34.88 L2.56,5.48571429 C2.56,5.07428571 2.88,4.75428571 3.29142857,4.75428571 L33.3714286,4.75428571 C33.7828571,4.75428571 34.1028571,5.07428571 34.1028571,5.48571429 L34.1028571,34.9257143 C34.0571429,35.2914286 33.7371429,35.6114286 33.3714286,35.6114286 Z" id="Shape" fill="#9BABB4"></path>
                        <g transform="translate(4.571429, 0.000000)">
                            <rect id="Rectangle-path" fill="#9FDCF8" x="3.65714286" y="2.97142857" width="2.78857143" height="1.55428571"></rect>
                            <rect id="Rectangle-path" fill="#9FDCF8" x="20.9828571" y="3.38285714" width="2.78857143" height="1.14285714"></rect>
                            <rect id="Rectangle-path" fill="#9FDCF8" x="15.4057143" y="3.38285714" width="2.78857143" height="1.14285714"></rect>
                            <path d="M9.28,3.38285714 L0.822857143,3.38285714 C0.594285714,3.38285714 0.411428571,3.2 0.411428571,2.97142857 L0.411428571,0.411428571 C0.411428571,0.182857143 0.594285714,0 0.822857143,0 L9.32571429,0 C9.55428571,0 9.73714286,0.182857143 9.73714286,0.411428571 L9.73714286,2.97142857 C9.69142857,3.2 9.50857143,3.38285714 9.28,3.38285714 Z" id="Shape" fill="#EE3D48"></path>
                        </g>
                        <g transform="translate(4.571429, 6.857143)">
                            <g>
                                <g>
                                    <path d="M5.71428571,5.89714286 L0.822857143,5.89714286 C0.548571429,5.89714286 0.365714286,5.71428571 0.365714286,5.44 L0.365714286,0.777142857 C0.365714286,0.502857143 0.548571429,0.32 0.822857143,0.32 L5.71428571,0.32 C5.98857143,0.32 6.17142857,0.502857143 6.17142857,0.777142857 L6.17142857,5.48571429 C6.21714286,5.71428571 5.98857143,5.89714286 5.71428571,5.89714286 Z" id="Shape" fill="#BDCFDA"></path>
                                    <ellipse id="Oval" fill="#FFFFFF" opacity="0.5" cx="3.29142857" cy="3.15428571" rx="1.82857143" ry="1.78285714"></ellipse>
                                </g>
                                <g transform="translate(0.000000, 6.857143)">
                                    <path d="M5.71428571,5.80571429 L0.822857143,5.80571429 C0.548571429,5.80571429 0.365714286,5.62285714 0.365714286,5.34857143 L0.365714286,0.64 C0.365714286,0.365714286 0.548571429,0.182857143 0.822857143,0.182857143 L5.71428571,0.182857143 C5.98857143,0.182857143 6.17142857,0.365714286 6.17142857,0.64 L6.17142857,5.34857143 C6.21714286,5.62285714 5.98857143,5.80571429 5.71428571,5.80571429 Z" id="Shape" fill="#BDCFDA"></path>
                                    <ellipse id="Oval" fill="#FFFFFF" opacity="0.5" cx="3.29142857" cy="3.06285714" rx="1.82857143" ry="1.78285714"></ellipse>
                                </g>
                                <g transform="translate(0.000000, 13.714286)">
                                    <path d="M5.71428571,5.71428571 L0.822857143,5.71428571 C0.548571429,5.71428571 0.365714286,5.53142857 0.365714286,5.25714286 L0.365714286,0.548571429 C0.365714286,0.274285714 0.548571429,0.0914285714 0.822857143,0.0914285714 L5.71428571,0.0914285714 C5.98857143,0.0914285714 6.17142857,0.274285714 6.17142857,0.548571429 L6.17142857,5.25714286 C6.21714286,5.48571429 5.98857143,5.71428571 5.71428571,5.71428571 Z" id="Shape" fill="#D7ECF9"></path>
                                    <ellipse id="Oval" fill="#FFFFFF" opacity="0.5" cx="3.29142857" cy="2.97142857" rx="1.82857143" ry="1.78285714"></ellipse>
                                </g>
                                <g transform="translate(0.000000, 20.571429)">
                                    <path d="M5.71428571,5.62285714 L0.822857143,5.62285714 C0.548571429,5.62285714 0.365714286,5.44 0.365714286,5.16571429 L0.365714286,0.457142857 C0.365714286,0.182857143 0.548571429,0 0.822857143,0 L5.71428571,0 C5.98857143,0 6.17142857,0.182857143 6.17142857,0.457142857 L6.17142857,5.16571429 C6.21714286,5.39428571 5.98857143,5.62285714 5.71428571,5.62285714 Z" id="Shape" fill="#FDDD00"></path>
                                    <ellipse id="Oval" fill="#FFFFFF" opacity="0.5" cx="3.29142857" cy="2.88" rx="1.82857143" ry="1.78285714"></ellipse>
                                </g>
                            </g>
                            <g transform="translate(7.314286, 0.000000)">
                                <g>
                                    <path d="M5.39428571,5.89714286 L0.502857143,5.89714286 C0.228571429,5.89714286 0.0457142857,5.71428571 0.0457142857,5.44 L0.0457142857,0.777142857 C0.0457142857,0.502857143 0.228571429,0.32 0.502857143,0.32 L5.39428571,0.32 C5.66857143,0.32 5.85142857,0.502857143 5.85142857,0.777142857 L5.85142857,5.48571429 C5.85142857,5.71428571 5.62285714,5.89714286 5.39428571,5.89714286 Z" id="Shape" fill="#BDCFDA"></path>
                                    <ellipse id="Oval" fill="#FFFFFF" opacity="0.5" cx="2.92571429" cy="3.15428571" rx="1.82857143" ry="1.78285714"></ellipse>
                                </g>
                                <g transform="translate(0.000000, 6.857143)">
                                    <path d="M5.39428571,5.80571429 L0.502857143,5.80571429 C0.228571429,5.80571429 0.0457142857,5.62285714 0.0457142857,5.34857143 L0.0457142857,0.64 C0.0457142857,0.365714286 0.228571429,0.182857143 0.502857143,0.182857143 L5.39428571,0.182857143 C5.66857143,0.182857143 5.85142857,0.365714286 5.85142857,0.64 L5.85142857,5.34857143 C5.85142857,5.62285714 5.62285714,5.80571429 5.39428571,5.80571429 Z" id="Shape" fill="#D7ECF9"></path>
                                    <ellipse id="Oval" fill="#FFFFFF" opacity="0.5" cx="2.92571429" cy="3.06285714" rx="1.82857143" ry="1.78285714"></ellipse>
                                </g>
                                <g transform="translate(0.000000, 13.714286)">
                                    <path d="M5.39428571,5.71428571 L0.502857143,5.71428571 C0.228571429,5.71428571 0.0457142857,5.53142857 0.0457142857,5.25714286 L0.0457142857,0.548571429 C0.0457142857,0.274285714 0.228571429,0.0914285714 0.502857143,0.0914285714 L5.39428571,0.0914285714 C5.66857143,0.0914285714 5.85142857,0.274285714 5.85142857,0.548571429 L5.85142857,5.25714286 C5.85142857,5.48571429 5.62285714,5.71428571 5.39428571,5.71428571 Z" id="Shape" fill="#FDDD00"></path>
                                    <ellipse id="Oval" fill="#FFFFFF" opacity="0.5" cx="2.92571429" cy="2.97142857" rx="1.82857143" ry="1.78285714"></ellipse>
                                </g>
                                <g transform="translate(0.000000, 20.571429)">
                                    <path d="M5.39428571,5.62285714 L0.502857143,5.62285714 C0.228571429,5.62285714 0.0457142857,5.44 0.0457142857,5.16571429 L0.0457142857,0.457142857 C0.0457142857,0.182857143 0.228571429,0 0.502857143,0 L5.39428571,0 C5.66857143,0 5.85142857,0.182857143 5.85142857,0.457142857 L5.85142857,5.16571429 C5.85142857,5.39428571 5.62285714,5.62285714 5.39428571,5.62285714 Z" id="Shape" fill="#F39E21"></path>
                                    <ellipse id="Oval" fill="#FFFFFF" opacity="0.5" cx="2.92571429" cy="2.88" rx="1.82857143" ry="1.78285714"></ellipse>
                                </g>
                            </g>
                            <g transform="translate(14.171429, 0.000000)">
                                <g>
                                    <path d="M5.48571429,5.89714286 L0.594285714,5.89714286 C0.32,5.89714286 0.137142857,5.71428571 0.137142857,5.44 L0.137142857,0.777142857 C0.137142857,0.502857143 0.32,0.32 0.594285714,0.32 L5.48571429,0.32 C5.76,0.32 5.94285714,0.502857143 5.94285714,0.777142857 L5.94285714,5.48571429 C5.94285714,5.71428571 5.76,5.89714286 5.48571429,5.89714286 Z" id="Shape" fill="#D7ECF9"></path>
                                    <ellipse id="Oval" fill="#FFFFFF" opacity="0.5" cx="3.06285714" cy="3.15428571" rx="1.82857143" ry="1.78285714"></ellipse>
                                </g>
                                <g transform="translate(0.000000, 6.857143)">
                                    <path d="M5.48571429,5.80571429 L0.594285714,5.80571429 C0.32,5.80571429 0.137142857,5.62285714 0.137142857,5.34857143 L0.137142857,0.64 C0.137142857,0.365714286 0.32,0.182857143 0.594285714,0.182857143 L5.48571429,0.182857143 C5.76,0.182857143 5.94285714,0.365714286 5.94285714,0.64 L5.94285714,5.34857143 C5.94285714,5.62285714 5.76,5.80571429 5.48571429,5.80571429 Z" id="Shape" fill="#FDDD00"></path>
                                    <ellipse id="Oval" fill="#FFFFFF" opacity="0.5" cx="3.06285714" cy="3.06285714" rx="1.82857143" ry="1.78285714"></ellipse>
                                </g>
                                <g transform="translate(0.000000, 13.714286)">
                                    <path d="M5.48571429,5.71428571 L0.594285714,5.71428571 C0.32,5.71428571 0.137142857,5.53142857 0.137142857,5.25714286 L0.137142857,0.548571429 C0.137142857,0.274285714 0.32,0.0914285714 0.594285714,0.0914285714 L5.48571429,0.0914285714 C5.76,0.0914285714 5.94285714,0.274285714 5.94285714,0.548571429 L5.94285714,5.25714286 C5.94285714,5.48571429 5.76,5.71428571 5.48571429,5.71428571 Z" id="Shape" fill="#F39E21"></path>
                                    <ellipse id="Oval" fill="#FFFFFF" opacity="0.5" cx="3.06285714" cy="2.97142857" rx="1.82857143" ry="1.78285714"></ellipse>
                                </g>
                                <g transform="translate(0.000000, 20.571429)">
                                    <path d="M5.48571429,5.62285714 L0.594285714,5.62285714 C0.32,5.62285714 0.137142857,5.44 0.137142857,5.16571429 L0.137142857,0.457142857 C0.137142857,0.182857143 0.32,0 0.594285714,0 L5.48571429,0 C5.76,0 5.94285714,0.182857143 5.94285714,0.457142857 L5.94285714,5.16571429 C5.94285714,5.39428571 5.76,5.62285714 5.48571429,5.62285714 Z" id="Shape" fill="#F05A3D"></path>
                                    <ellipse id="Oval" fill="#FFFFFF" opacity="0.5" cx="3.06285714" cy="2.88" rx="1.82857143" ry="1.78285714"></ellipse>
                                </g>
                            </g>
                            <g transform="translate(21.028571, 0.000000)">
                                <g>
                                    <path d="M5.62285714,5.89714286 L0.731428571,5.89714286 C0.457142857,5.89714286 0.274285714,5.71428571 0.274285714,5.44 L0.274285714,0.777142857 C0.274285714,0.502857143 0.457142857,0.32 0.731428571,0.32 L5.62285714,0.32 C5.89714286,0.32 6.08,0.502857143 6.08,0.777142857 L6.08,5.48571429 C6.08,5.71428571 5.85142857,5.89714286 5.62285714,5.89714286 Z" id="Shape" fill="#FDDD00"></path>
                                    <ellipse id="Oval" fill="#FFFFFF" opacity="0.5" cx="3.15428571" cy="3.15428571" rx="1.82857143" ry="1.78285714"></ellipse>
                                </g>
                                <g transform="translate(0.000000, 6.857143)">
                                    <path d="M5.62285714,5.80571429 L0.731428571,5.80571429 C0.457142857,5.80571429 0.274285714,5.62285714 0.274285714,5.34857143 L0.274285714,0.64 C0.274285714,0.365714286 0.457142857,0.182857143 0.731428571,0.182857143 L5.62285714,0.182857143 C5.89714286,0.182857143 6.08,0.365714286 6.08,0.64 L6.08,5.34857143 C6.08,5.62285714 5.85142857,5.80571429 5.62285714,5.80571429 Z" id="Shape" fill="#F39E21"></path>
                                    <ellipse id="Oval" fill="#FFFFFF" opacity="0.5" cx="3.15428571" cy="3.06285714" rx="1.82857143" ry="1.78285714"></ellipse>
                                </g>
                                <g transform="translate(0.000000, 13.714286)">
                                    <path d="M5.62285714,5.71428571 L0.731428571,5.71428571 C0.457142857,5.71428571 0.274285714,5.53142857 0.274285714,5.25714286 L0.274285714,0.548571429 C0.274285714,0.274285714 0.457142857,0.0914285714 0.731428571,0.0914285714 L5.62285714,0.0914285714 C5.89714286,0.0914285714 6.08,0.274285714 6.08,0.548571429 L6.08,5.25714286 C6.08,5.48571429 5.85142857,5.71428571 5.62285714,5.71428571 Z" id="Shape" fill="#F05A3D"></path>
                                    <ellipse id="Oval" fill="#FFFFFF" opacity="0.5" cx="3.15428571" cy="2.97142857" rx="1.82857143" ry="1.78285714"></ellipse>
                                </g>
                                <g transform="translate(0.000000, 20.571429)">
                                    <path d="M5.62285714,5.62285714 L0.731428571,5.62285714 C0.457142857,5.62285714 0.274285714,5.44 0.274285714,5.16571429 L0.274285714,0.457142857 C0.274285714,0.182857143 0.457142857,0 0.731428571,0 L5.62285714,0 C5.89714286,0 6.08,0.182857143 6.08,0.457142857 L6.08,5.16571429 C6.08,5.39428571 5.85142857,5.62285714 5.62285714,5.62285714 Z" id="Shape" fill="#ED2524"></path>
                                    <ellipse id="Oval" fill="#FFFFFF" opacity="0.5" cx="3.15428571" cy="2.88" rx="1.82857143" ry="1.78285714"></ellipse>
                                </g>
                            </g>
                        </g>
                        <path d="M0.64,10.1942857 L1.23428571,10.1942857 L1.23428571,7.77142857 L0.64,7.77142857 C0.411428571,7.77142857 0.228571429,7.95428571 0.228571429,8.18285714 L0.228571429,9.82857143 C0.228571429,10.0114286 0.411428571,10.1942857 0.64,10.1942857 Z" id="Shape" fill="#EE3D48"></path>
                    </g>
                </g>
            </g>
        </g>
    </g>
</svg>