<?xml version="1.0" encoding="UTF-8"?>
<svg width="64px" height="64px" viewBox="0 0 64 64" version="1.1" xmlns="http://www.w3.org/2000/svg" xmlns:xlink="http://www.w3.org/1999/xlink">
    <!-- Generator: Sketch 47.1 (45422) - http://www.bohemiancoding.com/sketch -->
    <title>Terminal Quest</title>
    <desc>Created with Sketch.</desc>
    <defs>
        <filter x="-1.8%" y="-1.9%" width="103.6%" height="107.9%" filterUnits="objectBoundingBox" id="filter-1">
            <feOffset dx="0" dy="2.286" in="SourceAlpha" result="shadowOffsetOuter1"></feOffset>
            <feColorMatrix values="0 0 0 0 0.22745098   0 0 0 0 0.321568627   0 0 0 0 0.364705882  0 0 0 0.5 0" type="matrix" in="shadowOffsetOuter1" result="shadowMatrixOuter1"></feColorMatrix>
            <feMerge>
                <feMergeNode in="shadowMatrixOuter1"></feMergeNode>
                <feMergeNode in="SourceGraphic"></feMergeNode>
            </feMerge>
        </filter>
    </defs>
    <g id="Page-1" stroke="none" stroke-width="1" fill="none" fill-rule="evenodd">
        <g id="Terminal-Quest">
            <g filter="url(#filter-1)">
                <g id="Rectangle">
                    <g id="path-1-link" fill-rule="nonzero" fill="#000000">
                        <rect id="path-1" x="0" y="0" width="64" height="61.7142857" rx="5"></rect>
                    </g>
                    <g id="path-1-link" fill="#3A525D">
                        <rect id="path-1" x="0" y="0" width="64" height="61.7142857" rx="5"></rect>
                    </g>
                </g>
                <g id="Page-1" transform="translate(11.428571, 12.342857)" fill-rule="nonzero">
                    <g id="Group-91" transform="translate(0.000000, 0.179200)">
                        <g id="Group-48" opacity="0.15" transform="translate(5.942857, 11.428571)" fill="#000000">
                            <path d="M13.5424,0 L6.08731429,0 C4.82834286,0.457142857 3.89485714,1.82857143 3.51542857,3.65714286 L13.5424,3.65714286 C14.5293714,3.65714286 15.3293714,2.81554286 15.3293714,1.82857143 C15.3293714,0.8416 14.5293714,0 13.5424,0" id="Fill-10"></path>
                            <path d="M9.29801143,9.6 L1.92612571,9.6 C0.939154286,9.6 0.138697143,8.98697143 0.138697143,8 C0.138697143,7.01302857 0.939154286,6.4 1.92612571,6.4 L9.29801143,6.4 C10.2849829,6.4 11.0849829,7.01302857 11.0849829,8 C11.0849829,8.98697143 10.2849829,9.6 9.29801143,9.6" id="Fill-14"></path>
                            <path d="M20.4676114,9.6 L14.2125257,9.6 C13.2255543,9.6 12.4255543,8.98697143 12.4255543,8 C12.4255543,7.01302857 13.2255543,6.4 14.2125257,6.4 L20.4676114,6.4 C21.4545829,6.4 22.2545829,7.01302857 22.2545829,8 C22.2545829,8.98697143 21.4545829,9.6 20.4676114,9.6" id="Fill-18"></path>
                            <path d="M30.52032,9.6 L25.82912,9.6 C24.8421486,9.6 24.0421486,8.98697143 24.0421486,8 C24.0421486,7.01302857 24.8421486,6.4 25.82912,6.4 L30.52032,6.4 C31.5072914,6.4 32.3072914,7.01302857 32.3072914,8 C32.3072914,8.98697143 31.5072914,9.6 30.52032,9.6" id="Fill-22"></path>
                            <path d="M3.26628571,15.5428571 L1.92594286,15.5428571 C0.938971429,15.5428571 0.138971429,14.9298286 0.138971429,13.9428571 C0.138971429,12.9558857 0.938971429,12.3428571 1.92594286,12.3428571 L3.26628571,12.3428571 C4.25325714,12.3428571 5.05325714,12.9558857 5.05325714,13.9428571 C5.05325714,14.9298286 4.25325714,15.5428571 3.26628571,15.5428571" id="Fill-26"></path>
                            <path d="M20.0207543,3.65714286 L18.6804114,3.65714286 C17.69344,3.65714286 16.89344,2.81554286 16.89344,1.82857143 C16.89344,0.8416 17.69344,0 18.6804114,0 L20.0207543,0 C21.0077257,0 21.8081829,0.8416 21.8081829,1.82857143 C21.8081829,2.81554286 21.0077257,3.65714286 20.0207543,3.65714286" id="Fill-30"></path>
                            <path d="M26.72256,21.0285714 L15.1061029,21.0285714 C14.1191314,21.0285714 13.3191314,20.4155429 13.3191314,19.4285714 C13.3191314,18.4416 14.1191314,17.8285714 15.1061029,17.8285714 L26.72256,17.8285714 C27.7095314,17.8285714 28.5099886,18.4416 28.5099886,19.4285714 C28.5099886,20.4155429 27.7095314,21.0285714 26.72256,21.0285714" id="Fill-34"></path>
                            <path d="M9.96809143,21.0285714 L1.92603429,21.0285714 C0.939062857,21.0285714 0.139062857,20.4155429 0.139062857,19.4285714 C0.139062857,18.4416 0.939062857,17.8285714 1.92603429,17.8285714 L9.96809143,17.8285714 C10.9550629,17.8285714 11.7550629,18.4416 11.7550629,19.4285714 C11.7550629,20.4155429 10.9550629,21.0285714 9.96809143,21.0285714" id="Fill-38"></path>
                            <path d="M23.1482057,15.5428571 L20.9141486,15.5428571 C19.9276343,15.5428571 19.1271771,14.9298286 19.1271771,13.9428571 C19.1271771,12.9558857 19.9276343,12.3428571 20.9141486,12.3428571 L23.1482057,12.3428571 C24.1351771,12.3428571 24.9356343,12.9558857 24.9356343,13.9428571 C24.9356343,14.9298286 24.1351771,15.5428571 23.1482057,15.5428571" id="Fill-42"></path>
                            <path d="M15.9997714,15.5428571 L8.40434286,15.5428571 C7.41737143,15.5428571 6.61737143,14.9298286 6.61737143,13.9428571 C6.61737143,12.9558857 7.41737143,12.3428571 8.40434286,12.3428571 L15.9997714,12.3428571 C16.9867429,12.3428571 17.7867429,12.9558857 17.7867429,13.9428571 C17.7867429,14.9298286 16.9867429,15.5428571 15.9997714,15.5428571" id="Fill-46"></path>
                        </g>
                        <path d="M19.4852571,10.5142857 L12.0301714,10.5142857 C10.7712,10.9714286 9.83771429,12.3428571 9.45828571,14.1714286 L19.4852571,14.1714286 C20.4722286,14.1714286 21.2722286,13.3298286 21.2722286,12.3428571 C21.2722286,11.3558857 20.4722286,10.5142857 19.4852571,10.5142857" id="Fill-49" fill="#FFFFFF"></path>
                        <path d="M15.2408686,20.1142857 L7.86898286,20.1142857 C6.88201143,20.1142857 6.08155429,19.5012571 6.08155429,18.5142857 C6.08155429,17.5273143 6.88201143,16.9142857 7.86898286,16.9142857 L15.2408686,16.9142857 C16.22784,16.9142857 17.02784,17.5273143 17.02784,18.5142857 C17.02784,19.5012571 16.22784,20.1142857 15.2408686,20.1142857" id="Fill-53" fill="#FFE35E"></path>
                        <path d="M26.4104686,20.1142857 L20.1553829,20.1142857 C19.1684114,20.1142857 18.3684114,19.5012571 18.3684114,18.5142857 C18.3684114,17.5273143 19.1684114,16.9142857 20.1553829,16.9142857 L26.4104686,16.9142857 C27.39744,16.9142857 28.19744,17.5273143 28.19744,18.5142857 C28.19744,19.5012571 27.39744,20.1142857 26.4104686,20.1142857" id="Fill-57" fill="#FFFFFF"></path>
                        <path d="M36.4631771,20.1142857 L31.7719771,20.1142857 C30.7850057,20.1142857 29.9850057,19.5012571 29.9850057,18.5142857 C29.9850057,17.5273143 30.7850057,16.9142857 31.7719771,16.9142857 L36.4631771,16.9142857 C37.4501486,16.9142857 38.2501486,17.5273143 38.2501486,18.5142857 C38.2501486,19.5012571 37.4501486,20.1142857 36.4631771,20.1142857" id="Fill-61" fill="#FFFFFF"></path>
                        <path d="M9.20914286,26.0571429 L7.8688,26.0571429 C6.88182857,26.0571429 6.08182857,25.4441143 6.08182857,24.4571429 C6.08182857,23.4701714 6.88182857,22.8571429 7.8688,22.8571429 L9.20914286,22.8571429 C10.1961143,22.8571429 10.9961143,23.4701714 10.9961143,24.4571429 C10.9961143,25.4441143 10.1961143,26.0571429 9.20914286,26.0571429" id="Fill-65" fill="#B3A78C"></path>
                        <path d="M25.9636114,14.1714286 L24.6232686,14.1714286 C23.6362971,14.1714286 22.8362971,13.3298286 22.8362971,12.3428571 C22.8362971,11.3558857 23.6362971,10.5142857 24.6232686,10.5142857 L25.9636114,10.5142857 C26.9505829,10.5142857 27.75104,11.3558857 27.75104,12.3428571 C27.75104,13.3298286 26.9505829,14.1714286 25.9636114,14.1714286" id="Fill-69" fill="#FF7473"></path>
                        <path d="M32.6654171,31.5428571 L21.04896,31.5428571 C20.0619886,31.5428571 19.2619886,30.9298286 19.2619886,29.9428571 C19.2619886,28.9558857 20.0619886,28.3428571 21.04896,28.3428571 L32.6654171,28.3428571 C33.6523886,28.3428571 34.4528457,28.9558857 34.4528457,29.9428571 C34.4528457,30.9298286 33.6523886,31.5428571 32.6654171,31.5428571" id="Fill-73" fill="#8DC6FF"></path>
                        <path d="M15.9109486,31.5428571 L7.86889143,31.5428571 C6.88192,31.5428571 6.08192,30.9298286 6.08192,29.9428571 C6.08192,28.9558857 6.88192,28.3428571 7.86889143,28.3428571 L15.9109486,28.3428571 C16.89792,28.3428571 17.69792,28.9558857 17.69792,29.9428571 C17.69792,30.9298286 16.89792,31.5428571 15.9109486,31.5428571" id="Fill-77" fill="#FFFFFF"></path>
                        <path d="M29.0910629,26.0571429 L26.8570057,26.0571429 C25.8704914,26.0571429 25.0700343,25.4441143 25.0700343,24.4571429 C25.0700343,23.4701714 25.8704914,22.8571429 26.8570057,22.8571429 L29.0910629,22.8571429 C30.0780343,22.8571429 30.8784914,23.4701714 30.8784914,24.4571429 C30.8784914,25.4441143 30.0780343,26.0571429 29.0910629,26.0571429" id="Fill-81" fill="#FFFFFF"></path>
                        <path d="M21.9426286,26.0571429 L14.3472,26.0571429 C13.3602286,26.0571429 12.5602286,25.4441143 12.5602286,24.4571429 C12.5602286,23.4701714 13.3602286,22.8571429 14.3472,22.8571429 L21.9426286,22.8571429 C22.9296,22.8571429 23.7296,23.4701714 23.7296,24.4571429 C23.7296,25.4441143 22.9296,26.0571429 21.9426286,26.0571429" id="Fill-85" fill="#FFFFFF"></path>
                        <path d="M13.8424229,7.74418286 C10.26208,7.95126857 7.37842286,10.7512686 7.04013714,14.2945829 C6.70185143,10.7512686 3.81773714,7.95126857 0.237851429,7.74418286 C3.81773714,7.53664 6.70185143,4.73572571 7.04013714,1.19241143 C7.37842286,4.73572571 10.26208,7.53664 13.8424229,7.74418286" id="Fill-87" fill="#000000" opacity="0.15"></path>
                        <path d="M13.8424229,6.82989714 C10.26208,7.03698286 7.37842286,9.83698286 7.04013714,13.3802971 C6.70185143,9.83698286 3.81773714,7.03698286 0.237851429,6.82989714 C3.81773714,6.62235429 6.70185143,3.82144 7.04013714,0.278125714 C7.37842286,3.82144 10.26208,6.62235429 13.8424229,6.82989714" id="Fill-89" fill="#FCEE21"></path>
                    </g>
                </g>
            </g>
        </g>
    </g>
</svg>