<svg xmlns="http://www.w3.org/2000/svg" viewBox="0 0 64 64">
    <path d="M52.72,8.09H11.26A3.22,3.22,0,0,0,8,11.31V52.78A3.22,3.22,0,0,0,11.26,56H52.72a3.22,3.22,0,0,0,3.22-3.22V11.31A3.22,3.22,0,0,0,52.72,8.09Zm-38.62,6a1.56,1.56,0,0,1,2.21,0l4.43,4.43a1.56,1.56,0,1,1-2.21,2.21L14.1,16.29A1.56,1.56,0,0,1,14.1,14.07Zm6.71,31.44-4.43,4.43a1.56,1.56,0,1,1-2.21-2.21L18.6,43.3a1.56,1.56,0,0,1,2.21,2.21ZM37.33,37.3a1.56,1.56,0,0,1-2.21,0l-3-3-3,3a1.56,1.56,0,1,1-2.21-2.21l3-3-3-3A1.56,1.56,0,0,1,29,26.79l3,3,3-3A1.56,1.56,0,0,1,37.3,29l-3,3,3,3A1.56,1.56,0,0,1,37.33,37.3Zm6-18.72,4.43-4.43A1.56,1.56,0,0,1,50,16.36l-4.43,4.43a1.56,1.56,0,0,1-2.21-2.21ZM50,50a1.56,1.56,0,0,1-2.21,0l-4.43-4.43a1.56,1.56,0,1,1,2.21-2.21L50,47.8A1.56,1.56,0,0,1,50,50Z"/>
</svg>