<svg xmlns="http://www.w3.org/2000/svg" viewBox="0 0 64 64">
    <path d="M51.06,12.85v38.3H12.77V12.85h38.3M52.69,8H11.15a3.23,3.23,0,0,0-3.23,3.23V52.77A3.23,3.23,0,0,0,11.15,56H52.69a3.23,3.23,0,0,0,3.23-3.23V11.23A3.23,3.23,0,0,0,52.69,8Z"/><path d="M42.35,21.56V42.44H21.48V21.56H42.35m3-5.07H18.5a2.09,2.09,0,0,0-2.09,2.09V45.42A2.09,2.09,0,0,0,18.5,47.5H45.33a2.09,2.09,0,0,0,2.09-2.09V18.58a2.09,2.09,0,0,0-2.09-2.09Z"/><path d="M34.3,29.62v4.76H29.54V29.62H34.3M37.95,25H25.89a.94.94,0,0,0-.94.94V38a.94.94,0,0,0,.94.94H37.95a.94.94,0,0,0,.94-.94V26a.94.94,0,0,0-.94-.94Z"/>
</svg>