<svg xmlns="http://www.w3.org/2000/svg" viewBox="0 0 64 64">
    <path d="M32,12.5A19.53,19.53,0,1,0,51.55,32,19.55,19.55,0,0,0,32,12.5Zm-.08,36a1.22,1.22,0,1,1,1.22-1.22A1.22,1.22,0,0,1,31.93,48.48Zm0-30.88a1.22,1.22,0,1,1,1.22-1.22A1.22,1.22,0,0,1,31.93,17.61ZM48.59,31.83a1.22,1.22,0,1,1-1.22-1.22A1.22,1.22,0,0,1,48.59,31.83Zm-30.88,0a1.22,1.22,0,1,1-1.22-1.22A1.22,1.22,0,0,1,17.71,31.83Zm21.62,1.85H31.88a1.76,1.76,0,0,1-1.34-.63L23.3,24.42A1.75,1.75,0,0,1,26,22.17l6.71,8h6.64a1.75,1.75,0,1,1,0,3.51Z"/>
</svg>