<svg xmlns="http://www.w3.org/2000/svg" viewBox="0 0 64 64">
    <path d="M32,45.33a19.61,19.61,0,0,1-6.72-1.18V54.4A1.56,1.56,0,0,0,26.86,56H37.18a1.56,1.56,0,0,0,1.56-1.56V44.15A19.61,19.61,0,0,1,32,45.33ZM29.23,52.9a1,1,0,1,1,1-1A1,1,0,0,1,29.23,52.9Zm5.57,0a1,1,0,1,1,1-1A1,1,0,0,1,34.8,52.9Z"/><path d="M39.56,20.93a3.75,3.75,0,0,1-3.75-3.75A3.7,3.7,0,0,1,36,16.12,10.39,10.39,0,1,0,41,20.62,3.73,3.73,0,0,1,39.56,20.93Z"/><path d="M32,8A17.69,17.69,0,1,0,49.71,25.69,17.69,17.69,0,0,0,32,8Zm0,30.14a12.45,12.45,0,1,1,5.11-23.79,3.72,3.72,0,0,1,2.43-.92,3.75,3.75,0,0,1,3.11,5.85A12.42,12.42,0,0,1,32,38.14Z"/><circle cx="39.56" cy="17.16" r="1.66"/>
</svg>