<svg xmlns="http://www.w3.org/2000/svg" viewBox="0 0 64 64">
    <path d="M18.36,33.16A2.12,2.12,0,0,1,16.24,31,14.75,14.75,0,0,1,31,16.3a2.12,2.12,0,1,1,0,4.25A10.5,10.5,0,0,0,20.49,31,2.12,2.12,0,0,1,18.36,33.16Z"/><path d="M8.51,31.94a2.12,2.12,0,0,1-2.12-2.12A23.39,23.39,0,0,1,29.76,6.44a2.12,2.12,0,1,1,0,4.25A19.14,19.14,0,0,0,10.64,29.81,2.12,2.12,0,0,1,8.51,31.94Z"/><path d="M48.69,25.66l1,1.05a16.48,16.48,0,0,1,0,23.19,16,16,0,0,1-23,0l-1-1.19L36.09,38.26,33,35.13A5,5,0,1,1,35.07,33l3.12,3.12,10.5-10.5m-18,7.05a2,2,0,1,0-2-2,2,2,0,0,0,2,2"/>
</svg>