<svg xmlns="http://www.w3.org/2000/svg" viewBox="0 0 64 64">
<path d="M51.18,10.77H26.88V7.21a.62.62,0,0,0-.62-.62H15.89a.62.62,0,0,0-.62.62v3.56H12.69a2.15,2.15,0,0,0-2.15,2.15v3.36h-1a.41.41,0,0,0-.41.41v2.38a.41.41,0,0,0,.41.41h1V50.67a2.15,2.15,0,0,0,2.15,2.15h38.5a2.15,2.15,0,0,0,2.15-2.15V12.91A2.15,2.15,0,0,0,51.18,10.77ZM22.5,47.4a.57.57,0,0,1-.57.57H15.8a.57.57,0,0,1-.57-.57V41.53A.57.57,0,0,1,15.8,41h6.13a.57.57,0,0,1,.57.57Zm0-8.45a.57.57,0,0,1-.57.57H15.8a.57.57,0,0,1-.57-.57V33.08a.57.57,0,0,1,.57-.57h6.13a.57.57,0,0,1,.57.57Zm0-8.45a.57.57,0,0,1-.57.57H15.8a.57.57,0,0,1-.57-.57V24.63a.57.57,0,0,1,.57-.57h6.13a.57.57,0,0,1,.57.57Zm0-8.45a.57.57,0,0,1-.57.57H15.8a.57.57,0,0,1-.57-.57V16.19a.57.57,0,0,1,.57-.57h6.13a.57.57,0,0,1,.57.57ZM31.22,47.4a.57.57,0,0,1-.57.57H24.51a.57.57,0,0,1-.57-.57V41.53a.57.57,0,0,1,.57-.57h6.13a.57.57,0,0,1,.57.57Zm0-8.45a.57.57,0,0,1-.57.57H24.51a.57.57,0,0,1-.57-.57V33.08a.57.57,0,0,1,.57-.57h6.13a.57.57,0,0,1,.57.57Zm0-8.45a.57.57,0,0,1-.57.57H24.51a.57.57,0,0,1-.57-.57V24.63a.57.57,0,0,1,.57-.57h6.13a.57.57,0,0,1,.57.57Zm0-8.45a.57.57,0,0,1-.57.57H24.51a.57.57,0,0,1-.57-.57V16.19a.57.57,0,0,1,.57-.57h6.13a.57.57,0,0,1,.57.57ZM39.93,47.4a.57.57,0,0,1-.57.57H33.23a.57.57,0,0,1-.57-.57V41.53a.57.57,0,0,1,.57-.57h6.13a.57.57,0,0,1,.57.57Zm0-8.45a.57.57,0,0,1-.57.57H33.23a.57.57,0,0,1-.57-.57V33.08a.57.57,0,0,1,.57-.57h6.13a.57.57,0,0,1,.57.57Zm0-8.45a.57.57,0,0,1-.57.57H33.23a.57.57,0,0,1-.57-.57V24.63a.57.57,0,0,1,.57-.57h6.13a.57.57,0,0,1,.57.57Zm0-8.45a.57.57,0,0,1-.57.57H33.23a.57.57,0,0,1-.57-.57V16.19a.57.57,0,0,1,.57-.57h6.13a.57.57,0,0,1,.57.57ZM48.65,47.4a.57.57,0,0,1-.57.57H41.95a.57.57,0,0,1-.57-.57V41.53a.57.57,0,0,1,.57-.57h6.13a.57.57,0,0,1,.57.57Zm0-8.45a.57.57,0,0,1-.57.57H41.95a.57.57,0,0,1-.57-.57V33.08a.57.57,0,0,1,.57-.57h6.13a.57.57,0,0,1,.57.57Zm0-8.45a.57.57,0,0,1-.57.57H41.95a.57.57,0,0,1-.57-.57V24.63a.57.57,0,0,1,.57-.57h6.13a.57.57,0,0,1,.57.57Zm0-8.45a.57.57,0,0,1-.57.57H41.95a.57.57,0,0,1-.57-.57V16.19a.57.57,0,0,1,.57-.57h6.13a.57.57,0,0,1,.57.57Z"/>
</svg>