<svg xmlns="http://www.w3.org/2000/svg" viewBox="0 0 64 64">
    <rect x="11" y="23.09" width="5.31" height="5.31" rx="1.29" ry="1.29"/><rect x="11" y="29.22" width="5.31" height="5.31" rx="1.29" ry="1.29"/><rect x="17.06" y="23.09" width="5.31" height="5.31" rx="1.29" ry="1.29"/><rect x="17.06" y="29.22" width="5.31" height="5.31" rx="1.29" ry="1.29"/><rect x="23.12" y="23.09" width="5.31" height="5.31" rx="1.29" ry="1.29"/><rect x="23.12" y="29.22" width="5.31" height="5.31" rx="1.29" ry="1.29"/><rect x="29.19" y="23.09" width="5.31" height="5.31" rx="1.29" ry="1.29"/><rect x="29.19" y="29.22" width="5.31" height="5.31" rx="1.29" ry="1.29"/><rect x="11" y="35.35" width="5.31" height="5.31" rx="1.29" ry="1.29"/><rect x="17.06" y="35.35" width="5.31" height="5.31" rx="1.29" ry="1.29"/><rect x="23.12" y="35.35" width="5.31" height="5.31" rx="1.29" ry="1.29"/><rect x="29.19" y="35.35" width="5.31" height="5.31" rx="1.29" ry="1.29"/><rect x="35.29" y="23.09" width="5.31" height="5.31" rx="1.29" ry="1.29"/><rect x="35.29" y="29.22" width="5.31" height="5.31" rx="1.29" ry="1.29"/><rect x="35.29" y="35.35" width="5.31" height="5.31" rx="1.29" ry="1.29"/><rect x="41.41" y="23.09" width="5.31" height="5.31" rx="1.29" ry="1.29"/><rect x="41.41" y="29.22" width="5.31" height="5.31" rx="1.29" ry="1.29"/><rect x="41.41" y="35.35" width="5.31" height="5.31" rx="1.29" ry="1.29"/><rect x="47.52" y="23.09" width="5.31" height="5.31" rx="1.29" ry="1.29"/><rect x="47.52" y="29.22" width="5.31" height="5.31" rx="1.29" ry="1.29"/><rect x="47.52" y="35.35" width="5.31" height="5.31" rx="1.29" ry="1.29"/><rect x="17.06" y="41.49" width="5.31" height="5.31" rx="1.29" ry="1.29"/><rect x="23.12" y="41.49" width="5.31" height="5.31" rx="1.29" ry="1.29"/><rect x="29.19" y="41.49" width="5.31" height="5.31" rx="1.29" ry="1.29"/><rect x="23.12" y="47.62" width="5.31" height="5.31" rx="1.29" ry="1.29"/><rect x="29.19" y="47.62" width="5.31" height="5.31" rx="1.29" ry="1.29"/><rect x="35.29" y="41.49" width="5.31" height="5.31" rx="1.29" ry="1.29"/><rect x="35.29" y="47.62" width="5.31" height="5.31" rx="1.29" ry="1.29"/><rect x="41.41" y="41.49" width="5.31" height="5.31" rx="1.29" ry="1.29"/><rect x="17.06" y="16.94" width="5.31" height="5.31" rx="1.29" ry="1.29"/><rect x="23.12" y="16.94" width="5.31" height="5.31" rx="1.29" ry="1.29"/><rect x="29.19" y="16.94" width="5.31" height="5.31" rx="1.29" ry="1.29"/><rect x="35.29" y="16.94" width="5.31" height="5.31" rx="1.29" ry="1.29"/><rect x="41.41" y="16.94" width="5.31" height="5.31" rx="1.29" ry="1.29"/><rect x="23.12" y="10.85" width="5.31" height="5.31" rx="1.29" ry="1.29"/><rect x="29.19" y="10.85" width="5.31" height="5.31" rx="1.29" ry="1.29"/><rect x="35.29" y="10.85" width="5.31" height="5.31" rx="1.29" ry="1.29"/>
</svg>