<svg xmlns="http://www.w3.org/2000/svg" viewBox="0 0 64 64">
    <rect x="8" y="20.09" width="5.31" height="5.31" rx="1.29" ry="1.29"/><rect x="8" y="26.22" width="5.31" height="5.31" rx="1.29" ry="1.29"/><rect x="14.06" y="20.09" width="5.31" height="5.31" rx="1.29" ry="1.29"/><rect x="14.06" y="26.22" width="5.31" height="5.31" rx="1.29" ry="1.29"/><rect x="20.12" y="20.09" width="5.31" height="5.31" rx="1.29" ry="1.29"/><rect x="20.12" y="26.22" width="5.31" height="5.31" rx="1.29" ry="1.29"/><rect x="26.18" y="20.09" width="5.31" height="5.31" rx="1.29" ry="1.29"/><rect x="26.18" y="26.22" width="5.31" height="5.31" rx="1.29" ry="1.29"/><rect x="8" y="32.34" width="5.31" height="5.31" rx="1.29" ry="1.29"/><rect x="14.06" y="32.34" width="5.31" height="5.31" rx="1.29" ry="1.29"/><rect x="20.12" y="32.34" width="5.31" height="5.31" rx="1.29" ry="1.29"/><rect x="26.18" y="32.34" width="5.31" height="5.31" rx="1.29" ry="1.29"/><rect x="32.29" y="20.09" width="5.31" height="5.31" rx="1.29" ry="1.29"/><rect x="32.29" y="26.22" width="5.31" height="5.31" rx="1.29" ry="1.29"/><rect x="32.29" y="32.34" width="5.31" height="5.31" rx="1.29" ry="1.29"/><rect x="38.41" y="20.09" width="5.31" height="5.31" rx="1.29" ry="1.29"/><rect x="38.41" y="26.22" width="5.31" height="5.31" rx="1.29" ry="1.29"/><rect x="38.41" y="32.34" width="5.31" height="5.31" rx="1.29" ry="1.29"/><rect x="44.52" y="20.09" width="5.31" height="5.31" rx="1.29" ry="1.29"/><rect x="44.52" y="26.22" width="5.31" height="5.31" rx="1.29" ry="1.29"/><rect x="44.52" y="32.34" width="5.31" height="5.31" rx="1.29" ry="1.29"/><rect x="8" y="38.49" width="5.31" height="5.31" rx="1.29" ry="1.29"/><rect x="14.06" y="38.49" width="5.31" height="5.31" rx="1.29" ry="1.29"/><rect x="20.12" y="38.49" width="5.31" height="5.31" rx="1.29" ry="1.29"/><rect x="26.18" y="38.49" width="5.31" height="5.31" rx="1.29" ry="1.29"/><rect x="8" y="44.62" width="5.31" height="5.31" rx="1.29" ry="1.29"/><rect x="14.06" y="44.62" width="5.31" height="5.31" rx="1.29" ry="1.29"/><rect x="20.12" y="44.62" width="5.31" height="5.31" rx="1.29" ry="1.29"/><rect x="26.18" y="44.62" width="5.31" height="5.31" rx="1.29" ry="1.29"/><rect x="32.29" y="38.49" width="5.31" height="5.31" rx="1.29" ry="1.29"/><rect x="32.29" y="44.62" width="5.31" height="5.31" rx="1.29" ry="1.29"/><rect x="38.41" y="38.49" width="5.31" height="5.31" rx="1.29" ry="1.29"/><rect x="38.41" y="44.62" width="5.31" height="5.31" rx="1.29" ry="1.29"/><rect x="44.52" y="38.49" width="5.31" height="5.31" rx="1.29" ry="1.29"/><rect x="44.52" y="44.62" width="5.31" height="5.31" rx="1.29" ry="1.29"/><rect x="50.69" y="20.09" width="5.31" height="5.31" rx="1.29" ry="1.29"/><rect x="8" y="14" width="5.31" height="5.31" rx="1.29" ry="1.29"/><rect x="14.06" y="14" width="5.31" height="5.31" rx="1.29" ry="1.29"/><rect x="20.12" y="14" width="5.31" height="5.31" rx="1.29" ry="1.29"/><rect x="26.18" y="14" width="5.31" height="5.31" rx="1.29" ry="1.29"/><rect x="32.29" y="14" width="5.31" height="5.31" rx="1.29" ry="1.29"/><rect x="38.41" y="14" width="5.31" height="5.31" rx="1.29" ry="1.29"/><rect x="44.52" y="14" width="5.31" height="5.31" rx="1.29" ry="1.29"/><rect x="50.69" y="14" width="5.31" height="5.31" rx="1.29" ry="1.29"/><rect x="50.69" y="26.22" width="5.31" height="5.31" rx="1.29" ry="1.29"/><rect x="50.69" y="32.34" width="5.31" height="5.31" rx="1.29" ry="1.29"/><rect x="50.69" y="38.49" width="5.31" height="5.31" rx="1.29" ry="1.29"/><rect x="50.69" y="44.62" width="5.31" height="5.31" rx="1.29" ry="1.29"/>
</svg>