<svg xmlns="http://www.w3.org/2000/svg" viewBox="0 0 64 64">
    <path d="M48.39,13.32h0c-.3-.07-.61-.14-.93-.19s-.62-.09-.91-.1A11,11,0,0,0,36,18.95c-.15.28-.29.56-.41.86s-.23.58-.33.88a11.31,11.31,0,0,0,.92,9.07l-.32.21a1.19,1.19,0,0,0-.32,1.63,1.15,1.15,0,0,0,1,.52,1.14,1.14,0,0,0,.64-.2l.4-.25a10.91,10.91,0,0,0,8.19,3.73,11.22,11.22,0,0,0,2.66-22.07Z"/><path d="M20.26,37.26Q19.61,36.09,18.9,35a1.14,1.14,0,0,0-1.6-.31A1.19,1.19,0,0,0,17,36.33q.66,1,1.26,2.08a1.15,1.15,0,0,0,1,.6,1.13,1.13,0,0,0,.56-.15A1.18,1.18,0,0,0,20.26,37.26Z"/><path d="M22.43,46a1.18,1.18,0,0,0,.79-1.45q-.36-1.3-.8-2.5a1.15,1.15,0,0,0-1.48-.7,1.18,1.18,0,0,0-.69,1.51q.41,1.13.75,2.33a1.16,1.16,0,0,0,1.11.85A1.18,1.18,0,0,0,22.43,46Z"/><path d="M9.64,25.9c-.74-.49-1.48-.93-2.22-1.34A1.14,1.14,0,0,0,5.85,25a1.18,1.18,0,0,0,.46,1.59c.69.38,1.38.8,2.08,1.26a1.13,1.13,0,0,0,.62.19,1.15,1.15,0,0,0,1-.54A1.18,1.18,0,0,0,9.64,25.9Z"/><path d="M13.77,29.08a1.14,1.14,0,0,0-1.63.1,1.19,1.19,0,0,0,.09,1.66c.59.53,1.17,1.1,1.73,1.7a1.14,1.14,0,0,0,1.63,0,1.19,1.19,0,0,0,0-1.66Q14.72,29.94,13.77,29.08Z"/><path d="M24,48.8a1.14,1.14,0,0,0-.45,0,1.1,1.1,0,0,0-.51,0A1.17,1.17,0,0,0,22,50c.05.36.1.71.14,1.08a1.05,1.05,0,0,0,.37.79,1.14,1.14,0,0,0,1.3.18,1.17,1.17,0,0,0,.62-.93c0-.15.11-.45.25-.89A1.18,1.18,0,0,0,24,48.8Z"/><path d="M32.42,32.77q-.8.77-1.52,1.59A1.19,1.19,0,0,0,31,36a1.14,1.14,0,0,0,1.63-.08q.67-.75,1.41-1.46a1.19,1.19,0,0,0,0-1.66A1.14,1.14,0,0,0,32.42,32.77Z"/><path d="M28.2,37.81c-.42.61-.82,1.22-1.19,1.83a1.18,1.18,0,0,0,.37,1.62,1.14,1.14,0,0,0,.61.18,1.15,1.15,0,0,0,1-.55c.35-.57.72-1.15,1.12-1.72a1.18,1.18,0,0,0-.28-1.63A1.14,1.14,0,0,0,28.2,37.81Z"/><path d="M26.47,42.94a1.15,1.15,0,0,0-1.54.54c-.33.69-.63,1.36-.9,2a1.18,1.18,0,0,0,.6,1.54,1.12,1.12,0,0,0,.46.1,1.15,1.15,0,0,0,1.06-.71c.26-.6.54-1.23.86-1.89A1.18,1.18,0,0,0,26.47,42.94Z"/>
</svg>