<svg xmlns="http://www.w3.org/2000/svg" viewBox="0 0 64 64">
    <path d="M20.54,8.26,10.43,12.74a1.91,1.91,0,0,0-1.14,1.82V48.18A1.71,1.71,0,0,0,11.47,50l10.11-4.47a1.91,1.91,0,0,0,1.14-1.82V10.08A1.71,1.71,0,0,0,20.54,8.26Z"/><path d="M37.93,18.34,27.81,9.39c-1.1-.84-2.58.07-2.58,1.6V44.06a2,2,0,0,0,.75,1.6L36.1,54.61c1.1.84,2.58-.07,2.58-1.6V19.94A2,2,0,0,0,37.93,18.34Z"/><path d="M52.44,14,42.33,18.47a1.91,1.91,0,0,0-1.14,1.82V53.92a1.71,1.71,0,0,0,2.18,1.82l10.11-4.47a1.91,1.91,0,0,0,1.14-1.82V15.82A1.71,1.71,0,0,0,52.44,14Z"/>
</svg>