<svg xmlns="http://www.w3.org/2000/svg" viewBox="0 0 64 64">
    <path d="M32,44.08a14.59,14.59,0,0,1-6.79-1.67v12A1.58,1.58,0,0,0,26.82,56H37.26a1.58,1.58,0,0,0,1.58-1.58v-12A14.59,14.59,0,0,1,32,44.08Zm-2.81,8.75a1,1,0,1,1,1-1A1,1,0,0,1,29.23,52.84Zm5.63,0a1,1,0,1,1,1-1A1,1,0,0,1,34.86,52.84Z"/><path d="M45.24,20.46a13.23,13.23,0,0,0-26.4,0s-.09,8.34-.09,8.45a13.29,13.29,0,0,0,26.58,0C45.33,28.8,45.24,20.46,45.24,20.46ZM32,33.07a4.48,4.48,0,0,1-4.48-4.48s0-7.19,0-7.19a4.46,4.46,0,0,1,8.91,0s0,7.15,0,7.19A4.48,4.48,0,0,1,32,33.07Z"/>
</svg>