<svg xmlns="http://www.w3.org/2000/svg" viewBox="0 0 64 64">
    <path d="M32.23,7.13A24.92,24.92,0,1,0,57.15,32,24.95,24.95,0,0,0,32.23,7.13Zm0,45.84a20.93,20.93,0,0,1-20.68-17.9,1.42,1.42,0,0,0,.15.3A12.29,12.29,0,0,0,15.16,39a1.43,1.43,0,1,0,1.56-2.4,9.48,9.48,0,0,1-2.63-2.81,1.43,1.43,0,0,0-2.62.73c-.07-.6-.11-1.21-.13-1.82a1.41,1.41,0,0,0,1.13-2,20.27,20.27,0,0,1-.73-1.94,1.43,1.43,0,0,0-.12-.28,20.9,20.9,0,1,1,40.85,8.68,5.47,5.47,0,0,1-2.41-1.48,1.43,1.43,0,0,0-2,2,8.36,8.36,0,0,0,3.53,2.18A20.94,20.94,0,0,1,32.23,53Z"/><path d="M30.07,21.49a19.14,19.14,0,0,0-2.57,4.09,1.43,1.43,0,1,0,2.58,1.23,16.31,16.31,0,0,1,2.17-3.48,1.43,1.43,0,1,0-2.19-1.85Z"/><path d="M27.91,28.33a1.43,1.43,0,0,0-1.82.89A22.48,22.48,0,0,1,24.35,33a1.43,1.43,0,1,0,2.47,1.44,25.44,25.44,0,0,0,2-4.32A1.43,1.43,0,0,0,27.91,28.33Z"/><path d="M22.35,35.71a5,5,0,0,1-3,1.6,1.43,1.43,0,0,0,.13,2.85h.14a7.8,7.8,0,0,0,4.76-2.42,1.43,1.43,0,1,0-2-2Z"/><path d="M44.24,27.49a1.43,1.43,0,0,0,.68-1.91,19.1,19.1,0,0,0-2.56-4.09,1.43,1.43,0,1,0-2.19,1.84,16.29,16.29,0,0,1,2.17,3.48,1.43,1.43,0,0,0,1.91.68Z"/><path d="M39,18.81a6.67,6.67,0,0,0-5.49,0,1.43,1.43,0,0,0,1.16,2.61,3.75,3.75,0,0,1,3.16,0A1.43,1.43,0,1,0,39,18.81Z"/><path d="M48.07,33a22.6,22.6,0,0,1-1.74-3.82,1.43,1.43,0,0,0-2.7.94,25.5,25.5,0,0,0,2,4.32A1.43,1.43,0,0,0,48.07,33Z"/>
</svg>