<svg xmlns="http://www.w3.org/2000/svg" viewBox="0 0 64 64">
<rect x="8" y="8" width="48" height="48" rx="3.01" ry="3.01"/><circle class="cls-1" cx="41.06" cy="18.79" r="3.21"/><path class="cls-1" d="M48.45,49.49a.91.91,0,0,1-.94.59l-31,0a1.21,1.21,0,0,1-1.19-.77,1.17,1.17,0,0,1,.18-1.36L26.58,34.41a1.85,1.85,0,0,1,1.5-.73,1.88,1.88,0,0,1,1.5.7l4.23,4.91a1.79,1.79,0,0,0,1.33.57,1.61,1.61,0,0,0,1.26-.54L37.55,38a1.42,1.42,0,0,1,1.08-.45,1.47,1.47,0,0,1,1.12.49l8.56,10.3A1,1,0,0,1,48.45,49.49Z"/>
</svg>