<svg xmlns="http://www.w3.org/2000/svg" viewBox="0 0 64 64">
<path d="M55.84,35.8s-1.4,2-2,2.88a1.14,1.14,0,0,1-.9.44A1.13,1.13,0,0,1,52,37.3l2.53-3.18-2.45-3a1.09,1.09,0,0,1-.23-.69A1.12,1.12,0,0,1,53,29.3a1.14,1.14,0,0,1,.9.44l2,2.7.16-.22V19.57a1.67,1.67,0,0,0-1.66-1.66H9.66A1.67,1.67,0,0,0,8,19.57V34.63a2.31,2.31,0,0,1,0,4.59v5.83a1.67,1.67,0,0,0,1.66,1.66H54.34A1.67,1.67,0,0,0,56,45.05V36ZM17,39.25H15.86a2.32,2.32,0,1,1,0-4.64H17a2.32,2.32,0,0,1,0,4.64Zm9.29,0H25.15a2.32,2.32,0,1,1,0-4.64h1.16a2.32,2.32,0,1,1,0,4.64ZM38.66,27V37.91a1.21,1.21,0,1,1-2.43,0V27H33a1.07,1.07,0,1,1,0-2.13h8.82a1.07,1.07,0,0,1,0,2.13ZM46.92,37.2A3.59,3.59,0,0,0,49,36.55a1.12,1.12,0,0,1,.67-.23,1,1,0,0,1,1,1,1,1,0,0,1-.35.77,4.93,4.93,0,0,1-3.37,1.15c-2.91,0-4.7-1.57-4.7-5.06,0-3.2,1.67-5,4.52-5a3.88,3.88,0,0,1,4.18,4.16c0,.77,0,1.67-1.28,1.67H44.47A2.15,2.15,0,0,0,46.92,37.2Z"/><path d="M46.73,31.1a2,2,0,0,0-2.2,2h4.14A1.87,1.87,0,0,0,46.73,31.1Z"/>
</svg>