<svg xmlns="http://www.w3.org/2000/svg" viewBox="0 0 64 64">
<path class="cls-1" d="M37.34,47.52a15.84,15.84,0,0,0,9.78-9.59A77.14,77.14,0,0,1,26.94,47.5,15.84,15.84,0,0,0,37.34,47.52ZM57.6,25.63c0-.08,0-.11,0-.13a.16.16,0,0,1,0-.06.53.53,0,0,0,0-.08.6.6,0,0,0,0-.08l0-.15L57.4,25a2.66,2.66,0,0,0-.25-.46,3.32,3.32,0,0,0-1.24-1A9.09,9.09,0,0,0,52,22.9a38,38,0,0,0-6.54.86,15.92,15.92,0,0,0-29.22,9.38c-.44.19-.87.39-1.3.6a32.78,32.78,0,0,0-4.48,2.53,13.37,13.37,0,0,0-2.2,1.83A6.68,6.68,0,0,0,7.2,39.57a4.36,4.36,0,0,0-.42,1.21c0,.07,0,.11,0,.19l0,.29a4.3,4.3,0,0,0,0,.57l0,.18,0,.08,0,.15a2.88,2.88,0,0,0,.1.33h0s0,0,0,0l0,.1.1.22a3.44,3.44,0,0,0,.22.4,4.05,4.05,0,0,0,.54.63,4.67,4.67,0,0,0,1.07.73,7,7,0,0,0,1.76.59,16.47,16.47,0,0,0,2.9.29,32.1,32.1,0,0,0,4.66-.28l.55-.07c1.1-.13,2.18-.3,3.23-.51,2.19-.4,4.3-.91,6.35-1.46,3-.89,5.89-1.8,8.59-2.85a73.69,73.69,0,0,0,7.41-3.32c1.24-.63,2.41-1.27,3.5-1.91.53-.3,1-.61,1.54-.91l1-.6a39,39,0,0,0,4.41-3.21,9.82,9.82,0,0,0,2.57-3.08A3.23,3.23,0,0,0,57.6,25.63ZM18,40.09a36.64,36.64,0,0,1-4.47.56,13.79,13.79,0,0,1-1.57,0h0c.32-.34.7-.69,1.09-1a36.81,36.81,0,0,1,3.71-2.72l.11-.08c.08.29.17.57.27.85a15.28,15.28,0,0,0,1.06,2.4ZM54.66,26.15h0a.11.11,0,0,1,0-.05l0,0-.05,0,0,0a6.77,6.77,0,0,1-1.88,1.79,29,29,0,0,1-4.24,2.42l-.47.23a16.18,16.18,0,0,0-.74-3.21,13.62,13.62,0,0,0-.58-1.44,32.89,32.89,0,0,1,5.36-.3,6.71,6.71,0,0,1,2.57.48c.06-.1,0-.12.08.05h0s0,0,0,0Z"/>
</svg>