<svg viewBox="0 0 24 24" xmlns="http://www.w3.org/2000/svg"><path d="M12.89 6.446c0-.187.094-.32.283-.4a.45.45 0 0 1 .51.08l5.002 4.141c.21.174.315.395.315.662a.865.865 0 0 1-.304.672l-5.001 4.283a.48.48 0 0 1-.522.069c-.189-.08-.283-.21-.283-.39v-1.726a.88.88 0 0 0-.304-.67.98.98 0 0 0-.718-.272c-3.181-.008-5.559.651-7.132 1.976-.188.147-.344.177-.467.09-.24-.168-.319-.34-.24-.523 1.139-2.54 3.005-4.261 5.6-5.163a9.464 9.464 0 0 1 2.272-.493c.282-.02.518-.122.707-.31a.912.912 0 0 0 .282-.671V6.446z" fill="#FFF" fill-rule="evenodd"/></svg>