<svg xmlns="http://www.w3.org/2000/svg" viewBox="0 0 64 64">
<path d="M32.15,22.93a3.43,3.43,0,1,0-3.43-3.43A3.43,3.43,0,0,0,32.15,22.93Zm0-5.1a1.67,1.67,0,1,1-1.67,1.67A1.67,1.67,0,0,1,32.15,17.83Z"/><path d="M32.15,34.87a5.66,5.66,0,1,0,5.66,5.66A5.66,5.66,0,0,0,32.15,34.87Zm0,8.46a2.8,2.8,0,1,1,2.8-2.8A2.8,2.8,0,0,1,32.15,43.33Z"/><path d="M43.95,8H19.63a4.81,4.81,0,0,0-4.81,4.81v38.5a4.89,4.89,0,0,0,4.89,4.89H45a3.86,3.86,0,0,0,3.86-3.86V12.94A4.94,4.94,0,0,0,43.95,8Zm-11.8,4.68a6.82,6.82,0,1,1-6.82,6.82A6.82,6.82,0,0,1,32.15,12.68ZM19.73,27.21a1.3,1.3,0,1,1,1.3,1.3A1.3,1.3,0,0,1,19.73,27.21ZM32.15,51.94A11.41,11.41,0,1,1,43.56,40.53,11.41,11.41,0,0,1,32.15,51.94ZM43,28.51a1.3,1.3,0,1,1,1.3-1.3A1.3,1.3,0,0,1,43,28.51Z"/>
</svg>