<svg xmlns="http://www.w3.org/2000/svg" viewBox="0 0 64 64">
<path d="M42.79,30.55c0-.44.08-.89.14-1.32v-.08c.07-.45.15-.9.25-1.35l.07-.29c.1-.44.22-.87.35-1.29l.07-.2q.19-.58.41-1.16l.09-.22c.17-.41.35-.81.55-1.21l.13-.26c.21-.4.42-.8.65-1.19v0c.23-.39.49-.77.75-1.14l.17-.25q.39-.54.82-1.06l.05-.06a19.39,19.39,0,0,1,4.54,11.27H42.78Z"/><path d="M44.84,17.19c-.36.42-.71.85-1,1.29l-.14.2q-.46.64-.87,1.3l-.11.17c-.28.47-.55.94-.79,1.42l-.16.31c-.24.48-.46,1-.67,1.47l-.09.24q-.28.71-.52,1.44l-.07.21c-.16.52-.3,1-.42,1.57l-.08.34c-.11.53-.21,1.06-.29,1.6,0,.08,0,.17,0,.25q-.1.77-.15,1.56c0,.05,0,.1,0,.15H33.57V12.5a19.4,19.4,0,0,1,11.38,4.56Z"/><path d="M30.22,12.57V30.72h-5c0-.05,0-.1,0-.15q0-.79-.15-1.56c0-.08,0-.16,0-.25-.08-.54-.18-1.08-.29-1.61l-.08-.33c-.12-.53-.26-1.06-.42-1.58L24.2,25q-.24-.74-.52-1.46l-.09-.23c-.2-.5-.43-1-.67-1.48l-.15-.3c-.25-.49-.51-1-.8-1.43L21.87,20q-.41-.67-.87-1.3l-.14-.2c-.32-.44-.67-.87-1-1.29l-.1-.13A19.47,19.47,0,0,1,30.22,12.57Z"/><path d="M17.35,19.44l.05.06c.29.34.56.7.82,1.06l.18.25c.26.37.51.75.75,1.14l0,0c.23.39.45.78.65,1.19l.13.27c.2.4.38.8.55,1.21l.09.22q.22.57.41,1.16l.07.2c.13.43.25.86.35,1.3l.07.29c.1.45.18.89.25,1.35v.07c.06.44.11.88.14,1.33v.17H12.8A19.4,19.4,0,0,1,17.35,19.44Z"/><path d="M21.82,34.07s0,.08,0,.11,0,.26-.06.39c-.06.44-.13.88-.21,1.31,0,.18-.08.37-.12.55-.09.4-.2.79-.31,1.18,0,.17-.09.33-.15.5-.17.54-.37,1.07-.59,1.58l0,.08c-.21.49-.45,1-.7,1.45l-.26.47q-.3.52-.62,1l-.32.47q-.38.55-.81,1.07l-.23.3-.06.06a19.42,19.42,0,0,1-4.48-10.56Z"/><path d="M19.83,46.88c.34-.39.66-.8,1-1.21l.15-.21q.42-.58.8-1.18l.14-.22q.41-.66.76-1.34l.15-.3c.24-.47.46-.94.67-1.42l0-.08c.2-.47.37-.94.54-1.42l.1-.29q.24-.73.43-1.49l.07-.28c.12-.48.22-1,.3-1.46l0-.14c.09-.52.15-1,.2-1.58,0-.06,0-.11,0-.17h5V51.49A19.47,19.47,0,0,1,19.73,47Z"/><path d="M33.57,51.57V34.07h5.9c0,.06,0,.12,0,.17.05.53.11,1.05.2,1.57l0,.14c.09.49.19,1,.3,1.46l.07.28q.19.75.43,1.49l.1.29c.16.48.34,1,.54,1.43l0,.07c.2.48.43,1,.67,1.42l.15.3c.24.46.49.9.76,1.34l.14.21q.38.61.81,1.19l.15.21c.31.42.63.82,1,1.22l.1.13A19.41,19.41,0,0,1,33.57,51.57Z"/><path d="M47.32,44.62l-.07-.07-.2-.26q-.44-.54-.84-1.11l-.3-.45q-.34-.51-.64-1L45,41.22c-.26-.48-.5-1-.72-1.48l0,0c-.22-.52-.41-1.05-.59-1.59-.05-.16-.1-.32-.14-.48q-.17-.59-.31-1.19c0-.18-.08-.36-.12-.54-.09-.44-.16-.88-.21-1.32,0-.13,0-.25-.05-.38s0-.08,0-.11h9A19.42,19.42,0,0,1,47.32,44.62Z"/>
</svg>