<svg xmlns="http://www.w3.org/2000/svg" viewBox="0 0 64 64">
<circle cx="18.65" cy="44.55" r="10.27"/><rect x="34.84" y="9.85" width="20.17" height="20.17" rx="2.63" ry="2.63"/><path d="M42.3,35.74,33.86,50.37a2.91,2.91,0,0,0,2.52,4.37H53.27a2.91,2.91,0,0,0,2.52-4.37L47.35,35.74A2.91,2.91,0,0,0,42.3,35.74Z"/><path d="M20.66,30.17l8.62-6.26a2.54,2.54,0,0,0,.92-2.84L26.91,10.94a2.54,2.54,0,0,0-2.42-1.76H13.84a2.54,2.54,0,0,0-2.42,1.76L8.13,21.07a2.54,2.54,0,0,0,.92,2.84l8.62,6.26A2.54,2.54,0,0,0,20.66,30.17Z"/>
</svg>