<svg xmlns="http://www.w3.org/2000/svg" viewBox="0 0 64 64">
    <path d="M54.34,17.91H9.66A1.67,1.67,0,0,0,8,19.57V45.05a1.67,1.67,0,0,0,1.66,1.66H54.34A1.67,1.67,0,0,0,56,45.05V19.57A1.67,1.67,0,0,0,54.34,17.91ZM40.72,25.71h1a1.88,1.88,0,0,1,0,3.77h-1a1.88,1.88,0,0,1,0-3.77Zm-7.66,0h1.34a1.88,1.88,0,0,1,0,3.77H33.05a1.88,1.88,0,1,1,0-3.77Zm-16.84,0H26.59a1.88,1.88,0,1,1,0,3.77H16.21a1.88,1.88,0,0,1,0-3.77Zm3.31,13.86H16.21a1.88,1.88,0,0,1,0-3.77h3.31a1.88,1.88,0,1,1,0,3.77Zm29.85,0H25.88a1.88,1.88,0,1,1,0-3.77H49.37a1.88,1.88,0,0,1,0,3.77Z"/>
</svg>