<svg xmlns="http://www.w3.org/2000/svg" viewBox="0 0 64 64">
<path d="M16.12,32.22a7.11,7.11,0,0,1,7.33-1.51,8.77,8.77,0,0,1,3.67-4.93,7.09,7.09,0,1,0-11,6.44Z"/><path d="M35.53,27.36A10.47,10.47,0,0,1,46,37.83c0,.3,0,.6,0,.9a6.64,6.64,0,0,1,9.41,6c0,3.39-1.95,6.19-5.81,6.57l-27-.17a8.36,8.36,0,1,1,2.93-16.21,10.47,10.47,0,0,1,10.06-7.56"/><circle cx="23.64" cy="14.45" r="1.86" transform="translate(2.65 32.54) rotate(-72.19)"/><circle cx="8.11" cy="22.43" r="1.86" transform="translate(-15.73 23.29) rotate(-72.19)"/><circle cx="8.88" cy="31.85" r="1.86" transform="translate(-13.57 7.58) rotate(-27.19)"/><circle cx="30.85" cy="20.57" r="1.86" transform="translate(-5.99 16.37) rotate(-27.19)"/><circle cx="14.22" cy="15.23" r="1.86" transform="translate(-5.39 8.18) rotate(-27.19)"/>
</svg>