<svg xmlns="http://www.w3.org/2000/svg" viewBox="0 0 51.33 51.33"><title>Found</title><g id="Layer_2" data-name="Layer 2"><g id="Layer_3" data-name="Layer 3"><path d="M47.11,11.57a25.66,25.66,0,1,0-7.35,35.54A25.67,25.67,0,0,0,47.11,11.57Zm-7.85,8a1.45,1.45,0,0,1-.45.76s-16,16-16,16a1.52,1.52,0,0,1-1.11.42,1.62,1.62,0,0,1-1.22-.49L12.37,27.9a1.67,1.67,0,0,1-.48-1.21,1.63,1.63,0,0,1,.48-1.2L14,23.84a1.64,1.64,0,0,1,1.22-.5,1.57,1.57,0,0,1,1.2.5l5.35,5.35,13-13a1.57,1.57,0,0,1,1.64-.44,1.65,1.65,0,0,1,.78.44l1.65,1.65A1.57,1.57,0,0,1,39.26,19.54Z"/></g></g></svg>