<svg xmlns="http://www.w3.org/2000/svg" viewBox="0 0 13.42 13.42"><defs><style>.cls-1{fill:#9fa4a8;}</style></defs><title>search</title><g id="Layer_2" data-name="Layer 2"><g id="Layer_5" data-name="Layer 5"><path class="cls-1" d="M12.31,3a6.71,6.71,0,1,0-1.92,9.29A6.72,6.72,0,0,0,12.31,3Zm-3,5.39a.4.4,0,0,1,.13.31A.42.42,0,0,1,9.27,9l-.43.43a.4.4,0,0,1-.31.13.42.42,0,0,1-.32-.13L6.67,7.93,5.11,9.5a.42.42,0,0,1-.32.13.44.44,0,0,1-.32-.13L4,9.07a.43.43,0,0,1-.12-.31A.45.45,0,0,1,4,8.44L5.61,6.87,4,5.3A.43.43,0,0,1,3.92,5,.45.45,0,0,1,4,4.67l.43-.43a.44.44,0,0,1,.32-.13.42.42,0,0,1,.32.13L6.67,5.81,8.21,4.27a.41.41,0,0,1,.43-.11.49.49,0,0,1,.2.11l.43.43a.41.41,0,0,1,.12.44.47.47,0,0,1-.12.2L7.74,6.87Z"/></g></g></svg>