<svg xmlns="http://www.w3.org/2000/svg" viewBox="0 0 10.2 10.2"><defs><style>.cls-1{fill:#9fa4a8;}</style></defs><title>top</title><g id="Layer_2" data-name="Layer 2"><g id="Layer_5" data-name="Layer 5"><path class="cls-1" d="M10.2,5.65a.7.7,0,0,1-.2.49.66.66,0,0,1-.48.19H7A.72.72,0,0,0,6.33,7v2.5a.66.66,0,0,1-.19.48.68.68,0,0,1-.49.2H4.54a.66.66,0,0,1-.48-.2.67.67,0,0,1-.2-.48V7a.62.62,0,0,0-.2-.48.64.64,0,0,0-.48-.21H.68A.65.65,0,0,1,.2,6.14.66.66,0,0,1,0,5.65V4.55a.66.66,0,0,1,.2-.49.65.65,0,0,1,.48-.19h2.5a.64.64,0,0,0,.48-.21.63.63,0,0,0,.2-.48V.68A.65.65,0,0,1,4.2.09.67.67,0,0,1,4.54,0H5.65a.72.72,0,0,1,.49.2.65.65,0,0,1,.19.48v2.5a.64.64,0,0,0,.21.48A.63.63,0,0,0,7,3.87h2.5a.66.66,0,0,1,.48.19.7.7,0,0,1,.2.49Z"/></g></g></svg>